<?xml version="1.0" encoding="utf-8"?>
<!-- Generator: Adobe Illustrator 16.0.0, SVG Export Plug-In . SVG Version: 6.00 Build 0)  -->
<!DOCTYPE svg PUBLIC "-//W3C//DTD SVG 1.1//EN" "http://www.w3.org/Graphics/SVG/1.1/DTD/svg11.dtd">
<svg version="1.1" id="Camada_1" xmlns="http://www.w3.org/2000/svg" xmlns:xlink="http://www.w3.org/1999/xlink" x="0px" y="0px"
	 width="40px" height="40px" viewBox="0 0 40 40" enable-background="new 0 0 40 40" xml:space="preserve">
<g>
	<linearGradient id="SVGID_1_" gradientUnits="userSpaceOnUse" x1="0.0679" y1="20" x2="39.9316" y2="20">
		<stop  offset="0" style="stop-color:#13181D"/>
		<stop  offset="0.292" style="stop-color:#13181E"/>
		<stop  offset="0.6533" style="stop-color:#13181E"/>
		<stop  offset="1" style="stop-color:#12181E"/>
	</linearGradient>
	<path fill-rule="evenodd" clip-rule="evenodd" fill="url(#SVGID_1_)" d="M0.068,39.939L0.068,39.939L0.068,39.939L0.068,39.939z
		 M20.025,0.061c-10.979,0-19.91,8.931-19.91,19.909s8.931,19.911,19.91,19.911c10.971,0,19.907-8.933,19.907-19.911
		S30.996,0.061,20.025,0.061L20.025,0.061z"/>
	<linearGradient id="SVGID_2_" gradientUnits="userSpaceOnUse" x1="0.6655" y1="19.9487" x2="39.3438" y2="19.9487">
		<stop  offset="0" style="stop-color:#39BFF0"/>
		<stop  offset="0.2322" style="stop-color:#38BDEF"/>
		<stop  offset="0.3968" style="stop-color:#36B8EB"/>
		<stop  offset="0.5406" style="stop-color:#34AFE5"/>
		<stop  offset="0.6724" style="stop-color:#31A2DC"/>
		<stop  offset="0.7961" style="stop-color:#3091D0"/>
		<stop  offset="0.912" style="stop-color:#327CC0"/>
		<stop  offset="1" style="stop-color:#3668B1"/>
	</linearGradient>
	<path fill-rule="evenodd" clip-rule="evenodd" fill="url(#SVGID_2_)" d="M0.666,19.97c0,10.651,8.682,19.319,19.359,19.319
		c10.653,0,19.319-8.668,19.319-19.319c0-10.677-8.666-19.361-19.319-19.361C9.347,0.608,0.666,9.293,0.666,19.97L0.666,19.97z
		 M1.248,19.97c0-10.35,8.427-18.774,18.777-18.774c10.329,0,18.731,8.425,18.731,18.774c0,10.329-8.402,18.734-18.731,18.734
		C9.674,38.704,1.248,30.299,1.248,19.97L1.248,19.97z"/>
	<linearGradient id="SVGID_3_" gradientUnits="userSpaceOnUse" x1="2.9312" y1="14.0938" x2="37.3105" y2="14.0938">
		<stop  offset="0" style="stop-color:#39BFF0"/>
		<stop  offset="0.2322" style="stop-color:#38BDEF"/>
		<stop  offset="0.3968" style="stop-color:#36B8EB"/>
		<stop  offset="0.5406" style="stop-color:#34AFE5"/>
		<stop  offset="0.6724" style="stop-color:#31A2DC"/>
		<stop  offset="0.7961" style="stop-color:#3091D0"/>
		<stop  offset="0.912" style="stop-color:#327CC0"/>
		<stop  offset="1" style="stop-color:#3668B1"/>
	</linearGradient>
	<path fill-rule="evenodd" clip-rule="evenodd" fill="url(#SVGID_3_)" d="M4.003,23.605c-0.081,0.043-0.159,0.159-0.2,0.279
		c-0.038,0.08-0.038,0.195,0,0.354c0.041,0.2,0.156,0.357,0.278,0.439c0.194,0.078,0.396,0.115,0.591,0.035
		c0.238-0.079,0.395-0.195,0.473-0.353c0.081-0.158,0.124-0.36,0.046-0.556c-0.046-0.121-0.081-0.199-0.162-0.237
		c-0.078-0.078-0.199-0.156-0.356-0.156l0,0l-0.078-0.359l0,0c0.2,0,0.435,0.042,0.597,0.158c0.194,0.157,0.316,0.317,0.352,0.517
		c0.08,0.273,0.08,0.592-0.079,0.829c-0.156,0.278-0.354,0.438-0.669,0.554c-0.316,0.078-0.597,0.042-0.835-0.081
		c-0.234-0.157-0.432-0.351-0.513-0.668C3.406,24.238,3.406,24.121,3.406,24c0-0.115,0.041-0.195,0.079-0.273l0,0l-0.157,0.078
		l-0.081-0.277l0.676-0.195L4.003,23.605L4.003,23.605L4.003,23.605z M5.191,22.186l-0.318,0.043v-0.237l-1.504,0.116v0.237H3.09
		l-0.078-0.87l0.315-0.038v0.274l1.502-0.117l-0.035-0.516H4.478l-0.043-0.315l0.632-0.081L5.191,22.186L5.191,22.186L5.191,22.186z
		 M4.276,19.618c0.202,0,0.318-0.044,0.359-0.08c0.081-0.08,0.115-0.158,0.115-0.279c0-0.16,0-0.238-0.078-0.316
		c-0.078-0.037-0.194-0.079-0.356-0.079l0,0l-1.025-0.038v0.195H2.974l0.038-0.828h0.315L3.291,18.43l0.985,0.038l0,0
		c0.159,0,0.28,0,0.359,0.042c0.081,0,0.159,0.036,0.237,0.078c0.078,0.079,0.156,0.157,0.194,0.275
		c0.043,0.12,0.078,0.235,0.078,0.396C5.11,19.38,5.11,19.538,5.067,19.618c-0.078,0.115-0.116,0.193-0.194,0.237
		c-0.078,0.078-0.156,0.114-0.237,0.114c-0.122,0.042-0.238,0.042-0.397,0.042l0,0L3.247,19.97v0.201H2.931l0.043-0.834h0.272v0.237
		L4.276,19.618L4.276,19.618L4.276,19.618z M4.397,16.768l0.67,0.158l0.043-0.158l0,0c0.035-0.157,0.035-0.236,0-0.317
		c-0.043-0.078-0.121-0.156-0.237-0.156c-0.122-0.043-0.237-0.043-0.316,0.035c-0.043,0.043-0.121,0.121-0.159,0.281l0,0V16.768
		L4.397,16.768L4.397,16.768z M3.606,16.567l0.513,0.158l0.041-0.158l0,0c0-0.117,0-0.195-0.041-0.273
		c-0.037-0.078-0.078-0.122-0.115-0.122c-0.122-0.037-0.2,0-0.238,0.044c-0.078,0.035-0.121,0.113-0.121,0.194l0,0L3.606,16.567
		L3.606,16.567L3.606,16.567z M5.226,17.598l-0.275-0.081l0.038-0.194l-1.461-0.358l-0.081,0.237l-0.278-0.08l0.159-0.749l0,0
		c0.078-0.237,0.157-0.396,0.278-0.517c0.119-0.079,0.275-0.116,0.397-0.079c0.115,0.042,0.194,0.079,0.234,0.158
		c0.078,0.078,0.119,0.159,0.119,0.316c0.04-0.157,0.156-0.238,0.237-0.316c0.122-0.037,0.235-0.079,0.395-0.037
		c0.202,0.037,0.318,0.159,0.396,0.318c0.078,0.156,0.078,0.352,0,0.632l0,0L5.226,17.598L5.226,17.598L5.226,17.598z M5.823,15.344
		l-0.28-0.078l0.08-0.238L4.16,14.475l-0.078,0.237L3.844,14.59l0.553-1.541l0.554,0.237L4.83,13.602L4.556,13.48l-0.24,0.635
		l0.479,0.199l0.234-0.553l0.278,0.115L5.11,14.431l0.632,0.237l0.238-0.631l-0.316-0.118l0.159-0.317l0.592,0.239L5.823,15.344
		L5.823,15.344L5.823,15.344z M7.008,10.833l0.275-0.396L6.536,10.2L7.008,10.833L7.008,10.833L7.008,10.833z M7.443,11.425
		l0.122-0.196l0.272,0.159L7.362,12.02l-0.235-0.156l0.119-0.159l-0.991-1.309l-0.115,0.158l-0.235-0.158l0.632-0.907l0.237,0.196
		L6.614,9.884l1.583,0.433l0.115-0.16l0.238,0.203l-0.433,0.632l-0.28-0.158l0.159-0.201l-0.397-0.116l-0.394,0.556L7.443,11.425
		L7.443,11.425L7.443,11.425z M9.303,9.171L9.5,8.972l0.237,0.199l-0.672,0.67l-0.2-0.194l0.2-0.2L7.918,8.38L7.721,8.618
		l0.237,0.193L7.721,9.05L7.284,8.654L8.39,7.468l0.44,0.396L8.593,8.101L8.356,7.905L8.197,8.101L9.303,9.171L9.303,9.171
		L9.303,9.171z M10.451,8.54l-0.159-0.238l0.159-0.121L9.5,6.954L9.303,7.073L9.147,6.834l0.669-0.511l0.2,0.237l-0.2,0.158
		l0.947,1.224l0.441-0.354l-0.238-0.281l0.275-0.193l0.395,0.513L10.451,8.54L10.451,8.54L10.451,8.54z M12.152,7.308l-0.156-0.271
		l0.193-0.122l-0.747-1.345l-0.2,0.12L11.083,5.41l1.423-0.791l0.281,0.517l-0.281,0.158l-0.156-0.237l-0.592,0.317l0.275,0.474
		l0.516-0.278l0.157,0.278l-0.517,0.275l0.359,0.596l0.592-0.317l-0.197-0.316l0.318-0.159l0.316,0.555L12.152,7.308L12.152,7.308
		L12.152,7.308z M11.555,4.935V4.344l0.28-0.156l-0.118,0.632L11.555,4.935L11.555,4.935L11.555,4.935z M15.082,5.569l0.234-0.117
		l0.119,0.317l-0.907,0.273L14.447,5.77l0.275-0.08l-0.51-1.468l-0.281,0.081l0.121,0.316l-0.359,0.078L13.5,4.144l1.541-0.554
		l0.197,0.598l-0.315,0.115l-0.079-0.317l-0.28,0.121L15.082,5.569L15.082,5.569L15.082,5.569z M16.939,5.057l0.2-0.042l0.081,0.279
		l-0.838,0.195l-0.078-0.273l0.237-0.08l-0.354-1.504l-0.2,0.037L15.91,3.395l0.832-0.2l0.038,0.317l-0.197,0.041L16.939,5.057
		L16.939,5.057L16.939,5.057z M19.353,3.59c-0.041-0.115-0.122-0.195-0.235-0.273c-0.081-0.042-0.202-0.08-0.315-0.08
		c-0.24,0.038-0.397,0.116-0.519,0.275c-0.116,0.12-0.157,0.316-0.157,0.554c0.041,0.237,0.119,0.395,0.235,0.516
		c0.159,0.116,0.315,0.197,0.554,0.159c0.121,0,0.237-0.043,0.315-0.121c0.081-0.038,0.159-0.159,0.237-0.275l0,0l0.362-0.041l0,0
		c-0.043,0.236-0.124,0.395-0.281,0.554c-0.196,0.158-0.354,0.237-0.591,0.279c-0.318,0-0.597-0.079-0.832-0.279
		c-0.24-0.194-0.355-0.433-0.396-0.75c-0.038-0.316,0.041-0.595,0.234-0.832c0.203-0.239,0.44-0.354,0.757-0.397
		c0.115,0,0.237,0,0.354,0.044c0.078,0.036,0.2,0.078,0.237,0.156l0,0v-0.2l0.316-0.036l0.043,0.712L19.353,3.59L19.353,3.59
		L19.353,3.59z M20.729,3.87c0.044-0.317,0.162-0.554,0.398-0.755c0.236-0.158,0.518-0.238,0.834-0.194
		c0.156,0,0.316,0.036,0.432,0.114c0.121,0.042,0.199,0.123,0.281,0.239c0.115,0.12,0.193,0.278,0.234,0.395
		c0.082,0.159,0.082,0.316,0.037,0.475c0,0.159-0.037,0.28-0.115,0.396c-0.078,0.158-0.156,0.239-0.238,0.358
		c-0.156,0.081-0.277,0.159-0.438,0.196c-0.115,0.042-0.275,0.042-0.432,0.042c-0.316-0.042-0.596-0.201-0.791-0.438
		C20.773,4.46,20.7,4.188,20.729,3.87L20.729,3.87L20.729,3.87z M21.127,3.949c-0.039,0.194,0,0.395,0.121,0.554
		c0.115,0.159,0.318,0.237,0.512,0.275c0.201,0,0.357-0.038,0.518-0.159c0.158-0.116,0.236-0.275,0.275-0.513
		c0.039-0.2,0-0.395-0.117-0.554c-0.121-0.158-0.318-0.236-0.518-0.278c-0.195-0.038-0.352,0.042-0.512,0.156
		C21.248,3.553,21.166,3.712,21.127,3.949L21.127,3.949L21.127,3.949z M26.113,4.266l-0.318,0.713l0.121,0.036l0,0
		c0.16,0.079,0.316,0.079,0.396,0.079c0.117-0.037,0.195-0.115,0.238-0.237c0.037-0.116,0.037-0.237,0-0.317
		c-0.082-0.079-0.16-0.158-0.359-0.236l0,0L26.113,4.266L26.113,4.266L26.113,4.266z M25.52,5.689l0.24,0.116l-0.078,0.279
		l-0.834-0.359l0.078-0.273l0.236,0.117l0.598-1.463l-0.24-0.079l0.119-0.279l0.674,0.279l0,0c0.275,0.116,0.473,0.238,0.592,0.396
		c0.078,0.195,0.078,0.354,0,0.591c-0.082,0.201-0.197,0.315-0.396,0.359c-0.195,0.078-0.432,0.036-0.713-0.08l0,0l-0.113-0.042
		L25.52,5.689L25.52,5.689L25.52,5.689z M27.773,6.007l0.438,0.237l0.16-0.755L27.773,6.007L27.773,6.007L27.773,6.007z
		 M27.221,6.48l0.199,0.117l-0.121,0.236l-0.67-0.396l0.156-0.237l0.119,0.078l1.264-1.063l-0.191-0.122l0.156-0.274l0.951,0.555
		l-0.16,0.273l-0.238-0.115l-0.314,1.619l0.193,0.078l-0.158,0.281l-0.713-0.438l0.158-0.239l0.203,0.12l0.078-0.438l-0.598-0.315
		L27.221,6.48L27.221,6.48L27.221,6.48z M30.463,6.756l-0.316,0.438l0.201,0.158l0,0c0.115,0.078,0.195,0.159,0.273,0.159
		c0.08,0,0.16-0.043,0.201-0.121C30.9,7.308,30.9,7.229,30.9,7.151c-0.041-0.078-0.078-0.159-0.199-0.237l0,0L30.463,6.756
		L30.463,6.756L30.463,6.756z M29.516,7.984l0.199,0.158L29.557,8.38l-0.711-0.553l0.193-0.238l0.16,0.157l0.99-1.229L29.99,6.36
		l0.199-0.237l0.67,0.554l0,0c0.238,0.157,0.359,0.315,0.396,0.475c0.045,0.156,0,0.278-0.117,0.438
		C31.061,7.667,30.98,7.746,30.9,7.783c-0.119,0-0.199,0-0.313-0.037c0.033,0.081,0.078,0.159,0.113,0.238
		c0,0.078-0.035,0.158-0.113,0.236l0,0l-0.281,0.354l0.156,0.122l-0.195,0.237l-0.475-0.359l0.354-0.432l0,0
		c0.121-0.158,0.16-0.237,0.16-0.315c0-0.081-0.078-0.2-0.197-0.28l0,0L29.953,7.43L29.516,7.984L29.516,7.984L29.516,7.984z
		 M31.93,9.209l0.318,0.396l0.395-0.671L31.93,9.209L31.93,9.209L31.93,9.209z M31.256,9.524l0.158,0.16l-0.238,0.199l-0.51-0.597
		L30.9,9.093l0.115,0.116l1.508-0.591l-0.16-0.16l0.238-0.199l0.713,0.834l-0.197,0.194l-0.156-0.194l-0.834,1.423l0.121,0.159
		l-0.238,0.194l-0.516-0.632l0.199-0.195l0.158,0.158l0.236-0.359l-0.475-0.476L31.256,9.524L31.256,9.524L31.256,9.524z
		 M32.918,11.66l0.121,0.203l-0.281,0.156l-0.432-0.713l0.275-0.156l0.121,0.194l1.301-0.829l-0.115-0.199l0.275-0.16l0.316,0.556
		l-0.748,1.424l0.904-0.591l-0.113-0.2l0.275-0.158l0.434,0.712l-0.277,0.159l-0.115-0.194l-1.623,0.985l-0.16-0.275l0.912-1.582
		L32.918,11.66L32.918,11.66L32.918,11.66z M34.896,13.877l0.156,0.438l0.598-0.474L34.896,13.877L34.896,13.877L34.896,13.877z
		 M34.184,13.919l0.078,0.196l-0.273,0.121l-0.279-0.713l0.279-0.121l0.035,0.159l1.664-0.038l-0.078-0.237l0.277-0.078l0.398,1.028
		l-0.281,0.078l-0.117-0.237l-1.23,1.066l0.045,0.2l-0.279,0.078l-0.275-0.754l0.275-0.115L34.5,14.79l0.318-0.279l-0.24-0.634
		L34.184,13.919L34.184,13.919L34.184,13.919z M34.578,15.935l0.281-0.037l0.037,0.196l1.545-0.317l-0.078-0.238l0.314-0.079
		l0.354,1.626l-0.553,0.116L36.4,16.885l0.277-0.079l-0.158-0.671l-0.555,0.116l0.156,0.555l-0.314,0.079l-0.119-0.556l-0.67,0.159
		l0.117,0.675l0.355-0.078l0.082,0.316l-0.635,0.159L34.578,15.935L34.578,15.935L34.578,15.935z M35.412,18.825v0.236h-0.277
		l-0.039-0.832h0.316v0.238l1.541-0.038v-0.237h0.316v0.671l-1.383,0.791l1.111-0.036V19.38h0.271l0.041,0.829h-0.313V19.97
		l-1.902,0.042v-0.315l1.621-0.913L35.412,18.825L35.412,18.825L35.412,18.825z M35.252,21.357l-0.199-0.041L35.096,21l0.711,0.121
		l-0.041,0.273l0,0c-0.156,0.042-0.275,0.08-0.354,0.159c-0.078,0.078-0.16,0.2-0.16,0.315c0,0.08,0,0.158,0.082,0.238
		c0.035,0.078,0.113,0.121,0.193,0.159c0.082,0,0.16-0.038,0.203-0.081c0.076-0.036,0.117-0.158,0.195-0.272l0,0l0.078-0.237l0,0
		c0.078-0.201,0.156-0.318,0.281-0.397C36.4,21.2,36.52,21.156,36.678,21.2c0.156,0,0.32,0.078,0.398,0.236
		c0.115,0.117,0.156,0.274,0.115,0.477c0,0.114-0.037,0.194-0.078,0.272c-0.037,0.081-0.082,0.159-0.16,0.197l0,0h0.16l-0.037,0.315
		l-0.635-0.078l0.037-0.313l0,0c0.121,0,0.199-0.04,0.277-0.121c0.078-0.036,0.117-0.158,0.117-0.236
		c0.043-0.117,0-0.195-0.039-0.238c-0.039-0.079-0.078-0.117-0.156-0.117s-0.121,0-0.199,0.038
		c-0.037,0.044-0.078,0.079-0.115,0.159l0,0l-0.078,0.278l0,0c-0.125,0.237-0.238,0.392-0.32,0.47
		c-0.117,0.081-0.277,0.115-0.438,0.081c-0.193-0.044-0.354-0.122-0.475-0.237c-0.078-0.116-0.115-0.313-0.115-0.514
		c0.037-0.115,0.08-0.193,0.115-0.315C35.096,21.475,35.174,21.395,35.252,21.357L35.252,21.357L35.252,21.357z M34.818,23.21
		l0.277,0.079l-0.043,0.238l1.504,0.357l0.043-0.201l0.273,0.081l-0.432,1.582l-0.555-0.159l0.078-0.316l0.275,0.078l0.201-0.669
		l-0.516-0.159l-0.16,0.557l-0.318-0.082l0.162-0.553l-0.672-0.2l-0.201,0.634l0.359,0.119l-0.121,0.318l-0.592-0.158L34.818,23.21
		L34.818,23.21L34.818,23.21z"/>
	<linearGradient id="SVGID_4_" gradientUnits="userSpaceOnUse" x1="16.5415" y1="35.877" x2="23.8594" y2="35.877">
		<stop  offset="0" style="stop-color:#39BFF0"/>
		<stop  offset="0.2322" style="stop-color:#38BDEF"/>
		<stop  offset="0.3968" style="stop-color:#36B8EB"/>
		<stop  offset="0.5406" style="stop-color:#34AFE5"/>
		<stop  offset="0.6724" style="stop-color:#31A2DC"/>
		<stop  offset="0.7961" style="stop-color:#3091D0"/>
		<stop  offset="0.912" style="stop-color:#327CC0"/>
		<stop  offset="1" style="stop-color:#3668B1"/>
	</linearGradient>
	<path fill-rule="evenodd" clip-rule="evenodd" fill="url(#SVGID_4_)" d="M16.542,36.74l0.041-0.273l0.24,0.037l0.272-1.461
		l-0.237-0.044l0.043-0.315l0.592,0.121l-0.319,1.779l0.24,0.041l-0.037,0.237L16.542,36.74L16.542,36.74L16.542,36.74z
		 M19.118,35.236c-0.081,0-0.159,0.044-0.237,0.078c-0.044,0.082-0.078,0.16-0.078,0.281c0,0.08,0,0.16,0.034,0.238
		c0.079,0.078,0.122,0.115,0.238,0.115c0.078,0,0.156-0.037,0.2-0.078c0.078-0.079,0.115-0.159,0.115-0.237
		c0-0.116,0-0.196-0.037-0.275C19.275,35.314,19.196,35.28,19.118,35.236L19.118,35.236L19.118,35.236z M18.758,36.467
		c0,0.08,0,0.158,0.044,0.236c0.034,0.037,0.113,0.037,0.194,0.037c0.121,0,0.199,0,0.234-0.037
		c0.044-0.078,0.081-0.199,0.122-0.395l0,0v-0.159l0,0c-0.078,0.038-0.122,0.08-0.2,0.08c-0.078,0.036-0.116,0.036-0.194,0.036
		c-0.156,0-0.318-0.078-0.396-0.238c-0.119-0.115-0.157-0.271-0.119-0.473c0-0.196,0.078-0.353,0.197-0.475
		c0.162-0.117,0.318-0.159,0.513-0.159c0.237,0.042,0.396,0.122,0.476,0.237c0.121,0.156,0.159,0.359,0.121,0.634l0,0l-0.043,0.633
		l0,0c-0.035,0.237-0.116,0.394-0.238,0.476c-0.115,0.12-0.272,0.199-0.51,0.158c-0.2,0-0.359-0.08-0.438-0.196
		c-0.116-0.122-0.159-0.237-0.116-0.396l0,0v-0.042L18.758,36.467L18.758,36.467L18.758,36.467z M21.363,36.387h0.318l0.078,0.555
		l-1.378,0.117v-0.274l0.588-0.791l0,0c0.119-0.122,0.158-0.237,0.197-0.317c0.041-0.08,0.082-0.158,0.082-0.238
		c-0.041-0.079-0.041-0.123-0.121-0.157c-0.039-0.044-0.117-0.078-0.195-0.044c-0.122,0-0.203,0.044-0.232,0.122
		c-0.081,0.079-0.081,0.196-0.043,0.397l0,0v0.036l-0.354,0.042l0,0v-0.042v-0.036c-0.044-0.281,0-0.476,0.116-0.598
		c0.078-0.159,0.237-0.237,0.472-0.237c0.197-0.038,0.357,0,0.472,0.122c0.16,0.078,0.203,0.193,0.238,0.395
		c0,0.08,0,0.196-0.078,0.318c-0.037,0.115-0.117,0.237-0.275,0.432l0,0l-0.475,0.553l0.59-0.037V36.387L21.363,36.387
		L21.363,36.387z M22.631,36.149l0.516-0.078l-0.078-0.517l0,0c-0.045-0.08-0.045-0.117-0.045-0.196c0-0.078,0-0.156,0-0.237l0,0
		L22.631,36.149L22.631,36.149L22.631,36.149z M22.99,36.818l-0.045-0.234l0.281-0.037l-0.043-0.238l-0.791,0.158l-0.078-0.279
		l0.594-1.461l0.318-0.043l0.238,1.31l0.238-0.044l0.078,0.238l-0.279,0.078l0.041,0.201l0.271-0.042l0.045,0.278L22.99,36.818
		L22.99,36.818L22.99,36.818z"/>
	<linearGradient id="SVGID_5_" gradientUnits="userSpaceOnUse" x1="6.3589" y1="19.9526" x2="33.6465" y2="19.9526">
		<stop  offset="0" style="stop-color:#39BFF0"/>
		<stop  offset="0.2322" style="stop-color:#38BDEF"/>
		<stop  offset="0.3968" style="stop-color:#36B8EB"/>
		<stop  offset="0.5406" style="stop-color:#34AFE5"/>
		<stop  offset="0.6724" style="stop-color:#31A2DC"/>
		<stop  offset="0.7961" style="stop-color:#3091D0"/>
		<stop  offset="0.912" style="stop-color:#327CC0"/>
		<stop  offset="1" style="stop-color:#3668B1"/>
	</linearGradient>
	<path fill-rule="evenodd" clip-rule="evenodd" fill="url(#SVGID_5_)" d="M29.635,10.311c-2.588-2.579-6.016-4.002-9.648-4.002
		c-3.619,0-7.035,1.423-9.623,4.008c-2.585,2.578-4.005,5.998-4.005,9.617c0,3.629,1.42,7.059,4.005,9.648
		c2.588,2.584,6.001,4.015,9.623,4.015c7.529,0,13.66-6.134,13.66-13.663C33.646,16.314,32.221,12.895,29.635,10.311L29.635,10.311z
		 M10.492,28.865V11.028c0.092-0.101,0.188-0.199,0.289-0.301c1.047-1.043,2.226-1.888,3.51-2.516v23.476
		c-1.284-0.629-2.463-1.479-3.51-2.523C10.679,29.064,10.583,28.967,10.492,28.865L10.492,28.865z M18.126,32.873V7.024
		c0.611-0.084,1.234-0.131,1.86-0.131c0.652,0,1.298,0.047,1.931,0.143v25.827c-0.633,0.096-1.27,0.144-1.931,0.144
		C19.361,33.007,18.738,32.965,18.126,32.873L18.126,32.873z M25.76,31.661V8.238c1.26,0.627,2.432,1.46,3.459,2.489
		c0.113,0.116,0.227,0.233,0.338,0.348v17.752C28.475,29.989,27.188,30.954,25.76,31.661L25.76,31.661z"/>
	<linearGradient id="SVGID_6_" gradientUnits="userSpaceOnUse" x1="8.6313" y1="19.9858" x2="30.9375" y2="19.9858">
		<stop  offset="0" style="stop-color:#13181D"/>
		<stop  offset="0.292" style="stop-color:#13181E"/>
		<stop  offset="0.6533" style="stop-color:#13181E"/>
		<stop  offset="1" style="stop-color:#12181E"/>
	</linearGradient>
	<path fill-rule="evenodd" clip-rule="evenodd" fill="url(#SVGID_6_)" d="M20.066,10.991c-1.545,0.195-2.971,0.907-4.237,1.936
		c-2.173-0.632-5.615,0.635-6.525,5.661c-0.078,0.591-0.2,1.504-0.672,2.137c0.55,0.275,0.947,0.907,1.226,1.461
		c1.109,2.37,2.373,3.793,3.677,4.627c0.081,0.87-0.156,1.898-1.185,2.569c0.753,0.755,1.781,0.713,2.529,0.042
		c1.031,0.514,2.101,0.514,2.813-0.359c-0.791-0.115-1.388-0.748-1.704-1.344c2.18,0.396,4.271,0.236,6.208-0.791
		c0,0.753-0.197,1.545-1.068,1.662c0.396,0.868,1.465,1.026,2.256,0.041c1.268,0.749,2.256,0.475,2.57-0.95
		c-1.223,0.317-1.74-0.792-1.74-1.898c2.256-1.267,5.344-3.556,6.725-3.323c-0.475-0.592-1.025-0.945-1.582-0.945
		c0.121-0.516,0.279-1.028,0.52-1.546c-1.863,0.913-3.877,2.807-5.822,4.232l0,0v-2.924l0,0c0.713,0.433,1.504,0.829,2.498,0.237
		c0.713-0.438,1.186-1.741,1.775-4.193c0.16-0.517,0.359-1.188,0.836-1.583c-0.477-0.596-0.791-1.027-0.869-1.702
		c-0.441-3.362-1.586-3.959-3.008-3.995c-1.232-0.079-1.783,0.474-2.496,0.908c-0.672-0.354-1.223-0.396-1.898-0.475
		c1.107,2.652,0.91,5.343,0.316,8.034c0.594,0.87,0.754,3.439,0.754,6.678c-1.974,1.15-4.031,0.912-6.37,0.316l0,0V23.13l0,0
		c1.028,0,1.822-0.432,2.417-1.181c0.196,1.225-0.078,2.253-1.029,2.844c0.476,0.79,1.305,0.79,2.058,0.121
		c1.305,0.828,2.129,0.273,2.53-0.438c-1.817-0.318-1.779-2.563-1.069-5.889C19.75,16.216,19.788,13.64,20.066,10.991L20.066,10.991
		L20.066,10.991z M23.781,12.927c0.393-1.776,2.014-1.539,2.41,0c0.277,0.95-0.115,2.101-0.432,2.971
		c0.271,0.513,0.631,1.619,0.473,2.175c-0.357,1.502-1.742,1.661-2.418,0.078c-0.271-0.67,0.123-1.619,0.479-2.253
		C23.975,15.063,23.543,13.877,23.781,12.927L23.781,12.927L23.781,12.927z M14.484,14.394c-1.065,1.028-0.984,2.332-0.984,4.432
		c0,0.555-0.238,0.908-0.679,1.346c0.794,1.146,0.679,2.174,0.476,3.318c-0.904-0.753-1.066-1.813-0.869-3.043
		c-1.186-1.304-0.907-3.245,0.121-4.865C12.902,14.984,13.693,14.314,14.484,14.394L14.484,14.394L14.484,14.394z M15.513,21.316
		c-0.275-2.649-0.237-4.987,0.554-6.488c0.475,0.199,0.475,0.71,0.199,0.869c-0.675,0.396-0.438,1.544,0.514,1.108
		c1.15-0.555,0.634-2.138,0.237-2.929c0.156-0.115,0.315-0.275,0.519-0.396c0.669,1.547,0.788,4.396,0.075,6.216
		C17.22,20.682,16.507,21.316,15.513,21.316L15.513,21.316L15.513,21.316z"/>
	<linearGradient id="SVGID_7_" gradientUnits="userSpaceOnUse" x1="8.5151" y1="19.9839" x2="31.0547" y2="19.9839">
		<stop  offset="0" style="stop-color:#39BFF0"/>
		<stop  offset="0.2322" style="stop-color:#38BDEF"/>
		<stop  offset="0.3968" style="stop-color:#36B8EB"/>
		<stop  offset="0.5406" style="stop-color:#34AFE5"/>
		<stop  offset="0.6724" style="stop-color:#31A2DC"/>
		<stop  offset="0.7961" style="stop-color:#3091D0"/>
		<stop  offset="0.912" style="stop-color:#327CC0"/>
		<stop  offset="1" style="stop-color:#3668B1"/>
	</linearGradient>
	<path fill-rule="evenodd" clip-rule="evenodd" fill="url(#SVGID_7_)" d="M23.063,10.6c0,0-0.195,0.128-0.285,0.186
		c-0.607-0.306-1.117-0.368-1.709-0.438l-0.163-0.016l-0.147,0.201c0.58,1.391,0.779,2.791,0.779,4.109
		c0,1.396-0.225,2.706-0.475,3.835l-0.01,0.063l0.033,0.054c0.643,0.938,0.721,4.137,0.727,6.51
		c-1.826,1.029-3.755,0.865-6.071,0.289c0-0.199,0-1.889,0-2.121c0.847-0.035,1.574-0.363,2.162-0.979
		c0.009,0.125,0.021,0.252,0.021,0.373c0,0.907-0.342,1.578-1.023,2.006l-0.121,0.072l0.072,0.127
		c0.229,0.38,0.545,0.605,0.919,0.664c0.408,0.064,0.854-0.099,1.277-0.447c0.574,0.343,1.107,0.465,1.582,0.343
		c0.547-0.142,0.881-0.56,1.061-0.881l-0.1-0.218c-0.453-0.078-0.782-0.277-1.004-0.617c-0.542-0.807-0.527-2.373,0.052-5.096
		l0.012-0.042l-0.012-0.037c-0.809-2.558-0.657-5.37-0.432-7.533l-0.162-0.163c-1.461,0.19-2.893,0.839-4.248,1.927
		c-1.147-0.312-2.44-0.096-3.559,0.594c-1.102,0.681-2.524,2.139-3.083,5.197c0,0.004,0,0.021,0,0.021
		c-0.078,0.58-0.194,1.456-0.641,2.052l0.052,0.223c0.412,0.207,0.791,0.664,1.159,1.397c1.021,2.173,2.217,3.693,3.666,4.636
		c0.006,0.07,0.012,0.139,0.012,0.219c0,0.627-0.188,1.535-1.137,2.15l-0.02,0.229c0.75,0.748,1.831,0.791,2.66,0.104
		c1.165,0.549,2.214,0.397,2.897-0.432l-0.093-0.237c-0.713-0.106-1.186-0.644-1.435-1.007c2.168,0.344,4.063,0.1,5.761-0.745
		c-0.055,0.775-0.354,1.198-0.934,1.276l-0.11,0.206c0.204,0.449,0.575,0.739,1.02,0.797c0.486,0.058,0.994-0.174,1.4-0.634
		c0.668,0.37,1.271,0.466,1.746,0.26c0.465-0.199,0.783-0.66,0.934-1.361l-0.18-0.174c-0.385,0.101-0.713,0.052-0.965-0.148
		c-0.354-0.275-0.57-0.844-0.582-1.529c0.557-0.316,1.158-0.685,1.791-1.082c1.773-1.098,3.781-2.341,4.758-2.179l0.137-0.231
		c-0.467-0.586-0.988-0.925-1.516-0.986c0.129-0.506,0.275-0.938,0.465-1.352l-0.199-0.195c-1.27,0.623-2.629,1.716-3.941,2.765
		c-0.547,0.443-1.111,0.893-1.66,1.304c0-0.428,0-1.99,0-2.373c0.701,0.406,1.469,0.674,2.42,0.11
		c0.797-0.493,1.281-1.941,1.846-4.284c0-0.005,0.01-0.031,0.01-0.031c0.152-0.495,0.344-1.119,0.775-1.478l0.113-0.09l-0.096-0.111
		c-0.469-0.59-0.766-0.995-0.838-1.63c-0.434-3.36-1.572-4.083-3.148-4.124C24.225,9.826,23.635,10.222,23.063,10.6L23.063,10.6z
		 M22.867,11.075l0.359-0.231c0.555-0.368,1.082-0.718,2.047-0.654c1.156,0.032,2.416,0.358,2.867,3.867
		c0.082,0.664,0.375,1.107,0.82,1.667c-0.416,0.417-0.607,1.023-0.758,1.518l-0.012,0.044h-0.006
		c-0.533,2.215-1.01,3.672-1.717,4.105c-0.906,0.543-1.621,0.199-2.334-0.24l-0.227,0.128v2.924l0.234,0.116
		c0.631-0.459,1.277-0.982,1.906-1.484c1.178-0.944,2.385-1.908,3.529-2.535c-0.145,0.356-0.264,0.742-0.365,1.186l0.143,0.18
		c0.414,0,0.844,0.226,1.25,0.643c-1.123,0.076-2.891,1.167-4.6,2.228c-0.66,0.411-1.287,0.796-1.863,1.122l-0.072,0.043v0.085
		c0,0.823,0.256,1.493,0.703,1.841c0.273,0.211,0.602,0.295,0.98,0.242c-0.145,0.486-0.379,0.802-0.707,0.939
		c-0.406,0.18-0.963,0.075-1.588-0.301l-0.109-0.063l-0.082,0.1c-0.354,0.443-0.797,0.665-1.215,0.617
		c-0.283-0.037-0.527-0.205-0.691-0.463c0.484-0.145,0.984-0.58,0.984-1.768l-0.217-0.128c-1.78,0.944-3.785,1.198-6.115,0.776
		l-0.153,0.21c0.365,0.691,0.934,1.181,1.553,1.366c-0.813,0.777-1.877,0.434-2.466,0.138l-0.09-0.042l-0.072,0.064
		c-0.681,0.605-1.542,0.627-2.193,0.078c0.919-0.686,1.106-1.625,1.106-2.278c0-0.117-0.006-0.224-0.017-0.318l-0.003-0.068
		l-0.064-0.042c-1.428-0.906-2.616-2.399-3.625-4.557c-0.359-0.717-0.738-1.192-1.156-1.451c0.418-0.648,0.533-1.489,0.614-2.059
		v-0.01c0.536-2.95,1.898-4.347,2.95-4.996c1.046-0.654,2.318-0.854,3.388-0.543l0.075,0.021l0.063-0.049
		c1.272-1.038,2.611-1.661,3.979-1.878c-0.09,0.893-0.171,1.884-0.171,2.918c0,1.472,0.154,3.028,0.617,4.511
		c-0.304,1.414-0.451,2.517-0.451,3.377c0,0.854,0.147,1.467,0.448,1.91c0.229,0.348,0.56,0.579,0.98,0.695
		c-0.162,0.231-0.412,0.475-0.768,0.569c-0.417,0.105-0.904-0.017-1.44-0.358l-0.096-0.058l-0.087,0.073
		c-0.377,0.338-0.773,0.496-1.121,0.443c-0.243-0.037-0.458-0.185-0.632-0.418c0.679-0.484,1.032-1.223,1.032-2.18
		c0-0.226-0.021-0.467-0.064-0.721l-0.255-0.066c-0.6,0.747-1.368,1.127-2.304,1.127l-0.145,0.142v2.491l0.107,0.025
		c2.472,0.627,4.52,0.813,6.479-0.332l0.07-0.041v-0.086c0-3.803-0.227-5.877-0.74-6.704c0.25-1.135,0.471-2.444,0.471-3.841
		c0-1.281-0.189-2.638-0.719-3.993c0.551,0.063,1.039,0.13,1.605,0.432l0.08,0.043L22.867,11.075L22.867,11.075z"/>
	<linearGradient id="SVGID_8_" gradientUnits="userSpaceOnUse" x1="23.5625" y1="15.4775" x2="26.4355" y2="15.4775">
		<stop  offset="0" style="stop-color:#39BFF0"/>
		<stop  offset="0.2322" style="stop-color:#38BDEF"/>
		<stop  offset="0.3968" style="stop-color:#36B8EB"/>
		<stop  offset="0.5406" style="stop-color:#34AFE5"/>
		<stop  offset="0.6724" style="stop-color:#31A2DC"/>
		<stop  offset="0.7961" style="stop-color:#3091D0"/>
		<stop  offset="0.912" style="stop-color:#327CC0"/>
		<stop  offset="1" style="stop-color:#3668B1"/>
	</linearGradient>
	<path fill-rule="evenodd" clip-rule="evenodd" fill="url(#SVGID_8_)" d="M24.916,11.534c-0.613,0.011-1.096,0.518-1.281,1.36
		c-0.051,0.202-0.072,0.412-0.072,0.629c0,0.844,0.34,1.751,0.572,2.363c-0.281,0.507-0.555,1.161-0.555,1.752
		c0,0.194,0.033,0.391,0.105,0.57c0.344,0.806,0.898,1.255,1.492,1.209c0.559-0.05,1.016-0.551,1.195-1.31
		c0.035-0.11,0.045-0.232,0.045-0.364c0-0.617-0.291-1.436-0.502-1.857c0.27-0.749,0.52-1.52,0.52-2.253
		c0-0.252-0.035-0.506-0.102-0.743C26.121,12.072,25.555,11.524,24.916,11.534L24.916,11.534z M23.955,18.092
		c-0.27-0.643,0.18-1.609,0.465-2.125l0.035-0.059l-0.025-0.063c-0.277-0.729-0.744-1.947-0.508-2.88v-0.006
		c0.154-0.701,0.527-1.123,0.998-1.129c0.416-0.01,0.93,0.344,1.129,1.135c0.273,0.944-0.146,2.109-0.428,2.88l-0.027,0.063
		l0.033,0.059c0.289,0.531,0.602,1.576,0.463,2.068c-0.15,0.638-0.51,1.05-0.939,1.087C24.693,19.163,24.244,18.779,23.955,18.092
		L23.955,18.092z M23.635,12.895L23.635,12.895L23.635,12.895L23.635,12.895z"/>
	<linearGradient id="SVGID_9_" gradientUnits="userSpaceOnUse" x1="11.5024" y1="18.9189" x2="14.5854" y2="18.9189">
		<stop  offset="0" style="stop-color:#39BFF0"/>
		<stop  offset="0.2322" style="stop-color:#38BDEF"/>
		<stop  offset="0.3968" style="stop-color:#36B8EB"/>
		<stop  offset="0.5406" style="stop-color:#34AFE5"/>
		<stop  offset="0.6724" style="stop-color:#31A2DC"/>
		<stop  offset="0.7961" style="stop-color:#3091D0"/>
		<stop  offset="0.912" style="stop-color:#327CC0"/>
		<stop  offset="1" style="stop-color:#3668B1"/>
	</linearGradient>
	<path fill-rule="evenodd" clip-rule="evenodd" fill="url(#SVGID_9_)" d="M12.421,15.509c-0.611,0.959-0.919,1.94-0.919,2.837
		c0,0.812,0.258,1.556,0.774,2.147c-0.047,0.296-0.073,0.573-0.073,0.833c0,0.986,0.331,1.72,1,2.273l0.24-0.084
		c0.081-0.484,0.148-0.939,0.148-1.372c0-0.653-0.148-1.282-0.586-1.956c0.397-0.407,0.635-0.791,0.635-1.362v-0.407
		c0-0.124,0-0.252,0-0.374c0-1.65,0.058-2.688,0.944-3.544l-0.087-0.255C13.679,14.167,12.835,14.816,12.421,15.509L12.421,15.509z
		 M12.502,21.316c0-0.258,0.021-0.543,0.072-0.844l0.012-0.069l-0.05-0.053c-0.527-0.585-0.741-1.277-0.741-1.984
		c0-0.943,0.38-1.92,0.872-2.707c0.302-0.5,0.884-0.997,1.469-1.101c-0.732,0.885-0.785,1.973-0.785,3.497c0,0.122,0,0.242,0,0.362
		v0.407c0,0.512-0.223,0.833-0.629,1.24l-0.09,0.09l0.07,0.1c0.449,0.649,0.594,1.261,0.594,1.899c0,0.332-0.041,0.68-0.099,1.045
		C12.728,22.725,12.502,22.113,12.502,21.316L12.502,21.316z"/>
	<linearGradient id="SVGID_10_" gradientUnits="userSpaceOnUse" x1="15.2134" y1="17.4126" x2="18.2402" y2="17.4126">
		<stop  offset="0" style="stop-color:#39BFF0"/>
		<stop  offset="0.2322" style="stop-color:#38BDEF"/>
		<stop  offset="0.3968" style="stop-color:#36B8EB"/>
		<stop  offset="0.5406" style="stop-color:#34AFE5"/>
		<stop  offset="0.6724" style="stop-color:#31A2DC"/>
		<stop  offset="0.7961" style="stop-color:#3091D0"/>
		<stop  offset="0.912" style="stop-color:#327CC0"/>
		<stop  offset="1" style="stop-color:#3668B1"/>
	</linearGradient>
	<path fill-rule="evenodd" clip-rule="evenodd" fill="url(#SVGID_10_)" d="M17.095,13.628l-0.258,0.207l0.047,0.112
		c0.153,0.304,0.634,1.364,0.376,2.125c-0.09,0.273-0.27,0.47-0.545,0.602c-0.298,0.136-0.533,0.104-0.638-0.096
		c-0.115-0.222-0.037-0.575,0.265-0.754c0.174-0.096,0.269-0.295,0.258-0.519c-0.018-0.268-0.194-0.495-0.476-0.611L16,14.643
		l-0.061,0.115c-0.716,1.362-0.896,3.451-0.568,6.572l0.012,0.134h0.131c0.997,0,1.794-0.606,2.237-1.716
		c0.756-1.936,0.564-4.832-0.084-6.326l-0.212-0.061C17.316,13.439,17.203,13.54,17.095,13.628L17.095,13.628z M17.281,13.852
		c0.058-0.048,0.122-0.096,0.186-0.143c0.299,0.785,0.483,1.893,0.483,3.033c0,1.019-0.142,2.053-0.475,2.901
		c-0.374,0.934-1.023,1.467-1.831,1.519c-0.09-0.933-0.143-1.771-0.143-2.521c0-1.563,0.212-2.739,0.635-3.608
		c0.102,0.072,0.162,0.179,0.168,0.296c0.009,0.004,0.009,0.015,0.009,0.021c0,0.094-0.05,0.18-0.119,0.22
		c-0.31,0.186-0.452,0.503-0.452,0.791c0,0.128,0.023,0.25,0.078,0.355c0.143,0.268,0.484,0.47,1.023,0.228
		c0.342-0.17,0.574-0.429,0.695-0.776c0.063-0.19,0.09-0.386,0.09-0.586c0-0.66-0.272-1.336-0.426-1.662
		C17.243,13.889,17.281,13.852,17.281,13.852L17.281,13.852z"/>
</g>
</svg>
