<?xml version="1.0" encoding="utf-8"?>
<!-- Generator: Adobe Illustrator 16.0.0, SVG Export Plug-In . SVG Version: 6.00 Build 0)  -->
<!DOCTYPE svg PUBLIC "-//W3C//DTD SVG 1.1//EN" "http://www.w3.org/Graphics/SVG/1.1/DTD/svg11.dtd">
<svg version="1.1" id="Camada_1" xmlns="http://www.w3.org/2000/svg" xmlns:xlink="http://www.w3.org/1999/xlink" x="0px" y="0px"
	 width="40px" height="40px" viewBox="0 0 40 40" enable-background="new 0 0 40 40" xml:space="preserve">
<g>
	<linearGradient id="SVGID_1_" gradientUnits="userSpaceOnUse" x1="4.2583" y1="20" x2="35.7422" y2="20">
		<stop  offset="0" style="stop-color:#39BFF0"/>
		<stop  offset="0.2322" style="stop-color:#38BDEF"/>
		<stop  offset="0.3968" style="stop-color:#36B8EB"/>
		<stop  offset="0.5406" style="stop-color:#34AFE5"/>
		<stop  offset="0.6724" style="stop-color:#31A2DC"/>
		<stop  offset="0.7961" style="stop-color:#3091D0"/>
		<stop  offset="0.912" style="stop-color:#327CC0"/>
		<stop  offset="1" style="stop-color:#3668B1"/>
	</linearGradient>
	<path fill-rule="evenodd" clip-rule="evenodd" fill="url(#SVGID_1_)" d="M20.001,39.276C2.379,28.561,4.321,7.273,4.321,7.273
		c11.946,0.149,15.68-6.55,15.68-6.55H20c0,0,3.732,6.699,15.679,6.55c0,0,1.941,21.287-15.679,32.003H20.001L20.001,39.276z"/>
	<path fill="none" stroke="#000000" stroke-width="0.2061" stroke-linejoin="round" stroke-miterlimit="2.6131" d="M20.001,37.154
		H20l0,0 M20,37.154h0.001"/>
	<linearGradient id="SVGID_2_" gradientUnits="userSpaceOnUse" x1="5.9902" y1="9.2412" x2="34.0107" y2="9.2412">
		<stop  offset="0" style="stop-color:#13181D"/>
		<stop  offset="0.292" style="stop-color:#13181E"/>
		<stop  offset="0.6533" style="stop-color:#13181E"/>
		<stop  offset="1" style="stop-color:#12181E"/>
	</linearGradient>
	<path fill-rule="evenodd" clip-rule="evenodd" fill="url(#SVGID_2_)" d="M33.954,8.674C23.342,8.806,20.014,2.869,20,2.845
		c-0.013,0.024-3.346,5.961-13.953,5.829c0,0-0.265,2.882,0.346,6.964c15.696,0,23.416,0,27.215,0
		C34.217,11.556,33.954,8.674,33.954,8.674L33.954,8.674z"/>
	<linearGradient id="SVGID_3_" gradientUnits="userSpaceOnUse" x1="17.8584" y1="26.8418" x2="22.1895" y2="26.8418">
		<stop  offset="0" style="stop-color:#13181D"/>
		<stop  offset="0.292" style="stop-color:#13181E"/>
		<stop  offset="0.6533" style="stop-color:#13181E"/>
		<stop  offset="1" style="stop-color:#12181E"/>
	</linearGradient>
	<path fill-rule="evenodd" clip-rule="evenodd" fill="url(#SVGID_3_)" d="M17.858,16.529c0,9.903,0,15.746,0,19.183
		c0.675,0.497,1.388,0.983,2.142,1.442c0.774-0.469,1.5-0.964,2.189-1.476c0-3.442,0-9.276,0-19.149
		C20.863,16.529,19.427,16.529,17.858,16.529L17.858,16.529z"/>
	<linearGradient id="SVGID_4_" gradientUnits="userSpaceOnUse" x1="12.1807" y1="25.5918" x2="16.5146" y2="25.5918">
		<stop  offset="0" style="stop-color:#13181D"/>
		<stop  offset="0.292" style="stop-color:#13181E"/>
		<stop  offset="0.6533" style="stop-color:#13181E"/>
		<stop  offset="1" style="stop-color:#12181E"/>
	</linearGradient>
	<path fill-rule="evenodd" clip-rule="evenodd" fill="url(#SVGID_4_)" d="M12.181,16.529c0,5.794,0,10.197,0,13.541
		c1.2,1.608,2.631,3.155,4.334,4.584c0-3.538,0-9.169,0-18.125C15.158,16.529,13.718,16.529,12.181,16.529L12.181,16.529z"/>
	<linearGradient id="SVGID_5_" gradientUnits="userSpaceOnUse" x1="6.5391" y1="22.3145" x2="10.8364" y2="22.3145">
		<stop  offset="0" style="stop-color:#13181D"/>
		<stop  offset="0.292" style="stop-color:#13181E"/>
		<stop  offset="0.6533" style="stop-color:#13181E"/>
		<stop  offset="1" style="stop-color:#12181E"/>
	</linearGradient>
	<path fill-rule="evenodd" clip-rule="evenodd" fill="url(#SVGID_5_)" d="M6.539,16.529c0.601,3.446,1.833,7.6,4.297,11.571
		c0-3.053,0-6.851,0-11.571C9.474,16.529,8.043,16.529,6.539,16.529L6.539,16.529z"/>
	<linearGradient id="SVGID_6_" gradientUnits="userSpaceOnUse" x1="29.2109" y1="22.2773" x2="33.4629" y2="22.2773">
		<stop  offset="0" style="stop-color:#13181D"/>
		<stop  offset="0.292" style="stop-color:#13181E"/>
		<stop  offset="0.6533" style="stop-color:#13181E"/>
		<stop  offset="1" style="stop-color:#12181E"/>
	</linearGradient>
	<path fill-rule="evenodd" clip-rule="evenodd" fill="url(#SVGID_6_)" d="M29.211,16.529c0,4.681,0,8.457,0,11.496
		c2.434-3.946,3.653-8.071,4.252-11.496C32.38,16.529,30.99,16.529,29.211,16.529L29.211,16.529z"/>
	<linearGradient id="SVGID_7_" gradientUnits="userSpaceOnUse" x1="23.5342" y1="25.5723" x2="27.8643" y2="25.5723">
		<stop  offset="0" style="stop-color:#13181D"/>
		<stop  offset="0.292" style="stop-color:#13181E"/>
		<stop  offset="0.6533" style="stop-color:#13181E"/>
		<stop  offset="1" style="stop-color:#12181E"/>
	</linearGradient>
	<path fill-rule="evenodd" clip-rule="evenodd" fill="url(#SVGID_7_)" d="M23.534,16.529c0,8.923,0,14.546,0,18.085
		c1.703-1.433,3.136-2.988,4.33-4.604c0-3.335,0-7.723,0-13.48C26.599,16.529,25.161,16.529,23.534,16.529L23.534,16.529z"/>
	<linearGradient id="SVGID_8_" gradientUnits="userSpaceOnUse" x1="10.7324" y1="12.0171" x2="15.4697" y2="12.0171">
		<stop  offset="0" style="stop-color:#39BFF0"/>
		<stop  offset="0.2322" style="stop-color:#38BDEF"/>
		<stop  offset="0.3968" style="stop-color:#36B8EB"/>
		<stop  offset="0.5406" style="stop-color:#34AFE5"/>
		<stop  offset="0.6724" style="stop-color:#31A2DC"/>
		<stop  offset="0.7961" style="stop-color:#3091D0"/>
		<stop  offset="0.912" style="stop-color:#327CC0"/>
		<stop  offset="1" style="stop-color:#3668B1"/>
	</linearGradient>
	<path fill-rule="evenodd" clip-rule="evenodd" fill="url(#SVGID_8_)" d="M14.195,12.954c-0.214,0.523-0.596,0.873-1.036,0.873
		c-0.669,0-1.213-0.809-1.213-1.809s0.544-1.81,1.213-1.81c0.44,0,0.818,0.348,1.033,0.866c0.544,0,0.966,0,1.278,0
		c-0.315-1.138-1.248-1.872-2.421-1.872c-1.458,0-2.316,1.275-2.316,2.904c0,1.628,0.933,2.724,2.387,2.724
		c1.144,0,2.005-0.766,2.328-1.877C15.129,12.954,14.718,12.954,14.195,12.954L14.195,12.954z"/>
	<linearGradient id="SVGID_9_" gradientUnits="userSpaceOnUse" x1="17.0054" y1="11.9194" x2="22.2881" y2="11.9194">
		<stop  offset="0" style="stop-color:#39BFF0"/>
		<stop  offset="0.2322" style="stop-color:#38BDEF"/>
		<stop  offset="0.3968" style="stop-color:#36B8EB"/>
		<stop  offset="0.5406" style="stop-color:#34AFE5"/>
		<stop  offset="0.6724" style="stop-color:#31A2DC"/>
		<stop  offset="0.7961" style="stop-color:#3091D0"/>
		<stop  offset="0.912" style="stop-color:#327CC0"/>
		<stop  offset="1" style="stop-color:#3668B1"/>
	</linearGradient>
	<path fill-rule="evenodd" clip-rule="evenodd" fill="url(#SVGID_9_)" d="M21.092,14.636h1.196l-2.09-5.433c0,0-0.002,0-0.132,0
		c-0.477,0-0.713,0-0.838,0c-0.131,0-0.133,0-0.133,0l-2.09,5.433h1.196l0.355-1.039h2.178L21.092,14.636L21.092,14.636z
		 M18.891,12.628l0.755-2.201l0.754,2.201H18.891L18.891,12.628z"/>
	<linearGradient id="SVGID_10_" gradientUnits="userSpaceOnUse" x1="23.9873" y1="11.9253" x2="29.2676" y2="11.9253">
		<stop  offset="0" style="stop-color:#39BFF0"/>
		<stop  offset="0.2322" style="stop-color:#38BDEF"/>
		<stop  offset="0.3968" style="stop-color:#36B8EB"/>
		<stop  offset="0.5406" style="stop-color:#34AFE5"/>
		<stop  offset="0.6724" style="stop-color:#31A2DC"/>
		<stop  offset="0.7961" style="stop-color:#3091D0"/>
		<stop  offset="0.912" style="stop-color:#327CC0"/>
		<stop  offset="1" style="stop-color:#3668B1"/>
	</linearGradient>
	<polygon fill-rule="evenodd" clip-rule="evenodd" fill="url(#SVGID_10_)" points="23.987,14.647 23.987,9.203 25.642,9.203 
		26.63,12.916 27.612,9.203 29.268,9.203 29.268,14.647 28.246,14.647 28.24,10.363 27.146,14.647 26.1,14.647 25.017,10.363 
		25.012,14.647 23.987,14.647 	"/>
	<linearGradient id="SVGID_11_" gradientUnits="userSpaceOnUse" x1="3.8916" y1="19.8066" x2="36.1084" y2="19.8066">
		<stop  offset="0" style="stop-color:#13181D"/>
		<stop  offset="0.292" style="stop-color:#13181E"/>
		<stop  offset="0.6533" style="stop-color:#13181E"/>
		<stop  offset="1" style="stop-color:#12181E"/>
	</linearGradient>
	<path fill="none" stroke="url(#SVGID_11_)" stroke-width="0.7325" stroke-miterlimit="10" d="M20.001,39.276
		C2.379,28.561,4.321,7.273,4.321,7.273C16.267,7.423,20,0.724,20,0.724s3.732,6.699,15.679,6.55c0,0,1.941,21.287-15.679,32.003
		 M20,39.276h0.001"/>
</g>
</svg>
