<?xml version="1.0" encoding="utf-8"?>
<!-- Generator: Adobe Illustrator 16.0.0, SVG Export Plug-In . SVG Version: 6.00 Build 0)  -->
<!DOCTYPE svg PUBLIC "-//W3C//DTD SVG 1.1//EN" "http://www.w3.org/Graphics/SVG/1.1/DTD/svg11.dtd">
<svg version="1.1" id="Camada_1" xmlns="http://www.w3.org/2000/svg" xmlns:xlink="http://www.w3.org/1999/xlink" x="0px" y="0px"
	 width="40px" height="40px" viewBox="0 0 40 40" enable-background="new 0 0 40 40" xml:space="preserve">
<g>
	<path fill="none" stroke="#FFFFFF" stroke-width="0.0611" stroke-miterlimit="10" d="M22.031,8.019"/>
	<path fill="none" stroke="#FFFFFF" stroke-width="0.0611" stroke-miterlimit="10" d="M19.495,8.019"/>
	<linearGradient id="SVGID_1_" gradientUnits="userSpaceOnUse" x1="4.9243" y1="20" x2="35.0762" y2="20">
		<stop  offset="0" style="stop-color:#13181D"/>
		<stop  offset="0.292" style="stop-color:#13181E"/>
		<stop  offset="0.6533" style="stop-color:#13181E"/>
		<stop  offset="1" style="stop-color:#12181E"/>
	</linearGradient>
	<path fill-rule="evenodd" clip-rule="evenodd" fill="url(#SVGID_1_)" d="M12.677,29.772c0.098-0.146,1.249-1.43,1.322-1.43
		c0.034,0,0.773,0.491,0.904,0.561c0.333,0.176,0.62,0.302,0.965,0.464c0.374,0.175,1.762,0.654,2.238,0.654v0.215
		c0,0.199,0.044,0.402,0.108,0.535c-0.333,0.223-0.663,0.679-1.287,0.679h-0.57C15.007,31.45,13.524,30.339,12.677,29.772
		L12.677,29.772z M10.177,26.88h0.001c0.025-0.002,0.051-0.006,0.076-0.009c0.549-0.072,1.107-0.361,1.489-0.597
		c0.227,0.276,0.469,0.57,0.469,0.605c0,0.008-1.057,1.191-1.144,1.249C11.01,27.905,10.2,27.159,10.177,26.88L10.177,26.88z
		 M11.661,26.177c-1.045-0.472-2.101-1.359-2.904-2.162c-0.372-0.372-0.705-0.726-1.026-1.154c-0.324-0.441-0.742-0.786-1.202-2.266
		c-0.515,1.497-0.608,2.074-0.678,2.603c-0.085,0.639-0.175,1.3-0.175,2.04v0.428c0,0.672,0.25,2.121,0.649,2.977l0,0
		c0.208,0.523,0.604,0.98,0.95,1.361c0.014-0.227,0.097-0.571,0.272-0.88c0.066-0.082,0.117-0.175,0.164-0.244l1.239,1.65
		c-0.248,0.164-0.759,0.855-1.034,1.126c-0.179,0.177-0.954,0.986-0.954,1.223v0.071c0,0.726,0.438,1.32,1.142,1.32h0.287
		c0.356,0,0.848-0.725,1.081-0.954c0.247-0.246,0.773-0.812,0.955-1.081c0.183,0.124,0.815,0.748,1.045,0.955
		c0.359,0.326,0.736,0.578,1.149,0.853c0.816,0.545,1.674,0.974,2.659,1.341c0.503,0.187,0.989,0.294,1.526,0.474
		c0.676,0.227,0.902,0.103,1.501,0.499c0.37,0.246,0.688,0.691,0.895,1.106c0.196,0.384,0.667,1.332,0.864,2.081
		c0.156-0.747,0.626-1.595,0.868-2.125c0.19-0.408,0.561-0.848,0.94-1.097c0.473-0.317,0.975-0.323,1.578-0.494
		c0.512-0.146,1.07-0.304,1.537-0.497c1.045-0.424,1.824-0.825,2.699-1.409c0.455-0.304,0.756-0.587,1.166-0.906
		c0.352-0.274,0.73-0.786,1.041-0.993c0.063,0.041,0.951,1.02,1.043,1.135c0.283,0.365,0.645,0.899,1.242,0.899
		c0.643,0,1.18-0.507,1.18-1.142v-0.251c0-0.503-1.965-2.151-1.965-2.427c0-0.047,0.867-1.198,1.018-1.342
		c0.018,0.022,0.035,0.044,0.051,0.067c0.021,0.042,0.049,0.083,0.08,0.123c0.188,0.318,0.279,0.682,0.295,0.918
		c0.344-0.381,0.742-0.838,0.951-1.361h-0.004c0.381-0.781,0.646-2.045,0.646-2.619v-0.927c0-1.623-0.357-3.035-1.057-4.501
		c-0.08,0.833-0.328,1.396-1.025,2.312c-0.254,0.334-0.715,0.891-1.016,1.161c-0.393,0.355-0.756,0.679-1.162,1.018
		c-0.459,0.379-1.012,0.727-1.535,0.999c0.117-0.14,0.232-0.279,0.33-0.419c0.27-0.384,0.463-0.721,0.703-1.154
		c0.264-0.479,0.975-2.084,0.975-2.738c0.488-0.233,0.895-0.439,0.895-1.176V19.06c0-0.396-0.203-0.669-0.42-0.866
		c-0.123-0.11-0.336-0.159-0.375-0.268c-0.029-0.069-0.055-0.39-0.084-0.522c-0.152-0.652-0.375-1.369-0.621-1.913
		c-0.27-0.595-0.553-1.113-0.9-1.636c-0.172-0.259-0.334-0.486-0.523-0.727c-0.162-0.205-0.457-0.495-0.578-0.673h1.395
		c0.711,0.017,1.281-0.527,1.65-0.885c0.418-0.403,0.949-0.755,1.375-1.159c0.436-0.409,0.936-0.758,1.377-1.161
		c0.248-0.224,1.242-0.936,1.242-1.259V7.813c0-0.645-3.363-4.212-4.002-4.212h-0.035c-0.461,0-1.141,0.94-1.387,1.255
		c-0.291,0.373-0.9,1.09-1.23,1.413c-0.381,0.374-0.875,0.987-1.232,1.409c-0.398,0.473-0.902,0.894-0.902,1.741
		c0,0.433,0.148,1.235-0.143,1.43c-0.584-0.31-1.031-0.604-1.691-0.917c-0.391-0.188-1.467-0.579-1.953-0.618
		c0.115-0.154,1.75-0.525,1.75-1.322V6.42c0-0.696-1.322-1.065-1.857-1.321c0.207-0.39,0.537-0.857,0.537-1.463V3.313
		c0-1.614-1.313-2.856-2.93-2.856c-1.449,0-2.822,1.321-2.822,2.75v0.285c0,0.339,0.091,0.648,0.173,0.898
		c0.077,0.238,0.32,0.55,0.362,0.708c-0.608,0.291-1.858,0.595-1.858,1.429v1.43c0,0.579,1.288,1.308,1.823,1.319
		c-0.013,0.011-1.753,0.573-2.014,0.702c-0.648,0.319-1.17,0.598-1.738,0.977c-0.281-0.205-0.143-1.188-0.143-1.679
		c0-0.68-0.629-1.173-0.937-1.564c-0.301-0.387-0.817-0.993-1.163-1.337c-0.299-0.301-0.926-0.991-1.174-1.325
		c-0.175-0.236-0.983-1.235-1.263-1.235H9.034c-0.621,0-4.109,3.397-4.109,3.998v0.215c0,0.323,1.188,1.222,1.458,1.435
		c0.538,0.425,1.03,0.863,1.553,1.306c0.514,0.433,1.039,0.892,1.557,1.301c0.786,0.623,1.101,0.458,2.328,0.458
		c0.13,0,0.084,0.032,0.25,0.035c-0.1,0.189-0.404,0.488-0.558,0.692c-0.187,0.248-0.326,0.454-0.5,0.716
		c-0.313,0.468-0.633,1.054-0.856,1.605c-0.246,0.604-0.445,1.192-0.583,1.88c-0.156,0.772-0.114,0.271-0.548,0.668
		c-0.189,0.17-0.42,0.456-0.42,0.794v1.893c0,0.456,0.498,0.99,0.966,0.999c0.221,0.955,0.589,2.093,1.044,2.813
		c0.265,0.423,0.478,0.771,0.749,1.179C11.4,25.858,11.521,26.006,11.661,26.177L11.661,26.177z M29.936,26.88l-0.012-0.001
		c-0.055-0.001-0.111-0.011-0.166-0.021c-0.482-0.087-0.967-0.329-1.318-0.54c-0.105,0.13-0.205,0.255-0.281,0.371l1.088,1.185
		l0.719-0.993C29.957,26.88,29.945,26.88,29.936,26.88L29.936,26.88L29.936,26.88z M21.965,30.058
		c0.814-0.067,1.799-0.46,2.459-0.718c0.818-0.319,1.35-0.772,2.043-1.139l1.219,1.351c-0.361,0.539-2.846,1.898-3.791,1.898h-0.75
		c-0.471,0-1.02-0.448-1.252-0.716c0.041-0.084,0.072-0.154,0.072-0.284V30.058L21.965,30.058z M19.571,3.278
		c0-0.236,0.245-0.429,0.5-0.429h0.035c0.221,0,0.465,0.245,0.465,0.464v0.072c0,0.249-0.239,0.464-0.5,0.464H20
		c-0.215,0-0.429-0.214-0.429-0.429V3.278L19.571,3.278z"/>
	<linearGradient id="SVGID_2_" gradientUnits="userSpaceOnUse" x1="5.52" y1="19.5615" x2="34.4785" y2="19.5615">
		<stop  offset="0" style="stop-color:#39BFF0"/>
		<stop  offset="0.2322" style="stop-color:#38BDEF"/>
		<stop  offset="0.3968" style="stop-color:#36B8EB"/>
		<stop  offset="0.5406" style="stop-color:#34AFE5"/>
		<stop  offset="0.6724" style="stop-color:#31A2DC"/>
		<stop  offset="0.7961" style="stop-color:#3091D0"/>
		<stop  offset="0.912" style="stop-color:#327CC0"/>
		<stop  offset="1" style="stop-color:#3668B1"/>
	</linearGradient>
	<path fill-rule="evenodd" clip-rule="evenodd" fill="url(#SVGID_2_)" d="M33.502,22.387l-0.021-0.082l-0.035,0.078
		c-0.008,0.016-0.791,1.707-3.637,3.769l-0.053,0.037c0,0,1.156,0.307,1.23,0.328c-0.393,0.641-0.648,1.005-1.131,1.599
		c-0.209,0.254-0.402,0.491-0.592,0.717l-3.348-3.718c-0.238,0.245-0.488,0.475-0.75,0.692l3.412,3.789
		c-0.572,0.586-1.201,1.081-2.125,1.566l-0.299,0.159c-0.775,0.415-1.336,0.715-2.287,0.751l-0.066,0.002
		c-0.5,0.017-0.83,0.03-1.309-0.161c-0.543-0.219-0.844-0.458-1.193-0.955c-0.191-0.27-0.18-0.589-0.17-0.898
		c0.01-0.261,0.02-2.071-0.096-2.275c-0.302,0.028-0.605,0.044-0.913,0.044c-0.344,0-0.682-0.019-1.017-0.053
		c-0.087,0.151-0.106,1.888-0.106,2.075c0,0.069,0.001,0.14,0.005,0.209c0.001,0.073,0.002,0.145,0.002,0.218
		c0,0.238-0.026,0.475-0.172,0.681c-0.35,0.497-0.651,0.736-1.191,0.955c-0.482,0.191-0.811,0.178-1.312,0.161l-0.068-0.002
		c-0.949-0.036-1.511-0.336-2.288-0.751l-0.297-0.159c-0.806-0.424-1.384-0.854-1.9-1.343l3.479-3.864
		c-0.266-0.211-0.523-0.437-0.767-0.674l-0.011,0.011l-3.404,3.782c-0.257-0.294-0.514-0.61-0.8-0.959
		c-0.481-0.593-0.739-0.958-1.13-1.599c0.075-0.021,1.229-0.328,1.229-0.328l-0.052-0.037c-2.844-2.062-3.629-3.753-3.637-3.769
		l-0.036-0.078l-0.02,0.082c-0.013,0.038-0.986,3.849,0.421,6.271l0.026,0.044c0,0,0.606-0.966,0.656-1.046
		c0.604,1.041,1.011,1.624,1.786,2.563c0.087,0.103,0.171,0.204,0.253,0.303l-2.195,2.438v0.013c-0.002,0.014-0.02,0.353,0.196,0.55
		c0.13,0.116,0.316,0.16,0.552,0.123l0.009-0.001l2.107-2.341c0.977,1.107,1.869,1.911,3.417,2.757
		c1.152,0.63,1.891,0.857,3.207,1.236c0.175,0.051,0.325,0.077,0.471,0.099c0.219,0.039,0.427,0.074,0.678,0.193
		c0.555,0.265,0.82,0.528,1.169,0.983c0.37,0.479,0.5,0.815,0.651,1.383l0.029,0.11l0.03-0.11c0.168-0.596,0.295-0.919,0.652-1.383
		c0.349-0.455,0.613-0.719,1.169-0.983c0.252-0.119,0.459-0.154,0.678-0.193c0.145-0.021,0.295-0.048,0.473-0.099
		c1.314-0.379,2.053-0.606,3.207-1.236c1.656-0.906,2.563-1.764,3.625-2.995l2.119,2.353l0.012,0.003
		c0.234,0.034,0.42-0.007,0.551-0.127c0.217-0.196,0.197-0.535,0.197-0.55v-0.01l-2.215-2.457c0.016-0.02,0.031-0.039,0.047-0.058
		c0.779-0.938,1.186-1.522,1.789-2.563c0.049,0.08,0.656,1.046,0.656,1.046l0.025-0.044C34.486,26.235,33.512,22.425,33.502,22.387
		L33.502,22.387z M11.304,11.892c0.198-0.021,0.354-0.036,0.606,0.003l0.105,0.016c0.185,0.027,0.319,0.048,0.498,0.144
		c0.004,0.004,1.684,1.676,1.952,1.938c0.27-0.269,0.551-0.523,0.85-0.759c-0.249-0.255-2.006-2.022-2.016-2.03
		c-0.003-0.013-0.039-0.127-0.039-0.127c-0.05-0.159-0.089-0.284-0.12-0.479c-0.019-0.112-0.024-0.205-0.024-0.291
		c0-0.107,0.008-0.205,0.021-0.313c0.014-0.136,0.029-0.286,0.029-0.491c0-0.013,0-0.025,0-0.037
		c-0.003-0.251-0.126-0.664-0.26-0.771c-0.002-0.002-3.779-4.3-3.779-4.3L9.104,4.409C7.581,5.481,6.616,6.423,5.539,7.883
		L5.52,7.905c0,0,4.483,3.754,4.485,3.755c0.106,0.133,0.52,0.258,0.769,0.261C11,11.923,11.162,11.906,11.304,11.892L11.304,11.892
		z M16.497,7.965c0,0-0.035-1.549,0-1.577c0.918-0.717,2.58-1.047,2.58-1.047c-0.798-0.351-1.273-1.09-1.273-2.017
		c0-1.251,1.014-2.265,2.267-2.265c1.25,0,2.254,1.014,2.254,2.265c0,0.927-0.477,1.666-1.273,2.017c0,0,1.662,0.33,2.578,1.047
		c0.037,0.028,0,1.577,0,1.577s-0.686,0.73-2.135,0.83c-0.123,0.009-0.293,0.736-0.371,1.102c-0.33-0.034-0.665-0.052-1.003-0.052
		c-0.376,0-0.748,0.021-1.113,0.064c-0.077-0.36-0.25-1.105-0.377-1.114C17.184,8.695,16.497,7.965,16.497,7.965L16.497,7.965z
		 M18.937,3.324c0,0.625,0.507,1.132,1.133,1.132s1.131-0.507,1.131-1.132c0-0.626-0.506-1.132-1.131-1.132
		S18.937,2.698,18.937,3.324L18.937,3.324z M34.465,7.846c-1.047-1.541-1.971-2.523-3.412-3.626l-0.023-0.016l-0.018,0.021
		l-3.814,4.397c-0.133,0.094-0.268,0.512-0.273,0.764c-0.006,0.226,0.008,0.386,0.02,0.526c0.018,0.2,0.031,0.358-0.014,0.608
		l-0.016,0.103c-0.033,0.186-0.055,0.32-0.154,0.5l-1.703,1.588c0.303,0.231,0.594,0.48,0.867,0.745
		c0.27-0.257,1.668-1.526,1.674-1.532c0.014-0.005,0.129-0.038,0.129-0.038c0.16-0.048,0.285-0.085,0.48-0.112
		c0.25-0.035,0.406-0.017,0.605,0.008c0.143,0.018,0.303,0.037,0.527,0.038c0.252,0.003,0.676-0.119,0.777-0.25l4.361-3.701
		L34.465,7.846L34.465,7.846z"/>
	<linearGradient id="SVGID_3_" gradientUnits="userSpaceOnUse" x1="10.3784" y1="19.6143" x2="29.7813" y2="19.6143">
		<stop  offset="0" style="stop-color:#13181D"/>
		<stop  offset="0.292" style="stop-color:#13181E"/>
		<stop  offset="0.6533" style="stop-color:#13181E"/>
		<stop  offset="1" style="stop-color:#12181E"/>
	</linearGradient>
	<path fill-rule="evenodd" clip-rule="evenodd" fill="url(#SVGID_3_)" d="M20.081,9.913c5.355,0,9.701,4.345,9.701,9.701
		s-4.346,9.701-9.701,9.701c-5.357,0-9.702-4.345-9.702-9.701S14.724,9.913,20.081,9.913L20.081,9.913z"/>
	<linearGradient id="SVGID_4_" gradientUnits="userSpaceOnUse" x1="18.0547" y1="3.2642" x2="21.5449" y2="3.2642">
		<stop  offset="0" style="stop-color:#13181D"/>
		<stop  offset="0.292" style="stop-color:#13181E"/>
		<stop  offset="0.6533" style="stop-color:#13181E"/>
		<stop  offset="1" style="stop-color:#12181E"/>
	</linearGradient>
	<path fill-rule="evenodd" clip-rule="evenodd" fill="url(#SVGID_4_)" d="M18.314,2.334c-0.169,0.301-0.26,0.644-0.26,0.99
		c0,0.298,0.065,0.587,0.186,0.848c0.012,0.012,0.05,0.042,0.077,0.033c0.021-0.006,0.031-0.037,0.039-0.063
		c-0.125-0.256-0.188-0.532-0.188-0.818c0-0.388,0.116-0.757,0.333-1.074c-0.012-0.01-0.03-0.019-0.056-0.016
		C18.403,2.237,18.359,2.273,18.314,2.334L18.314,2.334z M21.406,2.701c-0.061-0.062-0.1-0.078-0.113-0.072
		c-0.018,0.008-0.023,0.043-0.023,0.065c0.102,0.194,0.158,0.41,0.158,0.63c0,0.347-0.133,0.674-0.373,0.922
		c0,0.004,0,0.006,0,0.008c0,0.015,0,0.028,0.012,0.035c0.025,0.016,0.1-0.007,0.133-0.026c0.223-0.261,0.346-0.595,0.346-0.938
		C21.545,3.103,21.494,2.893,21.406,2.701L21.406,2.701z"/>
	<linearGradient id="SVGID_5_" gradientUnits="userSpaceOnUse" x1="6.1113" y1="20.4917" x2="33.1992" y2="20.4917">
		<stop  offset="0" style="stop-color:#13181D"/>
		<stop  offset="0.292" style="stop-color:#13181E"/>
		<stop  offset="0.6533" style="stop-color:#13181E"/>
		<stop  offset="1" style="stop-color:#12181E"/>
	</linearGradient>
	<path fill-rule="evenodd" clip-rule="evenodd" fill="url(#SVGID_5_)" d="M11.598,29.639l1.713-1.907l-0.056-0.105l-1.734,1.934
		C11.545,29.586,11.571,29.614,11.598,29.639L11.598,29.639z M31.135,4.91l-3.514,4.081c-0.18,0.262-0.244,0.613-0.244,0.613
		s-0.098-0.39,0.127-0.686c0,0,3.527-4.134,3.502-4.125L31.135,4.91L31.135,4.91z M26.82,11.912
		c0.357-0.389,0.914-0.995,0.914-0.995s0.537-0.409-0.107-1.077c0.219,0.229,0.711,0.437,1.15,0.069l2.068-1.885l-1.959,2.001
		c-0.381,0.424-0.189,0.925,0.029,1.152c-0.645-0.67-1.07-0.146-1.07-0.146S27.221,11.569,26.82,11.912L26.82,11.912z M6.225,7.774
		l4.142,3.441c0.265,0.177,0.617,0.232,0.617,0.232s-0.387,0.106-0.687-0.114c0,0-4.195-3.454-4.186-3.429L6.225,7.774L6.225,7.774z
		 M13.299,11.967c-0.394-0.351-1.01-0.898-1.01-0.898s-0.417-0.529-1.073,0.128c0.222-0.224,0.423-0.721,0.047-1.151L9.343,8.01
		l2.035,1.922c0.431,0.374,0.926,0.175,1.152-0.051c-0.658,0.658-0.126,1.074-0.126,1.074S12.95,11.572,13.299,11.967L13.299,11.967
		z M32.08,26.798c-0.088,0.174-0.182,0.351-0.285,0.53c-0.828,1.462-1.432,2.238-2.65,3.378c-1.457,1.364-2.434,2.083-4.305,2.736
		c-1.057,0.37-1.912,0.548-3.174,0.598l-0.08-0.168c1.262-0.051,1.986-0.186,3.176-0.599c1.881-0.649,2.846-1.371,4.303-2.735
		c1.221-1.14,1.818-1.918,2.65-3.379c0.086-0.146,0.164-0.289,0.238-0.433c0.43-0.846-1.029-0.636-1.375-0.659l0.086-0.065
		l1.719-0.121c0.289-0.677,0.547-1.469,0.75-2.126c0,0,0.1,0.017,0.055,0.168c-0.193,0.618-0.438,1.391-0.695,2.023l0.455,1.837
		L32.9,27.886C32.801,27.544,32.41,26.102,32.08,26.798L32.08,26.798z M8.051,26.798c0.088,0.174,0.184,0.351,0.286,0.53
		c0.826,1.462,1.432,2.238,2.649,3.378c1.458,1.364,2.435,2.083,4.303,2.736c1.058,0.37,1.917,0.548,3.174,0.598
		c0,0,1.354,0.233,1.602,2.149v-4.598c-0.052,2.252-1.521,2.28-1.521,2.28c-1.258-0.051-1.984-0.186-3.174-0.599
		c-1.879-0.649-2.844-1.371-4.303-2.735c-1.218-1.14-1.818-1.918-2.651-3.379c-0.083-0.146-0.161-0.289-0.236-0.433
		c-0.429-0.846,1.029-0.636,1.375-0.659l-0.087-0.065L7.75,25.881C7.458,25.204,7.204,24.412,7,23.755c0,0-0.102,0.017-0.055,0.168
		c0.191,0.618,0.438,1.391,0.696,2.023l-0.454,1.837l0.043,0.103C7.329,27.544,7.722,26.102,8.051,26.798L8.051,26.798z
		 M32.141,33.017l-2.004-2.232c-0.025,0.028-0.049,0.058-0.074,0.085l2.025,2.254C32.617,33.135,32.141,33.017,32.141,33.017
		L32.141,33.017z M28.828,29.329l-1.73-1.928l-0.055,0.105l1.711,1.904C28.781,29.383,28.803,29.356,28.828,29.329L28.828,29.329z
		 M16.955,6.375h-0.062v1.188c0,0.034,0.027,0.062,0.062,0.062c0.033,0,0.059-0.027,0.059-0.062c0,0,0-0.958,0-1.066
		c0.122,0,6.275,0,6.275,0c0.033,0,0.061-0.027,0.061-0.063c0-0.032-0.027-0.06-0.061-0.06H16.955L16.955,6.375z M10.203,31.027
		l-1.99,2.216c0,0-0.477,0.116,0.053,0.105l2.008-2.236C10.251,31.084,10.226,31.055,10.203,31.027L10.203,31.027z M17.197,7.846
		c-0.034,0-0.061,0.027-0.061,0.063c0,0.033,0.026,0.061,0.061,0.061h6.092c0.033,0,0.061-0.027,0.061-0.061
		c0-0.035-0.027-0.063-0.061-0.063H17.197L17.197,7.846z"/>
	<linearGradient id="SVGID_6_" gradientUnits="userSpaceOnUse" x1="9.1655" y1="19.855" x2="30.9619" y2="19.855">
		<stop  offset="0" style="stop-color:#39BFF0"/>
		<stop  offset="0.2322" style="stop-color:#38BDEF"/>
		<stop  offset="0.3968" style="stop-color:#36B8EB"/>
		<stop  offset="0.5406" style="stop-color:#34AFE5"/>
		<stop  offset="0.6724" style="stop-color:#31A2DC"/>
		<stop  offset="0.7961" style="stop-color:#3091D0"/>
		<stop  offset="0.912" style="stop-color:#327CC0"/>
		<stop  offset="1" style="stop-color:#3668B1"/>
	</linearGradient>
	<path fill-rule="evenodd" clip-rule="evenodd" fill="url(#SVGID_6_)" d="M30.818,20.103c0.09-0.071,0.137-0.156,0.143-0.243
		c0.018-0.281-0.273-0.429-0.553-0.446c-0.045-0.003-0.1-0.003-0.162-0.001c0-0.027,0-0.052,0-0.079
		c0.205,0.022,0.43-0.041,0.574-0.162c0.088-0.071,0.135-0.157,0.141-0.244c0.018-0.281-0.273-0.427-0.553-0.443
		c-0.094-0.007-0.256-0.006-0.418,0.017c0.008-0.022,0.012-0.047,0.012-0.072c0-0.009-0.002-0.015-0.002-0.022
		c0.01-0.03,0.051-0.192,0.051-0.427c0-0.179-0.023-0.394-0.113-0.609c-0.059-0.139-0.125-0.241-0.195-0.327
		c0-0.002,0-0.002,0-0.002c0.039-0.017,0.047-0.054,0.047-0.091c0-0.027-0.006-0.053-0.01-0.07c0.002-0.011,0.002-0.035,0.002-0.078
		c0-0.17-0.029-0.567-0.271-0.929c-0.109-0.162-0.219-0.268-0.33-0.349l0,0c0.027-0.02,0.037-0.046,0.037-0.073
		c0-0.039-0.016-0.075-0.025-0.096c-0.004-0.053-0.049-0.554-0.414-0.952c-0.168-0.185-0.322-0.277-0.471-0.348
		c0.002-0.003,0.012-0.004,0.014-0.007c0.018-0.019,0.025-0.037,0.025-0.06c0-0.041-0.023-0.083-0.039-0.107
		c-0.014-0.052-0.131-0.538-0.551-0.881c-0.145-0.116-0.277-0.185-0.402-0.231c0.012-0.013,0.016-0.029,0.016-0.046
		c0-0.047-0.037-0.09-0.057-0.114c-0.021-0.047-0.223-0.51-0.697-0.772c-0.209-0.116-0.383-0.153-0.545-0.169
		c0-0.005,0.002-0.008,0.002-0.011c0-0.052-0.049-0.095-0.076-0.116c-0.025-0.043-0.293-0.47-0.801-0.662
		c-0.141-0.053-0.262-0.074-0.373-0.081l0.002-0.002c0.002-0.007,0.004-0.016,0.004-0.023c0-0.058-0.068-0.097-0.102-0.115
		c-0.037-0.041-0.385-0.4-0.916-0.486c-0.193-0.031-0.346-0.022-0.48,0.002l0,0c0-0.004,0-0.008,0-0.013
		c0-0.064-0.08-0.097-0.117-0.111c-0.043-0.034-0.438-0.341-0.979-0.346c-0.246-0.003-0.42,0.047-0.572,0.107
		c0.002-0.005,0.002-0.011,0.002-0.014l0,0c0-0.073-0.09-0.097-0.131-0.104c-0.018-0.008-0.063-0.033-0.133-0.065
		c0-0.009,0.002-0.019,0.002-0.028c0-0.182-0.061-0.368-0.168-0.495c-0.068-0.085-0.154-0.134-0.242-0.14
		c-0.272-0.018-0.418,0.256-0.445,0.527c-0.011,0.001-0.022,0.001-0.035,0.002c-0.016,0.004-0.031,0.007-0.049,0.01
		c-0.017-0.15-0.071-0.295-0.158-0.399c-0.073-0.085-0.157-0.134-0.246-0.14c-0.281-0.018-0.425,0.274-0.443,0.554
		c-0.011,0.003-0.022,0.005-0.032,0.006c-0.014,0.003-0.024,0.007-0.034,0.01c-0.013-0.161-0.073-0.323-0.168-0.436
		c-0.073-0.089-0.162-0.138-0.25-0.144c-0.289-0.018-0.439,0.278-0.458,0.563c-0.001,0.031-0.002,0.068-0.002,0.113
		c0,0.016,0,0.035,0.001,0.054c-0.199-0.021-0.487-0.015-0.78,0.108c-0.14,0.055-0.243,0.121-0.328,0.193V9.984
		c-0.032-0.067-0.122-0.047-0.163-0.035c-0.046-0.005-0.554-0.037-1.007,0.268c-0.161,0.11-0.267,0.221-0.348,0.33l0,0
		c-0.042-0.063-0.131-0.028-0.171-0.012c-0.051,0.004-0.552,0.05-0.949,0.415c-0.186,0.166-0.279,0.322-0.35,0.471
		c-0.002-0.005-0.002-0.011-0.006-0.014c-0.051-0.055-0.131-0.008-0.167,0.014c-0.052,0.012-0.54,0.131-0.881,0.551
		c-0.116,0.144-0.183,0.274-0.229,0.403c-0.059-0.045-0.13,0.013-0.162,0.042c-0.047,0.02-0.51,0.221-0.773,0.694
		c-0.115,0.209-0.152,0.383-0.169,0.544c-0.055-0.009-0.104,0.047-0.127,0.074c-0.042,0.025-0.469,0.293-0.662,0.804
		c-0.051,0.14-0.074,0.259-0.081,0.371h-0.002c-0.07-0.022-0.117,0.06-0.138,0.096c-0.04,0.038-0.401,0.384-0.487,0.917
		c-0.013,0.088-0.02,0.167-0.02,0.239c0,0.09,0.01,0.168,0.022,0.242l0,0c-0.073-0.012-0.109,0.077-0.124,0.116
		c-0.034,0.042-0.341,0.438-0.345,0.978c0,0.006-0.002,0.012-0.002,0.02c0,0.235,0.049,0.405,0.107,0.553
		c-0.004-0.001-0.009-0.003-0.014-0.003c-0.073,0-0.095,0.09-0.104,0.134c-0.013,0.024-0.074,0.133-0.126,0.299
		c-0.146-0.016-0.283-0.017-0.367-0.011C9.44,18.5,9.148,18.646,9.167,18.927c0.006,0.087,0.054,0.173,0.14,0.244
		c0.147,0.123,0.375,0.188,0.584,0.162c0.053-0.007,0.1-0.018,0.14-0.032c0.007,0.034,0.014,0.068,0.023,0.103
		c-0.002,0.004-0.002,0.013-0.004,0.018c-0.125-0.012-0.246-0.014-0.33-0.008c-0.279,0.018-0.571,0.165-0.553,0.446
		c0.006,0.087,0.054,0.172,0.14,0.243c0.147,0.123,0.376,0.187,0.584,0.161c0.063-0.007,0.117-0.023,0.166-0.043
		c0.013,0.048,0.03,0.095,0.044,0.137c-0.143-0.017-0.284-0.02-0.381-0.015c-0.279,0.02-0.571,0.165-0.553,0.446
		c0.006,0.087,0.054,0.172,0.14,0.245c0.147,0.121,0.376,0.186,0.584,0.16c0.09-0.01,0.162-0.04,0.224-0.065
		c0,0,0.053-0.018,0.09-0.031c-0.004,0.051-0.007,0.105-0.007,0.165c0,0.178,0.026,0.394,0.115,0.609
		c0.056,0.14,0.125,0.243,0.195,0.328l0,0c-0.038,0.02-0.049,0.057-0.049,0.093c0,0.028,0.007,0.053,0.013,0.07
		c-0.002,0.009-0.004,0.035-0.004,0.079c0,0.168,0.029,0.566,0.271,0.927c0.11,0.162,0.223,0.269,0.332,0.35l0,0
		c-0.029,0.019-0.036,0.046-0.036,0.074c0,0.036,0.014,0.073,0.024,0.096c0.002,0.053,0.048,0.552,0.413,0.952
		c0.168,0.183,0.323,0.276,0.473,0.347c-0.004,0.004-0.011,0.005-0.015,0.006c-0.018,0.018-0.026,0.039-0.026,0.061
		c0,0.042,0.026,0.084,0.041,0.107c0.012,0.051,0.129,0.54,0.55,0.882c0.142,0.116,0.275,0.184,0.401,0.229
		c-0.01,0.017-0.015,0.032-0.015,0.049c0,0.045,0.037,0.089,0.058,0.113c0.02,0.047,0.223,0.51,0.696,0.773
		c0.208,0.115,0.384,0.154,0.544,0.17c0,0.004-0.002,0.007-0.002,0.009c0,0.051,0.049,0.094,0.075,0.116
		c0.027,0.043,0.295,0.47,0.804,0.663c0.14,0.051,0.26,0.074,0.371,0.081c0,0,0,0,0,0.001c-0.004,0.008-0.004,0.016-0.004,0.021
		c0,0.059,0.068,0.101,0.101,0.116c0.039,0.042,0.385,0.403,0.915,0.487c0.197,0.03,0.347,0.022,0.482,0l0,0
		c-0.001,0.004-0.001,0.007-0.001,0.011c0,0.064,0.08,0.098,0.117,0.11c0.042,0.035,0.438,0.341,0.979,0.348
		c0.247,0.002,0.419-0.048,0.574-0.107c-0.001,0.004-0.002,0.009-0.002,0.014c0,0.072,0.089,0.095,0.132,0.104
		c0.006,0.003,0.016,0.01,0.034,0.018c-0.052,0.16-0.071,0.367-0.071,0.525c0,0.041,0,0.079,0.002,0.11
		c0.019,0.28,0.165,0.571,0.446,0.553c0.087-0.005,0.172-0.053,0.245-0.139c0.104-0.125,0.166-0.312,0.166-0.494
		c0-0.03-0.001-0.062-0.003-0.09c-0.013-0.093-0.042-0.162-0.069-0.226c0,0-0.007-0.021-0.016-0.05
		c0.061,0.006,0.123,0.002,0.186-0.002c-0.018,0.116-0.026,0.237-0.026,0.336c0,0.042,0.002,0.08,0.004,0.111
		c0.018,0.28,0.162,0.571,0.443,0.553c0.087-0.005,0.172-0.053,0.246-0.139c0.104-0.125,0.166-0.312,0.166-0.494
		c0-0.03-0.001-0.062-0.004-0.09c-0.011-0.091-0.04-0.162-0.066-0.226c0,0-0.008-0.021-0.017-0.05
		c0.061-0.002,0.123-0.008,0.189-0.02c-0.024,0.123-0.031,0.251-0.031,0.352c0,0.046,0.001,0.083,0.003,0.113
		c0.018,0.28,0.165,0.571,0.446,0.553c0.087-0.005,0.173-0.053,0.242-0.139c0.107-0.125,0.168-0.312,0.168-0.494
		c0-0.031-0.002-0.062-0.006-0.09c-0.01-0.091-0.039-0.162-0.064-0.226c0,0-0.029-0.091-0.041-0.117
		c0.041-0.049,0.072-0.1,0.096-0.159c0.158,0.033,0.559,0.09,0.971-0.079c0.139-0.059,0.244-0.125,0.33-0.194l0,0
		c0.031,0.065,0.121,0.046,0.162,0.034c0.045,0.005,0.551,0.038,1.004-0.268c0.164-0.109,0.27-0.22,0.352-0.331v0.001
		c0.043,0.063,0.131,0.027,0.168,0.011c0.055-0.004,0.553-0.049,0.953-0.412c0.184-0.169,0.275-0.324,0.346-0.474
		c0.004,0.006,0.004,0.013,0.008,0.017c0.051,0.052,0.129,0.008,0.168-0.017c0.049-0.011,0.539-0.13,0.881-0.551
		c0.115-0.142,0.184-0.275,0.23-0.401c0.059,0.043,0.129-0.012,0.16-0.043c0.049-0.019,0.508-0.22,0.771-0.695
		c0.117-0.209,0.154-0.382,0.172-0.542c0.053,0.007,0.102-0.047,0.127-0.075c0.041-0.025,0.469-0.295,0.66-0.802
		c0.053-0.142,0.074-0.263,0.082-0.373l0,0c0.072,0.022,0.119-0.06,0.141-0.096c0.041-0.037,0.4-0.384,0.484-0.916
		c0.016-0.088,0.021-0.168,0.021-0.24c0-0.09-0.008-0.168-0.023-0.242c0.002,0,0.002,0,0.002,0c0.072,0.012,0.109-0.077,0.123-0.114
		c0.035-0.044,0.34-0.439,0.346-0.978c0-0.008,0-0.013,0-0.021c0-0.238-0.049-0.406-0.107-0.554c0.004,0.002,0.01,0.002,0.016,0.002
		c0.035,0,0.063-0.024,0.076-0.052l0.002,0.001c0.063,0.025,0.135,0.056,0.225,0.065c0.207,0.025,0.438-0.039,0.584-0.162
		c0.088-0.071,0.135-0.156,0.141-0.243c0.018-0.281-0.273-0.427-0.553-0.446c-0.045-0.001-0.102-0.002-0.166-0.001
		c0.004-0.025,0.004-0.051,0.004-0.076C30.451,20.285,30.676,20.222,30.818,20.103L30.818,20.103z M21.445,10.573
		c0-0.084-0.006-0.156-0.016-0.221c0.258,0.056,0.531,0.096,0.711,0.09c0,0,0.092-0.006,0.223-0.016
		c0.189,0.142,0.889,0.422,1.244,0.461c0,0,0.051,0.005,0.125,0.009c0.188,0.177,0.799,0.546,1.121,0.644
		c0.002,0.003,0.143,0.044,0.32,0.09c0.174,0.215,0.707,0.668,1.006,0.811c0,0.002,0.064,0.031,0.16,0.073
		c0.127,0.238,0.6,0.807,0.881,1.007c0.004,0.002,0.113,0.079,0.262,0.174c0.063,0.238,0.436,0.892,0.689,1.142
		c0.002,0.004,0.068,0.065,0.164,0.152c0.023,0.238,0.299,0.94,0.512,1.226c0,0.003,0.029,0.039,0.076,0.099
		c0,0.256,0.148,0.956,0.295,1.26c0.002,0.003,0.064,0.13,0.154,0.294c-0.02,0.14-0.021,0.383-0.006,0.634c-0.004,0-0.006,0-0.012,0
		c-0.105,0.009-0.195,0.034-0.295,0.083c-0.045-0.017-0.094-0.029-0.145-0.038c-0.482-3.967-3.588-7.121-7.531-7.683
		C21.416,10.768,21.445,10.652,21.445,10.573L21.445,10.573z M29.461,19.378c-0.002,0.017-0.002,0.036-0.002,0.053
		c-0.033-0.001-0.066-0.003-0.104,0c-0.105,0.009-0.195,0.036-0.295,0.084c-0.023-0.011-0.053-0.018-0.08-0.024
		c-0.002-0.069-0.002-0.136-0.006-0.205c0.105,0.046,0.271,0.096,0.377,0.096C29.393,19.381,29.428,19.38,29.461,19.378
		L29.461,19.378z M20.529,10.239c0,0,0.039-0.01,0.101-0.022c-0.021,0.047-0.067,0.162-0.067,0.305c0,0.015,0,0.03,0.001,0.047
		c0.005,0.078,0.021,0.147,0.05,0.22c-0.046-0.003-0.089-0.004-0.136-0.006c0.021-0.075,0.038-0.152,0.038-0.209
		c0-0.133-0.013-0.237-0.038-0.325C20.493,10.245,20.512,10.242,20.529,10.239L20.529,10.239z M19.566,10.29
		c0.042-0.009,0.078-0.018,0.112-0.027c0,0,0.002-0.002,0.003-0.002c-0.022,0.059-0.05,0.151-0.05,0.261
		c0,0.015,0.002,0.03,0.003,0.047c0.004,0.077,0.021,0.146,0.048,0.217c-0.043,0.003-0.085,0.006-0.128,0.008
		c0.022-0.077,0.04-0.158,0.04-0.22C19.594,10.461,19.586,10.37,19.566,10.29L19.566,10.29z M10.948,17.366
		c0.145-0.192,0.422-0.893,0.462-1.247c0-0.001,0.004-0.05,0.009-0.125c0.177-0.187,0.546-0.799,0.645-1.121
		c0.002-0.005,0.042-0.142,0.086-0.321c0.216-0.173,0.67-0.705,0.813-1.003c0.002-0.003,0.031-0.066,0.073-0.162
		c0.241-0.126,0.806-0.6,1.007-0.881c0.001-0.004,0.08-0.112,0.173-0.261c0.24-0.063,0.893-0.438,1.144-0.689
		c0.001-0.003,0.065-0.067,0.15-0.163c0.238-0.026,0.941-0.299,1.227-0.512c0.002-0.001,0.039-0.031,0.097-0.078
		c0.258,0.001,0.958-0.146,1.26-0.295c0.004-0.001,0.131-0.064,0.296-0.153c0.076,0.011,0.19,0.016,0.316,0.016
		c-0.009,0.045-0.017,0.097-0.017,0.151c0,0.015,0,0.03,0.001,0.047c0.009,0.106,0.036,0.196,0.084,0.296
		c-0.001,0.005-0.003,0.01-0.005,0.014c-3.886,0.597-6.939,3.723-7.427,7.647c-0.099,0.011-0.196,0.028-0.275,0.058
		c-0.085-0.04-0.162-0.065-0.246-0.076c0.083-0.303,0.151-0.69,0.142-0.92C10.965,17.583,10.96,17.494,10.948,17.366L10.948,17.366z
		 M15.067,16.641l2.899,9.177c-2.559-0.894-4.394-3.326-4.394-6.189c0-1.404,0.442-2.705,1.194-3.771l0.041,0.903L15.067,16.641
		L15.067,16.641z M10.786,19.381c0.128-0.005,0.336-0.075,0.423-0.121c0.024,0.01,0.047,0.016,0.073,0.022
		c-0.002,0.06-0.003,0.121-0.005,0.181c-0.075,0.014-0.148,0.029-0.21,0.052c-0.094-0.047-0.179-0.071-0.278-0.083
		C10.788,19.416,10.788,19.396,10.786,19.381L10.786,19.381z M10.835,20.308c0.127-0.017,0.297-0.076,0.374-0.116
		c0.028,0.009,0.055,0.019,0.086,0.025c0.004,0.058,0.009,0.114,0.012,0.173c-0.087,0.013-0.169,0.03-0.241,0.055
		c-0.076-0.036-0.146-0.06-0.223-0.073C10.841,20.351,10.838,20.328,10.835,20.308L10.835,20.308z M18.776,28.881
		c-0.244-0.051-0.498-0.087-0.666-0.08c-0.002,0-0.093,0.005-0.22,0.016c-0.193-0.145-0.894-0.422-1.248-0.462
		c0,0-0.05-0.004-0.125-0.012c-0.188-0.175-0.8-0.543-1.123-0.642c-0.003-0.002-0.14-0.043-0.32-0.087
		c-0.174-0.216-0.706-0.668-1.004-0.813c-0.002-0.002-0.065-0.03-0.162-0.074c-0.125-0.239-0.599-0.807-0.88-1.004
		c-0.003-0.004-0.112-0.082-0.26-0.176c-0.064-0.238-0.437-0.892-0.69-1.144c-0.003-0.001-0.068-0.064-0.164-0.149
		c-0.024-0.239-0.298-0.94-0.512-1.227c0-0.001-0.029-0.039-0.077-0.099c0-0.256-0.147-0.957-0.295-1.26
		c-0.001-0.003-0.065-0.132-0.155-0.293c0.006-0.042,0.011-0.093,0.012-0.148c0.118-0.023,0.254-0.073,0.321-0.106
		c0.062,0.02,0.13,0.037,0.201,0.05c0.649,3.694,3.591,6.599,7.302,7.195c0.006,0.172,0.023,0.352,0.075,0.49
		C18.781,28.864,18.779,28.872,18.776,28.881L18.776,28.881z M19.657,29.019c-0.022,0.004-0.051,0.011-0.086,0.019
		c-0.022-0.119-0.073-0.256-0.107-0.321c0.025-0.077,0.045-0.163,0.061-0.255c0.042,0.003,0.082,0.006,0.124,0.008
		c0.009,0.138,0.029,0.277,0.069,0.389C19.691,28.914,19.671,28.965,19.657,29.019L19.657,29.019z M20.601,28.971
		c-0.009,0.004-0.019,0.007-0.027,0.01c0,0-0.009,0.002-0.022,0.006c-0.02,0-0.042-0.002-0.062-0.004
		c-0.026-0.104-0.065-0.21-0.095-0.267c0.023-0.074,0.042-0.155,0.057-0.24c0.043-0.004,0.085-0.004,0.125-0.007
		c0.01,0.14,0.03,0.279,0.07,0.389C20.628,28.897,20.614,28.935,20.601,28.971L20.601,28.971z M20.129,26.184
		c-0.486,0-0.957-0.055-1.411-0.153l0.002-0.005l-3.163-9.609l0.232-0.109l-0.714-0.856c1.202-1.452,3.021-2.38,5.054-2.38
		c3.621,0,6.557,2.936,6.557,6.558c0,0.742-0.125,1.452-0.35,2.116c-1.238-1.981-1.795-4.226-1.701-6.848l-0.029-0.023
		c-1.113,0.373-1.84,0.736-2.6,1.137c0.006-0.07,0.012-0.142,0.012-0.221c0-0.406-0.137-0.893-1.072-0.969
		c-1.26-0.115-2.978,0.49-5.253,1.846l-0.007,0.033c0.811,1.077,2.031,5.188,2.278,6.966l0.039,0.016
		c0.669-0.524,1.397-0.948,1.955-1.138v0.002c-0.019,0.185-0.046,0.428-0.046,0.683c0,0.438,0.076,0.908,0.391,1.165
		c0.287,0.233,0.737,0.258,1.334,0.071c0.744-0.232,1.453-0.685,2.203-1.166c0.762-0.485,1.545-0.989,2.383-1.248
		C25.256,24.473,22.895,26.184,20.129,26.184L20.129,26.184z M29.301,21.876c-0.145,0.192-0.42,0.893-0.461,1.247
		c0,0.001-0.004,0.049-0.012,0.126c-0.176,0.187-0.543,0.799-0.643,1.12c0,0.004-0.041,0.14-0.086,0.32
		c-0.217,0.175-0.668,0.707-0.814,1.004c0,0.003-0.029,0.066-0.07,0.162c-0.24,0.128-0.807,0.6-1.008,0.88
		c-0.002,0.003-0.078,0.112-0.174,0.261c-0.238,0.063-0.891,0.438-1.143,0.69c-0.002,0.002-0.066,0.069-0.15,0.163
		c-0.24,0.026-0.939,0.299-1.227,0.513c-0.002,0.002-0.039,0.03-0.098,0.077c-0.26,0-0.957,0.146-1.26,0.295
		c-0.004,0.002-0.135,0.065-0.295,0.154c-0.109-0.017-0.285-0.019-0.473-0.014c-0.021-0.063-0.045-0.124-0.064-0.159
		c0.031-0.096,0.055-0.206,0.072-0.324c3.793-0.545,6.811-3.493,7.457-7.252c0.021-0.005,0.045-0.011,0.064-0.018
		c0.082,0.041,0.27,0.108,0.4,0.119c-0.023,0.155-0.037,0.303-0.031,0.415C29.287,21.658,29.291,21.748,29.301,21.876L29.301,21.876
		z M29.547,20.376c-0.055-0.012-0.121-0.02-0.191-0.014c-0.105,0.008-0.195,0.034-0.295,0.082c-0.033-0.013-0.074-0.023-0.113-0.033
		c0.008-0.064,0.01-0.133,0.016-0.199c0.102,0.046,0.279,0.101,0.389,0.101c0.072,0,0.139-0.005,0.195-0.013
		c0.004,0.017,0.01,0.033,0.014,0.051C29.557,20.357,29.551,20.366,29.547,20.376L29.547,20.376z"/>
	<linearGradient id="SVGID_7_" gradientUnits="userSpaceOnUse" x1="9.2773" y1="19.8604" x2="30.8496" y2="19.8604">
		<stop  offset="0" style="stop-color:#13181D"/>
		<stop  offset="0.292" style="stop-color:#13181E"/>
		<stop  offset="0.6533" style="stop-color:#13181E"/>
		<stop  offset="1" style="stop-color:#12181E"/>
	</linearGradient>
	<path fill-rule="evenodd" clip-rule="evenodd" fill="url(#SVGID_7_)" d="M29.715,19.501c0.121-0.049,0.283-0.074,0.428-0.085
		c0-0.032,0-0.068-0.002-0.103c-0.047-0.013-0.09-0.03-0.129-0.046c0,0-0.09-0.031-0.117-0.039c-0.072,0.06-0.154,0.101-0.254,0.124
		c0.014,0.045,0.031,0.091,0.049,0.136C29.697,19.493,29.707,19.495,29.715,19.501L29.715,19.501z M20.727,10.795
		c0.081,0.005,0.16,0.012,0.239,0.018c-0.107-0.067-0.197-0.221-0.267-0.406c-0.012,0.055-0.021,0.112-0.023,0.159
		c0,0.031,0.002,0.063,0.006,0.096C20.691,10.705,20.707,10.75,20.727,10.795L20.727,10.795z M10.231,19.229
		c-0.004,0.001-0.012,0.004-0.02,0.006c-0.018,0.044-0.039,0.113-0.062,0.199c0.094,0.015,0.188,0.035,0.262,0.067
		c0.009-0.006,0.021-0.011,0.035-0.018c-0.028-0.063-0.055-0.12-0.081-0.172C10.317,19.29,10.273,19.261,10.231,19.229
		L10.231,19.229z M26.225,12.35c-0.283-0.137-0.719-0.514-0.91-0.714c0.217,0.096,0.398,0.109,0.576,0.119
		c0.207,0.012,0.408,0.021,0.676,0.17c0.457,0.254,0.65,0.723,0.652,0.729l0.002,0.008l0.01,0.008
		c0.014,0.018,0.021,0.029,0.029,0.038C27.133,12.719,26.584,12.524,26.225,12.35L26.225,12.35z M12.125,25.156
		c-0.19-0.081-0.371-0.158-0.578-0.386c-0.352-0.385-0.388-0.891-0.388-0.897v-0.008l-0.004-0.008
		c-0.01-0.023-0.014-0.037-0.016-0.047c0.123,0.022,0.587,0.391,0.867,0.666c0.229,0.229,0.521,0.747,0.626,0.992
		C12.455,25.303,12.29,25.226,12.125,25.156L12.125,25.156z M29.715,18.568c0.033-0.012,0.066-0.023,0.105-0.034
		c-0.018-0.019-0.035-0.04-0.051-0.058c-0.113-0.138-0.229-0.281-0.307-0.506c-0.004,0.057-0.004,0.118-0.004,0.191
		c0,0.104,0.002,0.22,0.01,0.34C29.588,18.512,29.678,18.552,29.715,18.568L29.715,18.568z M10.231,20.158
		c-0.013,0.006-0.051,0.019-0.08,0.026c0.021,0.072,0.042,0.135,0.068,0.192c0.069,0.013,0.135,0.031,0.193,0.055
		c0.044-0.022,0.172-0.075,0.329-0.07c-0.002-0.019-0.007-0.035-0.009-0.051C10.5,20.307,10.355,20.261,10.231,20.158L10.231,20.158
		z M24.471,10.921c0.207-0.028,0.404-0.056,0.689,0.052c0.488,0.185,0.75,0.62,0.754,0.624l0.002,0.008l0.01,0.006
		c0.018,0.016,0.023,0.023,0.033,0.031c-0.119,0.032-0.68-0.077-1.076-0.199c-0.303-0.091-0.76-0.376-0.984-0.538
		C24.121,10.96,24.299,10.942,24.471,10.921L24.471,10.921z M13.21,26.459c-0.211-0.053-0.414-0.103-0.65-0.296
		c-0.406-0.33-0.517-0.825-0.519-0.83l-0.001-0.011l-0.006-0.005c-0.012-0.021-0.017-0.034-0.02-0.044
		c0.125,0.012,0.621,0.294,0.957,0.531c0.272,0.194,0.634,0.646,0.791,0.876C13.567,26.552,13.385,26.503,13.21,26.459L13.21,26.459
		z M10.93,20.855c-0.077-0.218-0.842-0.422-1.204-0.4c-0.162,0.013-0.462,0.094-0.448,0.328c0.003,0.07,0.057,0.128,0.101,0.165
		c0.122,0.103,0.324,0.158,0.499,0.137c0.075-0.011,0.134-0.034,0.196-0.059l0.062-0.021c-0.127-0.088-0.232-0.18-0.291-0.248
		l0.094-0.079c0.135,0.157,0.542,0.453,0.838,0.453c0.068,0,0.175-0.023,0.265-0.049c0.048-0.017,0.091-0.033,0.119-0.048
		c-0.078-0.047-0.15-0.097-0.213-0.155L10.93,20.855L10.93,20.855z M19.79,10.781c0.065-0.002,0.129-0.006,0.197-0.006
		c-0.088-0.078-0.162-0.213-0.218-0.369c-0.012,0.055-0.023,0.112-0.025,0.159c0,0.031,0.004,0.063,0.006,0.096
		C19.759,10.701,19.772,10.741,19.79,10.781L19.79,10.781z M20.129,28.48c-0.034,0-0.069-0.001-0.102-0.001l0.004,0.009
		c-0.071,0.053-0.158,0.178-0.216,0.332c0.002,0.007,0.005,0.016,0.008,0.021l0.009,0.021l-0.011,0.021
		c-0.033,0.062-0.051,0.117-0.064,0.177c-0.004,0.031-0.006,0.062-0.006,0.096c0.002,0.047,0.011,0.104,0.022,0.156
		c0.078-0.202,0.179-0.367,0.299-0.425c0.058-0.065,0.166-0.206,0.24-0.409C20.251,28.479,20.188,28.48,20.129,28.48L20.129,28.48z
		 M10.776,21.242c0.003,0.01,0.008,0.019,0.012,0.027c0-0.009,0-0.019,0-0.028C10.784,21.241,10.779,21.242,10.776,21.242
		L10.776,21.242z M23.107,10.332c0.197-0.058,0.385-0.11,0.688-0.062c0.514,0.084,0.859,0.457,0.863,0.46l0.004,0.008l0.01,0.004
		c0.021,0.011,0.031,0.018,0.039,0.025c-0.109,0.059-0.699,0.062-1.094,0.019c-0.318-0.035-0.861-0.257-1.096-0.382
		C22.76,10.423,22.938,10.379,23.107,10.332L23.107,10.332z M14.026,26.894c0.285,0.138,0.719,0.514,0.91,0.713
		c-0.217-0.095-0.398-0.11-0.575-0.118c-0.21-0.012-0.409-0.023-0.676-0.17c-0.456-0.255-0.651-0.726-0.654-0.729l-0.003-0.009
		l-0.005-0.007c-0.016-0.019-0.024-0.029-0.031-0.039C13.119,26.524,13.667,26.72,14.026,26.894L14.026,26.894z M10.679,21.241
		c-0.159-0.009-0.277-0.04-0.373-0.102c-0.003,0.04-0.003,0.081-0.003,0.126c0,0.166,0.022,0.368,0.104,0.569
		c0.118,0.28,0.271,0.406,0.434,0.541c0.131,0.107,0.266,0.227,0.375,0.426c-0.034-0.276-0.135-0.803-0.274-1.088
		C10.866,21.565,10.77,21.395,10.679,21.241L10.679,21.241z M17.417,10.048c0.023-0.006,0.036-0.006,0.045-0.007
		c-0.042,0.118-0.471,0.523-0.786,0.759c-0.257,0.191-0.804,0.4-1.062,0.47c0.19-0.151,0.287-0.305,0.377-0.454
		c0.108-0.178,0.208-0.344,0.461-0.515c0.434-0.291,0.941-0.252,0.947-0.25h0.009L17.417,10.048L17.417,10.048z M20.467,9.688
		c-0.011,0.091-0.04,0.161-0.066,0.225c0,0-0.03,0.09-0.041,0.118c0.032,0.036,0.058,0.076,0.079,0.12
		c0.023-0.003,0.047-0.007,0.068-0.012c0.031-0.006,0.063-0.012,0.095-0.019c-0.046-0.161-0.06-0.351-0.06-0.49
		c0-0.014,0-0.025,0.001-0.036c-0.006,0-0.011,0-0.019,0.001c-0.019,0.003-0.036,0.006-0.054,0.009
		C20.472,9.633,20.47,9.661,20.467,9.688L20.467,9.688z M15.368,27.798c0.299,0.091,0.759,0.378,0.982,0.54
		c-0.22-0.056-0.399-0.037-0.569-0.016c-0.208,0.028-0.405,0.053-0.689-0.053c-0.489-0.186-0.752-0.62-0.754-0.623l-0.005-0.01
		l-0.006-0.006c-0.019-0.015-0.026-0.022-0.032-0.03C14.412,27.568,14.972,27.679,15.368,27.798L15.368,27.798z M22.201,28.823
		c-0.258,0.127-0.57,0.312-0.762,0.447c-0.002,0.061-0.01,0.113-0.021,0.161c0.154,0.032,0.529,0.079,0.902-0.073
		c0.281-0.116,0.406-0.27,0.541-0.433c0.107-0.132,0.225-0.265,0.424-0.375C23.012,28.583,22.482,28.687,22.201,28.823
		L22.201,28.823z M10.937,17.095c0-0.187-0.042-0.332-0.082-0.475c-0.042-0.145-0.08-0.283-0.08-0.463
		c0-0.067,0.004-0.142,0.018-0.225c0.084-0.517,0.458-0.859,0.461-0.863l0.007-0.006l0.003-0.01
		c0.011-0.019,0.021-0.028,0.026-0.038c0.031,0.063,0.049,0.268,0.049,0.511c0,0.196-0.011,0.411-0.031,0.582
		c-0.035,0.32-0.255,0.863-0.38,1.1C10.93,17.17,10.937,17.129,10.937,17.095L10.937,17.095z M16.632,28.456
		c0.32,0.035,0.863,0.256,1.1,0.381c-0.244-0.019-0.421,0.026-0.588,0.074c-0.198,0.056-0.385,0.109-0.687,0.063
		c-0.517-0.085-0.86-0.459-0.863-0.462l-0.006-0.008L15.579,28.5c-0.021-0.011-0.03-0.02-0.039-0.024
		C15.649,28.419,16.245,28.414,16.632,28.456L16.632,28.456z M18.762,10.209c-0.009-0.019-0.015-0.039-0.022-0.062
		c-0.07,0.044-0.15,0.084-0.244,0.116c0.065,0.003,0.149,0.005,0.242,0.005C18.747,10.243,18.755,10.225,18.762,10.209
		L18.762,10.209z M21.059,28.995c-0.219,0.077-0.423,0.841-0.4,1.201c0.013,0.162,0.093,0.466,0.329,0.448
		c0.07-0.004,0.128-0.055,0.166-0.099c0.102-0.123,0.156-0.323,0.135-0.499c-0.01-0.074-0.033-0.134-0.059-0.196l-0.02-0.061
		c-0.088,0.127-0.182,0.232-0.248,0.289l-0.08-0.093c0.158-0.136,0.453-0.542,0.453-0.839c0-0.068-0.023-0.179-0.049-0.269
		c-0.016-0.047-0.033-0.089-0.049-0.115c-0.045,0.076-0.096,0.15-0.152,0.215L21.059,28.995L21.059,28.995z M11.468,15.544
		c0-0.102-0.013-0.193-0.025-0.287c-0.012-0.093-0.024-0.182-0.024-0.279c0-0.121,0.019-0.251,0.078-0.409
		c0.184-0.49,0.62-0.753,0.625-0.755l0.006-0.005l0.005-0.006c0.015-0.018,0.025-0.026,0.032-0.033
		c0.004,0.013,0.009,0.026,0.009,0.052c0,0.189-0.101,0.674-0.208,1.022c-0.091,0.3-0.376,0.763-0.538,0.984
		C11.452,15.727,11.468,15.63,11.468,15.544L11.468,15.544z M23.574,28.445c0.258-0.194,0.807-0.403,1.064-0.471
		c-0.191,0.149-0.289,0.304-0.381,0.453c-0.105,0.176-0.209,0.343-0.461,0.515c-0.434,0.29-0.939,0.251-0.943,0.251l-0.01-0.001
		l-0.008,0.001c-0.025,0.007-0.037,0.007-0.049,0.009C22.832,29.083,23.262,28.674,23.574,28.445L23.574,28.445z M23.172,10.141
		l-0.01-0.004l-0.006-0.005c-0.004-0.003-0.398-0.322-0.922-0.329C21.928,9.8,21.75,9.88,21.557,9.964
		c-0.076,0.034-0.156,0.068-0.244,0.096c0.041,0.053,0.072,0.112,0.094,0.181c0.25,0.059,0.535,0.107,0.73,0.101
		c0.393-0.016,0.977-0.106,1.078-0.182C23.207,10.155,23.195,10.147,23.172,10.141L23.172,10.141z M20.132,28.995
		c-0.221,0.077-0.422,0.841-0.4,1.201c0.011,0.162,0.093,0.466,0.327,0.448c0.071-0.004,0.129-0.055,0.165-0.099
		c0.103-0.123,0.157-0.323,0.136-0.499c-0.008-0.074-0.034-0.134-0.059-0.196l-0.021-0.061c-0.086,0.127-0.18,0.232-0.245,0.289
		l-0.082-0.093c0.16-0.136,0.454-0.542,0.454-0.839c0-0.068-0.023-0.179-0.048-0.269c-0.018-0.047-0.035-0.089-0.049-0.115
		c-0.045,0.076-0.095,0.15-0.155,0.215L20.132,28.995L20.132,28.995z M21.057,10.726l0.027,0.019c0.023,0.027,0.047,0.059,0.07,0.09
		c0.043,0.004,0.084,0.01,0.127,0.015c0.002-0.005,0.004-0.01,0.006-0.015c0.023-0.089,0.047-0.193,0.047-0.261
		c0-0.297-0.295-0.704-0.453-0.839l0.078-0.093c0.068,0.058,0.162,0.161,0.248,0.29l0.02-0.063c0.027-0.061,0.051-0.12,0.061-0.195
		c0.02-0.175-0.033-0.376-0.139-0.499c-0.035-0.044-0.094-0.096-0.163-0.1c-0.235-0.015-0.317,0.286-0.328,0.448
		C20.635,9.885,20.839,10.65,21.057,10.726L21.057,10.726z M19.546,9.689c-0.011,0.09-0.041,0.162-0.067,0.228
		c0,0-0.002,0.001-0.002,0.004c0.052-0.021,0.099-0.043,0.148-0.065c-0.009-0.08-0.013-0.158-0.013-0.228c0-0.003,0-0.005,0-0.007
		c-0.002,0-0.003,0-0.005,0c-0.021,0.005-0.039,0.012-0.057,0.018C19.548,9.654,19.548,9.672,19.546,9.689L19.546,9.689z
		 M12.277,13.838c0.012-0.211,0.022-0.41,0.171-0.677c0.254-0.456,0.724-0.651,0.727-0.652l0.009-0.005l0.007-0.005
		c0.017-0.016,0.029-0.024,0.038-0.03c0,0.004,0.002,0.007,0.002,0.012c0,0.146-0.19,0.674-0.359,1.024
		c-0.137,0.282-0.515,0.718-0.713,0.908C12.254,14.196,12.269,14.014,12.277,13.838L12.277,13.838z M24.963,27.761
		c0.229-0.232,0.744-0.521,0.992-0.629c-0.168,0.179-0.244,0.347-0.313,0.507c-0.082,0.193-0.158,0.373-0.387,0.579
		c-0.385,0.352-0.893,0.388-0.896,0.388l-0.008,0.001l-0.01,0.004c-0.021,0.01-0.035,0.015-0.047,0.017
		C24.318,28.503,24.688,28.038,24.963,27.761L24.963,27.761z M19.652,29.364c-0.013-0.047-0.021-0.104-0.021-0.164
		c0-0.016,0.002-0.032,0.003-0.048c0-0.009,0.002-0.018,0.002-0.027c-0.018,0.005-0.035,0.008-0.052,0.012c0,0.005,0,0.007,0,0.011
		c0,0.113-0.009,0.205-0.028,0.284C19.583,29.409,19.615,29.388,19.652,29.364L19.652,29.364z M11.335,20.66
		c-0.062-0.043-0.142-0.088-0.231-0.121c-0.007,0.002-0.016,0.004-0.022,0.008l-0.02,0.008l-0.022-0.01
		c-0.062-0.032-0.117-0.054-0.175-0.064c-0.032-0.005-0.064-0.006-0.097-0.006c-0.047,0.001-0.102,0.009-0.157,0.021
		c0.201,0.076,0.368,0.179,0.425,0.3c0.1,0.088,0.218,0.16,0.348,0.214C11.365,20.895,11.349,20.778,11.335,20.66L11.335,20.66z
		 M20.127,10.726l0.025,0.019c0.007,0.01,0.017,0.021,0.023,0.03c0.065,0,0.13,0,0.194,0.003c0.018-0.073,0.032-0.151,0.032-0.204
		c0-0.297-0.295-0.704-0.451-0.839l0.078-0.093c0.067,0.058,0.16,0.161,0.248,0.29l0.021-0.063c0.023-0.061,0.048-0.12,0.058-0.195
		c0.02-0.175-0.035-0.376-0.137-0.499c-0.037-0.044-0.094-0.096-0.164-0.1c-0.235-0.015-0.318,0.286-0.328,0.448
		C19.705,9.885,19.907,10.65,20.127,10.726L20.127,10.726z M21.334,9.908c0.105-0.042,0.186-0.079,0.215-0.106
		c-0.01-0.005-0.023-0.009-0.047-0.014l-0.008-0.001l-0.008-0.005c0,0-0.035-0.021-0.098-0.048
		C21.377,9.8,21.354,9.856,21.334,9.908L21.334,9.908z M26.291,26.796c0.193-0.271,0.643-0.635,0.873-0.792
		c-0.129,0.196-0.178,0.377-0.223,0.552c-0.051,0.213-0.102,0.414-0.293,0.651c-0.328,0.404-0.826,0.516-0.832,0.516l-0.008,0.003
		l-0.008,0.004c-0.02,0.015-0.033,0.02-0.041,0.022C25.77,27.626,26.053,27.13,26.291,26.796L26.291,26.796z M13.306,12.687
		c0.053-0.212,0.104-0.414,0.296-0.65c0.329-0.406,0.825-0.516,0.831-0.518l0.009-0.003l0.007-0.004
		c0.02-0.012,0.032-0.018,0.042-0.021c-0.012,0.126-0.293,0.622-0.53,0.957c-0.195,0.272-0.646,0.635-0.877,0.791
		C13.213,13.042,13.264,12.861,13.306,12.687L13.306,12.687z M19.196,10.726l0.025,0.019c0.02,0.021,0.038,0.047,0.057,0.071
		c0.051-0.006,0.104-0.01,0.155-0.014c0.02-0.082,0.04-0.17,0.04-0.229c0-0.297-0.296-0.704-0.455-0.839l0.081-0.093
		c0.067,0.058,0.16,0.161,0.248,0.29l0.02-0.063c0.025-0.061,0.049-0.12,0.058-0.195c0.021-0.175-0.034-0.376-0.137-0.499
		c-0.035-0.044-0.095-0.096-0.163-0.1c-0.235-0.015-0.316,0.286-0.327,0.448C18.772,9.885,18.977,10.65,19.196,10.726L19.196,10.726
		z M19.662,29.643c-0.013-0.006-0.023-0.011-0.028-0.012c-0.036-0.005-0.1-0.014-0.129-0.054c-0.013,0.028-0.029,0.055-0.048,0.079
		c0.065,0.005,0.132,0.004,0.204-0.003C19.661,29.649,19.661,29.646,19.662,29.643L19.662,29.643z M11.317,20.491
		c-0.007,0-0.012,0.001-0.02,0.003c0.008,0.004,0.014,0.008,0.02,0.013C11.317,20.502,11.317,20.496,11.317,20.491L11.317,20.491z
		 M19.51,10.132c0.055,0.007,0.111,0.013,0.171,0.019c-0.02-0.059-0.033-0.125-0.043-0.189c-0.059,0.028-0.121,0.055-0.188,0.078
		C19.472,10.068,19.493,10.1,19.51,10.132L19.51,10.132z M27.02,26.764c0-0.147,0.189-0.676,0.359-1.024
		c0.143-0.296,0.516-0.716,0.713-0.906c-0.096,0.214-0.109,0.396-0.119,0.57c-0.01,0.212-0.023,0.412-0.17,0.678
		c-0.252,0.456-0.723,0.651-0.727,0.653l-0.012,0.002l-0.006,0.007c-0.018,0.016-0.029,0.025-0.039,0.031
		C27.02,26.771,27.02,26.769,27.02,26.764L27.02,26.764z M19.043,28.415l0.052,0.073c-0.071,0.053-0.157,0.178-0.215,0.332
		c0.002,0.007,0.005,0.016,0.007,0.021l0.009,0.021l-0.011,0.021c-0.032,0.062-0.052,0.117-0.065,0.177
		c-0.002,0.031-0.004,0.062-0.003,0.096c0,0.047,0.008,0.104,0.021,0.156c0.075-0.202,0.178-0.367,0.298-0.425
		c0.063-0.068,0.177-0.218,0.252-0.438C19.27,28.439,19.156,28.428,19.043,28.415L19.043,28.415z M14.608,11.602
		c0.083-0.191,0.16-0.37,0.386-0.577c0.386-0.353,0.893-0.389,0.897-0.389l0.009-0.001l0.009-0.003
		c0.02-0.011,0.035-0.015,0.044-0.017c-0.022,0.124-0.388,0.589-0.666,0.868c-0.229,0.232-0.747,0.52-0.993,0.626
		C14.463,11.933,14.539,11.765,14.608,11.602L14.608,11.602z M18.885,10.838l0.009,0.021v0.002c0.08-0.012,0.158-0.021,0.239-0.029
		c-0.121-0.06-0.221-0.223-0.295-0.425c-0.014,0.055-0.022,0.112-0.022,0.159c-0.002,0.031,0.001,0.063,0.004,0.096
		C18.833,10.719,18.853,10.774,18.885,10.838L18.885,10.838z M18.835,28.627c0.05-0.091,0.106-0.166,0.163-0.217
		c-0.061-0.009-0.123-0.018-0.183-0.026C18.817,28.464,18.823,28.55,18.835,28.627L18.835,28.627z M20.563,29.2
		c0-0.016,0-0.032,0.001-0.048c0.001-0.022,0.004-0.044,0.009-0.065c-0.02,0.007-0.04,0.013-0.062,0.02
		c0,0.015,0.004,0.028,0.004,0.041c0,0.236-0.038,0.387-0.13,0.509c0.068-0.003,0.139-0.011,0.208-0.025
		c0.013-0.042,0.024-0.082,0.039-0.12C20.612,29.468,20.563,29.35,20.563,29.2L20.563,29.2z M11.315,18.785
		c-0.059-0.04-0.13-0.078-0.21-0.108c-0.007,0.001-0.016,0.005-0.022,0.009l-0.02,0.007l-0.022-0.009
		c-0.062-0.032-0.117-0.054-0.175-0.064c-0.032-0.005-0.064-0.008-0.097-0.007c-0.047,0.002-0.102,0.009-0.157,0.021
		c0.201,0.078,0.368,0.179,0.425,0.301c0.076,0.065,0.162,0.123,0.255,0.172C11.297,18.997,11.305,18.891,11.315,18.785
		L11.315,18.785z M30.189,19.748l0.094,0.08c-0.059,0.065-0.164,0.159-0.289,0.247l0.061,0.021c0.063,0.023,0.121,0.049,0.193,0.059
		c0.176,0.02,0.379-0.035,0.502-0.138c0.043-0.035,0.096-0.094,0.1-0.164c0.014-0.234-0.287-0.315-0.449-0.328
		c-0.361-0.021-1.125,0.182-1.203,0.4L29.18,19.95c-0.064,0.056-0.135,0.108-0.213,0.152c0.029,0.015,0.07,0.031,0.115,0.049
		c0.092,0.025,0.199,0.049,0.27,0.049C29.646,20.2,30.055,19.904,30.189,19.748L30.189,19.748z M19.871,28.478
		c-0.039,0-0.078-0.002-0.115-0.006c0.003,0.054,0.007,0.104,0.014,0.155C19.803,28.569,19.836,28.519,19.871,28.478L19.871,28.478z
		 M28.078,25.422c0-0.19,0.1-0.675,0.205-1.022c0.092-0.303,0.379-0.762,0.541-0.983c-0.025,0.1-0.041,0.197-0.041,0.281
		c0,0.103,0.014,0.195,0.025,0.289c0.012,0.092,0.023,0.181,0.023,0.278c0,0.122-0.02,0.252-0.078,0.409
		c-0.184,0.489-0.619,0.751-0.625,0.755l-0.006,0.004l-0.008,0.007c-0.012,0.018-0.021,0.025-0.029,0.033
		C28.084,25.459,28.078,25.447,28.078,25.422L28.078,25.422z M19.659,29.529l0.009,0.004c0,0,0.008,0.003,0.023,0.01
		c0.003-0.01,0.007-0.021,0.012-0.032c-0.006-0.01-0.013-0.027-0.021-0.048c-0.037,0.022-0.064,0.043-0.079,0.059
		c0.011,0.004,0.024,0.007,0.046,0.008H19.659L19.659,29.529z M18.678,9.787c-0.188-0.019-0.47-0.016-0.749,0.098
		c-0.279,0.116-0.406,0.269-0.539,0.431c-0.109,0.133-0.227,0.267-0.425,0.377c0.274-0.034,0.802-0.137,1.086-0.275
		c0.216-0.105,0.472-0.253,0.66-0.378C18.693,9.955,18.682,9.868,18.678,9.787L18.678,9.787z M11.332,18.628
		c-0.01,0.002-0.023,0.002-0.034,0.003c0.011,0.007,0.02,0.015,0.033,0.021C11.33,18.642,11.33,18.635,11.332,18.628L11.332,18.628z
		 M21.443,29.135c0.09-0.059,0.188-0.112,0.311-0.156c-0.086-0.004-0.205-0.005-0.334-0.001
		C21.434,29.034,21.441,29.089,21.443,29.135L21.443,29.135z M28.912,23.722c0-0.197,0.01-0.412,0.031-0.589
		c0.035-0.319,0.254-0.861,0.379-1.098c-0.002,0.037-0.008,0.077-0.008,0.111c0,0.188,0.041,0.333,0.082,0.475
		c0.039,0.146,0.08,0.284,0.08,0.463c0,0.069-0.006,0.144-0.02,0.226c-0.082,0.517-0.457,0.859-0.461,0.862l-0.006,0.007
		l-0.004,0.008c-0.012,0.021-0.02,0.031-0.025,0.04C28.928,24.166,28.912,23.964,28.912,23.722L28.912,23.722z M30.189,20.679
		l0.094,0.079c-0.059,0.068-0.164,0.16-0.289,0.248l0.061,0.021c0.063,0.024,0.121,0.048,0.193,0.059
		c0.176,0.021,0.379-0.034,0.502-0.137c0.043-0.037,0.096-0.095,0.1-0.165c0.014-0.234-0.287-0.315-0.449-0.328
		c-0.361-0.021-1.125,0.183-1.203,0.4L29.18,20.88c-0.064,0.059-0.135,0.108-0.213,0.155c0.029,0.013,0.07,0.03,0.115,0.047
		c0.092,0.026,0.199,0.05,0.27,0.05C29.646,21.132,30.055,20.836,30.189,20.679L30.189,20.679z M20.926,28.445l0.03,0.043
		c-0.071,0.053-0.155,0.178-0.214,0.332c0.002,0.007,0.004,0.016,0.007,0.021l0.009,0.021l-0.01,0.021
		c-0.033,0.062-0.053,0.117-0.066,0.177c-0.004,0.031-0.005,0.062-0.005,0.096c0,0.047,0.009,0.104,0.021,0.156
		c0.077-0.202,0.179-0.367,0.299-0.425c0.067-0.072,0.19-0.238,0.264-0.479C21.148,28.423,21.039,28.436,20.926,28.445
		L20.926,28.445z M10.93,19.925c-0.077-0.219-0.842-0.422-1.204-0.4c-0.162,0.013-0.462,0.094-0.448,0.328
		c0.003,0.07,0.057,0.129,0.101,0.164c0.122,0.103,0.324,0.157,0.499,0.138c0.075-0.01,0.134-0.035,0.196-0.059l0.062-0.021
		c-0.127-0.088-0.232-0.182-0.291-0.247l0.094-0.08c0.135,0.156,0.542,0.452,0.838,0.452c0.068,0,0.175-0.023,0.265-0.049
		c0.048-0.016,0.091-0.034,0.119-0.049c-0.078-0.044-0.15-0.097-0.213-0.153L10.93,19.925L10.93,19.925z M30.189,18.815l0.094,0.081
		c-0.059,0.066-0.164,0.159-0.289,0.247l0.061,0.021c0.063,0.023,0.121,0.047,0.193,0.056c0.176,0.022,0.379-0.032,0.502-0.136
		c0.043-0.035,0.096-0.095,0.1-0.163c0.014-0.235-0.287-0.317-0.449-0.328c-0.361-0.021-1.125,0.18-1.203,0.4L29.18,19.02
		c-0.064,0.057-0.135,0.107-0.213,0.151c0.029,0.016,0.07,0.033,0.115,0.049c0.092,0.025,0.199,0.05,0.27,0.05
		C29.646,19.27,30.055,18.974,30.189,18.815L30.189,18.815z M29.311,17.526c-0.139-0.281-0.242-0.811-0.275-1.083
		c0.109,0.198,0.244,0.315,0.377,0.424c0.162,0.134,0.314,0.261,0.432,0.539c0.08,0.202,0.107,0.404,0.107,0.572
		c0,0.235-0.049,0.403-0.051,0.406l-0.002,0.009v0.011c0,0.007,0.002,0.015,0.002,0.023c0,0.01-0.002,0.016-0.002,0.02
		C29.793,18.382,29.492,17.897,29.311,17.526L29.311,17.526z M11.275,19.69c-0.049-0.03-0.106-0.058-0.17-0.083
		c-0.007,0.003-0.016,0.006-0.022,0.007l-0.02,0.01l-0.022-0.011c-0.062-0.032-0.117-0.053-0.175-0.064
		c-0.032-0.003-0.064-0.007-0.097-0.007c-0.047,0.002-0.102,0.011-0.157,0.022c0.201,0.078,0.368,0.178,0.425,0.301
		c0.074,0.064,0.158,0.121,0.25,0.169C11.28,19.919,11.277,19.806,11.275,19.69L11.275,19.69z M10.93,18.994
		c-0.077-0.221-0.842-0.422-1.204-0.4c-0.162,0.011-0.462,0.093-0.448,0.328c0.003,0.068,0.057,0.128,0.101,0.163
		c0.122,0.104,0.324,0.158,0.499,0.136c0.075-0.009,0.134-0.032,0.196-0.056l0.062-0.021c-0.127-0.088-0.232-0.181-0.291-0.247
		l0.094-0.081c0.135,0.158,0.542,0.454,0.838,0.454c0.068,0,0.175-0.024,0.265-0.05c0.048-0.016,0.091-0.033,0.119-0.049
		c-0.078-0.044-0.15-0.096-0.213-0.151L10.93,18.994L10.93,18.994z M19.197,28.995c-0.219,0.077-0.423,0.841-0.4,1.201
		c0.01,0.162,0.091,0.466,0.327,0.448c0.07-0.004,0.13-0.055,0.164-0.099c0.104-0.123,0.159-0.323,0.138-0.499
		c-0.011-0.074-0.035-0.134-0.06-0.196l-0.019-0.061c-0.088,0.127-0.182,0.232-0.247,0.289l-0.081-0.093
		c0.159-0.136,0.453-0.542,0.453-0.839c0-0.068-0.023-0.179-0.05-0.269c-0.016-0.047-0.032-0.089-0.047-0.115
		c-0.046,0.076-0.097,0.15-0.154,0.215L19.197,28.995L19.197,28.995z M20.697,28.627c0.036-0.067,0.078-0.127,0.118-0.172
		c-0.044,0.004-0.089,0.006-0.135,0.009C20.684,28.518,20.689,28.573,20.697,28.627L20.697,28.627z M29.424,21.241
		c-0.023,0.134-0.037,0.261-0.037,0.367c0,0.015,0,0.029,0,0.043c0.018,0.392,0.105,0.979,0.182,1.078
		c0.006-0.009,0.01-0.021,0.02-0.044l0.002-0.008l0.006-0.007c0.002-0.004,0.322-0.398,0.328-0.921c0-0.008,0-0.013,0-0.019
		c0-0.252-0.057-0.416-0.125-0.577C29.701,21.209,29.582,21.234,29.424,21.241L29.424,21.241z M28.928,16.153
		c-0.191-0.258-0.398-0.805-0.471-1.063c0.152,0.188,0.307,0.287,0.455,0.379c0.176,0.105,0.344,0.207,0.514,0.46
		c0.229,0.34,0.254,0.726,0.254,0.879c0,0.041-0.002,0.065-0.002,0.067l-0.002,0.009l0.002,0.009
		c0.008,0.023,0.008,0.035,0.008,0.046C29.568,16.896,29.162,16.468,28.928,16.153L28.928,16.153z M10.609,18.509
		c0.033-0.007,0.07-0.009,0.11-0.009c0.072-0.27,0.145-0.623,0.145-0.868c0-0.015-0.001-0.027-0.001-0.041
		c-0.014-0.394-0.105-0.978-0.181-1.078c-0.005,0.008-0.01,0.021-0.019,0.044l-0.003,0.009l-0.005,0.006
		c-0.004,0.005-0.323,0.399-0.33,0.921c0,0.009,0,0.012,0,0.02c0,0.294,0.079,0.471,0.164,0.656
		C10.533,18.272,10.578,18.38,10.609,18.509L10.609,18.509z M29.361,20.475c-0.033,0-0.066,0.001-0.098,0.006
		c-0.059,0.011-0.115,0.032-0.176,0.064l-0.023,0.01l-0.02-0.008c-0.006-0.004-0.014-0.006-0.021-0.008
		c-0.033,0.011-0.063,0.026-0.092,0.04c-0.014,0.122-0.029,0.241-0.047,0.362c0.074-0.042,0.146-0.092,0.207-0.146
		c0.057-0.121,0.223-0.224,0.424-0.3C29.463,20.483,29.408,20.476,29.361,20.475L29.361,20.475z M18.706,29.272
		c-0.003-0.023-0.005-0.047-0.005-0.072c0-0.016,0.002-0.032,0.002-0.048c0.004-0.06,0.018-0.118,0.035-0.174
		c-0.221-0.049-0.456-0.082-0.624-0.076c-0.393,0.015-0.977,0.105-1.079,0.181c0.011,0.004,0.022,0.011,0.044,0.02h0.008
		l0.007,0.009c0.004,0.002,0.4,0.322,0.922,0.328c0.307,0.003,0.486-0.077,0.675-0.161C18.697,29.278,18.701,29.274,18.706,29.272
		L18.706,29.272z M29.715,20.432c0.119-0.049,0.281-0.074,0.426-0.085c0.002-0.032,0.002-0.067,0.002-0.101
		c-0.023-0.01-0.051-0.018-0.076-0.026c-0.012,0.009-0.025,0.016-0.043,0.017c-0.035,0.006-0.072-0.024-0.115-0.072
		c-0.004-0.003-0.01-0.003-0.014-0.006c-0.068,0.059-0.148,0.1-0.248,0.123c0.012,0.044,0.025,0.09,0.039,0.136
		C29.695,20.423,29.707,20.428,29.715,20.432L29.715,20.432z M28.244,14.765c-0.232-0.229-0.52-0.746-0.627-0.992
		c0.176,0.168,0.346,0.244,0.508,0.313c0.191,0.082,0.373,0.159,0.578,0.386c0.352,0.385,0.389,0.892,0.389,0.897v0.009l0.002,0.009
		c0.01,0.021,0.016,0.036,0.02,0.045C28.988,15.409,28.521,15.043,28.244,14.765L28.244,14.765z M10.504,19.355
		c0.016,0.031,0.029,0.063,0.044,0.097c0.04-0.011,0.088-0.019,0.14-0.021c-0.002-0.018-0.002-0.036-0.005-0.051
		C10.616,19.374,10.555,19.367,10.504,19.355L10.504,19.355z M29.361,19.542c-0.033,0-0.066,0.004-0.098,0.007
		c-0.059,0.012-0.115,0.032-0.176,0.064l-0.023,0.011l-0.02-0.01c-0.006-0.001-0.014-0.004-0.021-0.007
		c-0.016,0.006-0.027,0.011-0.039,0.018c0,0,0,0.002,0,0.003c0,0.109-0.006,0.218-0.008,0.325c0.039-0.028,0.078-0.058,0.115-0.088
		c0.057-0.123,0.223-0.223,0.424-0.301C29.463,19.553,29.408,19.544,29.361,19.542L29.361,19.542z M18.747,29.454L18.747,29.454
		c-0.002-0.01-0.007-0.023-0.012-0.037c-0.012,0.009-0.025,0.017-0.032,0.023C18.711,29.444,18.725,29.447,18.747,29.454
		L18.747,29.454z M29.566,19.448c-0.002-0.005-0.004-0.009-0.004-0.013c0,0.004,0,0.008,0,0.013H29.566L29.566,19.448z
		 M29.361,18.612c-0.033-0.001-0.066,0.002-0.098,0.007c-0.059,0.011-0.115,0.032-0.176,0.064l-0.023,0.009l-0.02-0.007
		c-0.006-0.004-0.014-0.008-0.021-0.009c-0.031,0.011-0.061,0.024-0.088,0.038c0.01,0.105,0.02,0.21,0.027,0.316
		c0.045-0.028,0.088-0.063,0.129-0.098c0.057-0.122,0.223-0.223,0.424-0.301C29.463,18.621,29.408,18.614,29.361,18.612
		L29.361,18.612z M27.279,13.438c-0.271-0.193-0.633-0.646-0.791-0.876c0.197,0.13,0.377,0.179,0.553,0.222
		c0.211,0.053,0.414,0.103,0.65,0.295c0.404,0.331,0.516,0.827,0.518,0.831l0.002,0.009l0.004,0.008
		c0.014,0.021,0.018,0.033,0.023,0.044C28.111,13.958,27.615,13.675,27.279,13.438L27.279,13.438z M10.413,18.568
		c0.015-0.005,0.04-0.017,0.07-0.028c-0.06-0.178-0.118-0.319-0.158-0.361c-0.004,0.011-0.007,0.021-0.012,0.045l-0.002,0.009
		l-0.004,0.008c-0.001,0.001-0.062,0.106-0.117,0.27C10.271,18.523,10.347,18.542,10.413,18.568L10.413,18.568z M11.339,23.773
		c-0.177-0.108-0.345-0.208-0.516-0.462c-0.226-0.341-0.251-0.726-0.251-0.877c0-0.043,0.001-0.066,0.001-0.068v-0.007l-0.001-0.009
		c-0.007-0.026-0.007-0.037-0.007-0.048c0.118,0.043,0.526,0.476,0.757,0.786c0.192,0.258,0.401,0.805,0.47,1.063
		C11.641,23.962,11.488,23.865,11.339,23.773L11.339,23.773z"/>
	<linearGradient id="SVGID_8_" gradientUnits="userSpaceOnUse" x1="15.7959" y1="17.0737" x2="20.147" y2="17.0737">
		<stop  offset="0" style="stop-color:#39BFF0"/>
		<stop  offset="0.2322" style="stop-color:#38BDEF"/>
		<stop  offset="0.3968" style="stop-color:#36B8EB"/>
		<stop  offset="0.5406" style="stop-color:#34AFE5"/>
		<stop  offset="0.6724" style="stop-color:#31A2DC"/>
		<stop  offset="0.7961" style="stop-color:#3091D0"/>
		<stop  offset="0.912" style="stop-color:#327CC0"/>
		<stop  offset="1" style="stop-color:#3668B1"/>
	</linearGradient>
	<path fill-rule="evenodd" clip-rule="evenodd" fill="url(#SVGID_8_)" d="M15.796,16.69c0.001,0.001,0.002,0.005,0.002,0.005
		l0.104,0.222c0.266,0.442,0.574,1.164,0.96,2.259c0.007-0.005,0.557-0.305,0.557-0.305c0.689-0.4,1.446-0.793,2.307-0.965
		c0.15-0.037,0.288-0.06,0.422-0.072c-0.073-0.611-0.164-1.211-0.252-1.791c0,0-0.146-0.973-0.16-1.071
		C18.665,15.189,17.375,15.751,15.796,16.69L15.796,16.69z"/>
	<linearGradient id="SVGID_9_" gradientUnits="userSpaceOnUse" x1="11.6733" y1="19.6719" x2="28.6191" y2="19.6719">
		<stop  offset="0" style="stop-color:#13181D"/>
		<stop  offset="0.292" style="stop-color:#13181E"/>
		<stop  offset="0.6533" style="stop-color:#13181E"/>
		<stop  offset="1" style="stop-color:#12181E"/>
	</linearGradient>
	<path fill-rule="evenodd" clip-rule="evenodd" fill="url(#SVGID_9_)" d="M26.301,24.058l0.379,0.57l-0.004,0.006l-0.641-0.226
		L26.301,24.058L26.301,24.058z M26.23,23.17l-0.271,0.356l0.178,0.274l-0.393,0.518l-0.313-0.1l-0.307,0.403l1.615,0.426
		l0.33-0.435L26.23,23.17L26.23,23.17z M17.017,21.237c-0.038-0.013-0.309-0.109-0.441-0.159c0.053,0.165,0.255,0.797,0.27,0.84
		c0.036,0.014,0.314,0.118,0.45,0.171C17.242,21.921,17.031,21.283,17.017,21.237L17.017,21.237z M13.202,21.691l-0.098-0.382
		l0.308-0.077l0.098,0.382L13.202,21.691L13.202,21.691z M20.114,12.196l0.241-0.642h0.008l0.191,0.651L20.114,12.196L20.114,12.196
		z M19.434,12.771l0.449,0.012L20,12.476l0.649,0.018l0.104,0.313l0.509,0.014l-0.6-1.561l-0.548-0.013L19.434,12.771L19.434,12.771
		z M13.125,15.013l0.268-0.376l1.259,0.891l-0.269,0.378L13.125,15.013L13.125,15.013z M27.598,23.086l0.215-0.442l0.277,0.134
		l-0.641,1.304l-0.271-0.135l0.221-0.454l-1.111-0.544l0.199-0.406L27.598,23.086L27.598,23.086z M21.793,19.624
		c0.047-0.031,0.086-0.055,0.086-0.055c0.848-0.533,1.725-1.083,2.82-1.228c-0.035-0.098-0.039-0.199-0.043-0.299
		c-0.002-0.077-0.004-0.155-0.023-0.227c-1.002,0.232-1.865,0.609-2.859,1.248C21.775,19.252,21.781,19.438,21.793,19.624
		L21.793,19.624z M21.65,19.132h-0.002c-1.475-0.517-2.909,0.325-4.297,1.146c0.021,0.068,0.028,0.143,0.035,0.222
		c0.009,0.081,0.02,0.167,0.044,0.248c1.334-0.823,2.66-1.515,4.241-1.074C21.662,19.493,21.654,19.315,21.65,19.132L21.65,19.132z
		 M14.738,15.199l-0.007-0.164l0.146,0.175l0.173-0.171l-0.842-0.853l1.238,0.466l0.432-0.424l-1.079-1.103L14.518,13.4l0.809,0.819
		l-1.195-0.44l-0.443,0.433l1.053,1.078L14.738,15.199L14.738,15.199z M21.84,21.169c-1.275-0.241-2.225,0.329-3.319,0.991
		c0,0-0.592,0.352-0.623,0.37c0.008,0.022,0.02,0.058,0.02,0.058s0.117,0.342,0.134,0.39c0.045-0.029,0.527-0.333,0.527-0.333
		c1.05-0.675,1.962-1.258,3.336-1.065C21.887,21.442,21.863,21.306,21.84,21.169L21.84,21.169z M21.715,20.215
		c-1.48-0.301-2.559,0.33-3.919,1.131c0,0-0.117,0.068-0.144,0.084c0.009,0.025,0.032,0.091,0.032,0.091s0.104,0.313,0.121,0.356
		c0.044-0.025,0.505-0.301,0.505-0.301c1.034-0.635,2.017-1.229,3.454-0.919C21.746,20.508,21.729,20.362,21.715,20.215
		L21.715,20.215z M12.577,18.428c-0.257-0.057-0.478-0.189-0.415-0.479c0.021-0.097,0.069-0.192,0.167-0.239
		c0.078-0.031,0.193-0.062,0.403-0.016c0.21,0.046,0.472,0.158,0.405,0.473C13.071,18.458,12.819,18.479,12.577,18.428
		L12.577,18.428z M12.48,18.879c0.563,0.124,0.87-0.219,0.963-0.641c0.083-0.376-0.003-0.863-0.604-0.996
		c-0.368-0.081-0.837-0.005-0.976,0.626c-0.026,0.115-0.075,0.422,0.073,0.665C12.083,18.772,12.381,18.856,12.48,18.879
		L12.48,18.879z M27.416,21.273c-0.061-0.013-0.232-0.052-0.299,0.208c-0.01,0.035-0.059,0.231,0.113,0.273
		c0.068,0.018,0.125,0,0.178-0.097l0.191-0.361c0.055-0.102,0.197-0.365,0.51-0.287c0.242,0.062,0.42,0.311,0.303,0.779
		c-0.156,0.613-0.48,0.562-0.641,0.523l0.111-0.442c0.047,0.011,0.207,0.055,0.26-0.154c0.031-0.127-0.018-0.224-0.105-0.247
		c-0.111-0.026-0.16,0.062-0.193,0.12l-0.146,0.276c-0.105,0.195-0.23,0.428-0.547,0.346c-0.332-0.083-0.408-0.42-0.307-0.813
		c0.041-0.165,0.131-0.421,0.32-0.525c0.15-0.086,0.297-0.051,0.363-0.037L27.416,21.273L27.416,21.273z M12.728,16.307l0.073-0.15
		c0.058-0.118,0.135-0.275,0.307-0.191c0.044,0.022,0.121,0.082,0.104,0.186c-0.004,0.038-0.027,0.083-0.07,0.172l-0.074,0.151
		L12.728,16.307L12.728,16.307z M13.658,17.266l0.199-0.404l-0.541-0.265l0.083-0.17c0.088-0.183,0.153-0.157,0.33-0.094
		c0.129,0.046,0.24,0.088,0.335,0.106l0.216-0.438c-0.116-0.015-0.274-0.068-0.375-0.101c-0.229-0.071-0.355-0.114-0.501,0.165
		l-0.008-0.004c0.014-0.044,0.047-0.137,0.036-0.257c-0.006-0.088-0.04-0.184-0.192-0.259c-0.148-0.073-0.253-0.055-0.318-0.03
		c-0.125,0.044-0.189,0.137-0.317,0.397l-0.331,0.674L13.658,17.266L13.658,17.266z M18.119,24.583
		c-0.037-0.014-0.352-0.134-0.492-0.184c0.054,0.166,0.255,0.809,0.269,0.851c0.039,0.017,0.359,0.141,0.502,0.193
		C18.344,25.275,18.131,24.625,18.119,24.583L18.119,24.583z M28.619,20.195l-0.039,0.46l-1.537-0.13l0.039-0.46L28.619,20.195
		L28.619,20.195z M19.2,15.674l0.002,0.219l0.147-0.17l0.218,0.058l-0.126-0.179l0.124-0.182l-0.203,0.065l-0.142-0.172
		l-0.014,0.222l-0.205,0.063L19.2,15.674L19.2,15.674z M14.856,15.359c0.154,0.185,0.684,0.82,0.755,0.907
		c-0.101,0.048-0.589,0.272-0.703,0.324C14.904,16.463,14.866,15.602,14.856,15.359L14.856,15.359z M15.458,16.472
		c-0.072,0.032-0.231,0.102-0.29,0.128c0.021,0.066,0.085,0.299,0.097,0.34c0.039,0.015,0.259,0.097,0.386,0.145
		C15.605,16.938,15.484,16.557,15.458,16.472L15.458,16.472z M16.501,26.517l0.522-0.102l-0.48-0.254l0.06-0.56l-0.426,0.374
		l-0.474-0.246l0.229,0.494l-0.396,0.389l0.571-0.057l0.287,0.499L16.501,26.517L16.501,26.517z M19.603,17.562l0.004,0.219
		l0.147-0.176l0.217,0.06l-0.127-0.178l0.125-0.179l-0.203,0.063l-0.141-0.174l-0.017,0.222l-0.205,0.063L19.603,17.562
		L19.603,17.562z M28.582,18.677l0.025,0.455l-1.236,0.072l0.043,0.726l-0.303,0.019l-0.068-1.182L28.582,18.677L28.582,18.677z
		 M25.449,20.508c-0.021-0.044-0.115-0.235-0.115-0.235s-0.059-0.132-0.072-0.16c-1.143,0.333-2.215,0.837-3.1,1.459
		c0.002,0.024,0.039,0.406,0.047,0.472C23.363,21.27,24.426,20.769,25.449,20.508L25.449,20.508z M24.164,26.418l-0.523-0.104
		l0.48-0.248l-0.059-0.563l0.426,0.372l0.477-0.246l-0.232,0.493l0.395,0.39l-0.57-0.056l-0.287,0.5L24.164,26.418L24.164,26.418z
		 M15.914,17.877c-0.036-0.012-0.263-0.097-0.391-0.144c0.052,0.164,0.246,0.795,0.26,0.84c0.037,0.013,0.279,0.104,0.41,0.153
		C16.14,18.559,15.928,17.921,15.914,17.877L15.914,17.877z M17.574,22.913c-0.037-0.015-0.343-0.124-0.478-0.174
		c0.051,0.165,0.254,0.809,0.268,0.854c0.038,0.013,0.352,0.13,0.492,0.183C17.8,23.607,17.59,22.954,17.574,22.913L17.574,22.913z
		 M21.67,17.946c-0.309-0.049-0.785-0.081-0.934-0.081c-1.334,0-2.433,0.603-3.498,1.188c0,0-0.278,0.153-0.313,0.171
		c0.016,0.034,0.15,0.357,0.167,0.396c0.04-0.02,0.692-0.342,0.692-0.342c1.215-0.618,2.591-1.317,3.868-0.883
		C21.656,18.246,21.664,18.096,21.67,17.946L21.67,17.946z M12.185,19.593c-0.154,0.023-0.21,0.139-0.207,0.268
		c0.006,0.271,0.245,0.35,0.526,0.342c0.094-0.002,0.482-0.015,0.476-0.362c-0.005-0.236-0.172-0.258-0.231-0.266l-0.009-0.466
		c0.48-0.009,0.534,0.505,0.538,0.717c0.003,0.157-0.016,0.436-0.191,0.618c-0.174,0.183-0.42,0.219-0.58,0.224
		c-0.211,0.004-0.424-0.043-0.592-0.191c-0.184-0.161-0.235-0.374-0.241-0.608c-0.005-0.263,0.05-0.464,0.175-0.594
		c0.129-0.134,0.269-0.14,0.325-0.143L12.185,19.593L12.185,19.593z M14.263,23.904l-0.219-0.325l0.264-0.18l0.219,0.328
		L14.263,23.904L14.263,23.904z M21.773,18.434c0.059-0.042,0.137-0.093,0.137-0.093c0.615-0.417,1.381-0.936,2.6-1.078
		c-0.006-0.04-0.064-0.477-0.072-0.522c-1.127,0.263-1.787,0.606-2.641,1.18C21.783,18.092,21.777,18.264,21.773,18.434
		L21.773,18.434z M28.211,17.068l-0.881,0.253c-0.078,0.022-0.16,0.054-0.209,0.114c-0.066,0.08-0.074,0.193-0.045,0.3
		c0.078,0.273,0.301,0.25,0.449,0.206l0.865-0.247l0.121,0.419l-0.857,0.247c-0.164,0.046-0.35,0.076-0.486,0.01
		c-0.221-0.101-0.336-0.37-0.393-0.565c-0.209-0.736,0.225-0.862,0.465-0.932l0.848-0.24L28.211,17.068L28.211,17.068z
		 M16.458,19.553c-0.034-0.012-0.283-0.108-0.412-0.158c0.051,0.169,0.252,0.818,0.268,0.863c0.036,0.013,0.301,0.11,0.437,0.159
		C16.693,20.249,16.471,19.597,16.458,19.553L16.458,19.553z M14.923,24.954c0.044-0.042,0.171-0.167-0.011-0.362
		c-0.027-0.028-0.165-0.177-0.292-0.057c-0.053,0.051-0.066,0.107-0.014,0.203l0.198,0.358c0.058,0.102,0.201,0.363-0.036,0.583
		c-0.183,0.169-0.487,0.184-0.819-0.172c-0.429-0.461-0.208-0.705-0.089-0.818l0.309,0.334c-0.034,0.032-0.157,0.143-0.011,0.301
		c0.088,0.096,0.198,0.107,0.266,0.046c0.083-0.076,0.035-0.169,0.002-0.229l-0.152-0.271c-0.108-0.195-0.235-0.426,0.004-0.647
		c0.252-0.235,0.576-0.114,0.853,0.186c0.113,0.12,0.281,0.338,0.264,0.554c-0.009,0.171-0.119,0.275-0.165,0.323L14.923,24.954
		L14.923,24.954z M21.92,16.617c-0.027,0.199-0.049,0.397-0.068,0.593c0.129-0.075,0.377-0.219,0.377-0.219
		c0.461-0.279,0.896-0.546,2.18-0.959c0.002-0.027,0.033-0.482,0.037-0.544C23.289,15.911,22.707,16.144,21.92,16.617L21.92,16.617z
		 M26.57,15.771l0.67-0.125l0.006,0.007l-0.459,0.502L26.57,15.771L26.57,15.771z M25.723,15.491l0.223,0.389l0.324-0.058
		l0.322,0.563l-0.213,0.251l0.25,0.44l1.021-1.32l-0.27-0.476L25.723,15.491L25.723,15.491z M26.141,14.129l0.133,0.148
		c0.084,0.097,0.184,0.223,0.043,0.347c-0.156,0.139-0.273,0.007-0.348-0.076l-0.131-0.149L26.141,14.129L26.141,14.129z
		 M24.902,14.629l0.301,0.337l0.414-0.371l0.195,0.217c0.061,0.064,0.189,0.21,0.322,0.26c0.066,0.026,0.273,0.084,0.475-0.097
		c0.152-0.134,0.193-0.294,0.164-0.449c-0.031-0.151-0.139-0.273-0.225-0.367l-0.494-0.557L24.902,14.629L24.902,14.629z
		 M21.793,16.661c-0.588-0.2-1.204-0.186-1.744,0.041c0.006,0.032,0.046,0.255,0.046,0.255s0.038,0.211,0.048,0.263
		c0.201-0.095,1.16-0.284,1.585,0.003C21.746,17.038,21.766,16.852,21.793,16.661L21.793,16.661z M12.749,22.667
		c-0.133,0.08-0.14,0.209-0.088,0.325c0.11,0.248,0.361,0.227,0.618,0.112c0.086-0.038,0.442-0.198,0.3-0.517
		c-0.097-0.216-0.257-0.171-0.316-0.154l-0.19-0.428c0.443-0.193,0.691,0.261,0.776,0.453c0.063,0.145,0.152,0.408,0.061,0.645
		c-0.092,0.235-0.303,0.363-0.449,0.428c-0.193,0.088-0.407,0.127-0.62,0.054c-0.23-0.079-0.359-0.254-0.455-0.471
		c-0.108-0.238-0.134-0.447-0.07-0.614c0.07-0.174,0.195-0.23,0.246-0.258L12.749,22.667L12.749,22.667z M23.615,13.146
		c-0.031,0.055-0.113,0.211,0.119,0.343c0.033,0.02,0.207,0.119,0.295-0.031c0.035-0.063,0.033-0.121-0.047-0.199l-0.297-0.283
		c-0.084-0.079-0.297-0.286-0.135-0.566c0.123-0.218,0.41-0.32,0.83-0.079c0.549,0.313,0.41,0.61,0.33,0.755l-0.396-0.227
		c0.025-0.041,0.109-0.185-0.078-0.291c-0.113-0.065-0.219-0.045-0.266,0.035c-0.057,0.097,0.018,0.171,0.064,0.218l0.225,0.217
		c0.16,0.152,0.352,0.335,0.188,0.619c-0.17,0.297-0.516,0.276-0.867,0.075c-0.146-0.083-0.371-0.24-0.418-0.45
		c-0.043-0.167,0.033-0.299,0.061-0.359L23.615,13.146L23.615,13.146z M21.766,22.038c-0.57,0.17-1.113,0.431-1.622,0.682
		c-0.036,0.105-0.055,0.204-0.055,0.303c0,0.053,0.006,0.107,0.017,0.164c0.038-0.018,0.126-0.059,0.126-0.059
		c0.551-0.247,1.07-0.483,1.598-0.901c0.025-0.054,0.041-0.095,0.041-0.123c0-0.014-0.002-0.023-0.008-0.033
		C21.85,22.05,21.816,22.04,21.766,22.038L21.766,22.038z M21.898,15.948c-0.572-0.631-1.273-0.51-2.005-0.309
		c0.014,0.067,0.018,0.141,0.022,0.212c0.004,0.087,0.012,0.177,0.035,0.258c0.65-0.25,1.26-0.217,1.905,0.112
		C21.867,16.13,21.883,16.038,21.898,15.948L21.898,15.948z M22.822,22.636c-0.855,0.525-1.598,0.978-2.501,1.257
		c0.224,0.325,0.585,0.269,0.693,0.24c0.73-0.229,1.453-0.685,2.217-1.169c0.813-0.514,1.654-1.045,2.66-1.428
		c-0.045-0.081-0.072-0.157-0.096-0.23c-0.02-0.066-0.043-0.13-0.08-0.194C24.529,21.587,23.621,22.145,22.822,22.636L22.822,22.636
		z M19.307,17.064c-0.029-1.502-2.431-1.504-2.398-0.002C16.941,18.566,19.342,18.566,19.307,17.064L19.307,17.064z M18.63,11.387
		l0.458-0.07l0.234,1.524l-0.456,0.071L18.63,11.387L18.63,11.387z M22.24,27.053c-0.135-0.428-0.047-0.509,0.072-0.549
		c0.137-0.042,0.199,0.041,0.232,0.086c0.063,0.097,0.123,0.258,0.143,0.329c0.012,0.031,0.084,0.265,0.057,0.396
		c-0.018,0.062-0.074,0.114-0.139,0.135C22.43,27.505,22.334,27.354,22.24,27.053L22.24,27.053z M21.818,27.18
		c0.045,0.14,0.148,0.386,0.365,0.511c0.15,0.087,0.338,0.081,0.508,0.028c0.475-0.151,0.535-0.541,0.408-0.947
		c-0.09-0.282-0.217-0.417-0.352-0.498c-0.09-0.058-0.248-0.123-0.531-0.033c-0.135,0.042-0.316,0.132-0.398,0.325
		C21.719,26.789,21.775,27.045,21.818,27.18L21.818,27.18z M24.857,19.01c-1.193,0.319-2.068,0.795-2.998,1.41
		c0.02,0.166,0.039,0.331,0.064,0.496c0.076-0.045,0.314-0.189,0.314-0.189c0.813-0.495,1.73-1.055,2.811-1.22
		C25.029,19.46,24.873,19.046,24.857,19.01L24.857,19.01z M16.327,16.977l0.005,0.22l0.145-0.173l0.217,0.058l-0.126-0.179
		l0.123-0.18l-0.202,0.065l-0.139-0.175l-0.018,0.222l-0.205,0.064L16.327,16.977L16.327,16.977z M20.926,26.94
		c-0.106,0.108-0.281,0.202-0.352,0.229l-0.041-0.324c0.171-0.076,0.268-0.135,0.414-0.292l0.361-0.045l0.186,1.47l-0.428,0.055
		L20.926,26.94L20.926,26.94z M21.762,11.364l0.598,0.173l0.209,1.255l0.314-1.105l0.375,0.109l-0.426,1.482l-0.582-0.169
		l-0.205-1.306l-0.328,1.153l-0.379-0.11L21.762,11.364L21.762,11.364z M16.783,11.921l0.43-0.145l0.189,0.571l0.514-0.173
		l-0.191-0.57l0.431-0.146l0.49,1.463l-0.432,0.146l-0.198-0.592l-0.514,0.172l0.197,0.592l-0.428,0.143L16.783,11.921
		L16.783,11.921z M19.528,27.273c-0.179-0.012-0.23-0.139-0.221-0.251c0.006-0.126,0.092-0.224,0.258-0.212
		c0.189,0.014,0.23,0.153,0.224,0.251C19.779,27.192,19.696,27.286,19.528,27.273L19.528,27.273z M18.87,27.637
		c0,0.063,0,0.163,0.081,0.256c0.12,0.138,0.299,0.187,0.497,0.201c0.194,0.014,0.398-0.011,0.557-0.173
		c0.147-0.156,0.194-0.378,0.206-0.548c0.01-0.152-0.001-0.309-0.054-0.454c-0.049-0.128-0.158-0.352-0.569-0.379
		c-0.393-0.027-0.663,0.168-0.684,0.468c-0.009,0.136,0.035,0.257,0.118,0.35c0.078,0.086,0.18,0.149,0.387,0.162
		c0.187,0.014,0.291-0.048,0.371-0.124c-0.021,0.263-0.063,0.449-0.301,0.433c-0.125-0.01-0.199-0.078-0.195-0.162L18.87,27.637
		L18.87,27.637z M17.044,18.682l0.006,0.218l0.146-0.171l0.217,0.059l-0.126-0.179l0.124-0.181l-0.202,0.063l-0.143-0.173
		L17.05,18.54l-0.204,0.064L17.044,18.682L17.044,18.682z M18.117,26.715c-0.14,0.061-0.338,0.083-0.416,0.083l0.084-0.318
		c0.188-0.008,0.299-0.026,0.493-0.118l0.352,0.092l-0.371,1.436l-0.42-0.107L18.117,26.715L18.117,26.715z M15.736,12.86
		l-0.421,0.256l-0.16-0.262l1.239-0.753l0.16,0.261l-0.43,0.263l0.642,1.057l-0.388,0.234L15.736,12.86L15.736,12.86z"/>
	<path fill-rule="evenodd" clip-rule="evenodd" fill="#004A93" d="M17.203,17.18c-0.002-0.01,0.006-0.017,0.003-0.031
		c0.003,0,0.007-0.01,0.01-0.01l-0.003-0.016h0.003c0.015-0.044-0.014-0.042,0.023-0.084l-0.004-0.005
		c0.022-0.008,0.047-0.02,0.053-0.036c0.004,0,0.009-0.007,0.009-0.012l0.062-0.021c-0.003-0.028,0.016-0.081,0.013-0.116
		c0.006-0.011,0.002-0.031,0-0.046l-0.006-0.009c0,0-0.012,0-0.017,0c-0.004-0.012-0.009-0.016-0.02-0.016l-0.006-0.002v-0.021
		l0.013-0.005c-0.003-0.007,0.004,0,0.003-0.008l0.015-0.005l-0.002-0.02l-0.015,0.009c-0.001-0.009-0.005-0.016-0.012-0.015
		l-0.002-0.015c0.031-0.009,0.094-0.055,0.119-0.028c0.02-0.007,0.127,0.017,0.14-0.023l0.01-0.005
		c0.002-0.006,0.008-0.016,0.016-0.019c-0.003-0.018,0.012-0.03,0.005-0.05c-0.009,0.003-0.014-0.002-0.02-0.002
		c0-0.003-0.005-0.003-0.005-0.008c-0.005,0-0.007-0.002-0.016,0l-0.002-0.002L17.57,16.55c-0.002,0-0.009-0.004-0.011-0.004
		c-0.002-0.001-0.003-0.017,0.004-0.021c0-0.003,0.004-0.009,0.001-0.01l0.145-0.053c-0.002-0.008,0-0.011,0-0.017
		c0.004,0,0.009-0.006,0.013-0.007c0-0.013,0.008-0.017,0.016-0.02l-0.002-0.014l0.013-0.001l0.002-0.01
		c0.016-0.006,0.033,0.011,0.047,0.01c0,0.001,0.002,0.009,0.009,0.006c0.001,0.012,0.007,0.023,0.009,0.035
		c-0.009,0.002-0.023,0.025-0.03,0.029l-0.003,0.013l0.005,0.041c0.007,0,0.018,0.014,0.02,0.017
		c-0.012-0.017-0.001-0.003,0.002,0.011c0.006-0.005,0.011-0.003,0.015,0.005c-0.009-0.01-0.003-0.008,0.003-0.005
		c-0.012-0.005-0.006-0.003,0.002,0.009c0.014-0.004,0.028-0.014,0.042-0.02c0-0.001,0.003-0.005,0.003-0.011
		c0.016-0.006,0.039-0.02,0.059-0.027c0-0.012,0-0.012,0-0.021c0.003-0.002,0.007-0.005,0.007-0.011
		c0.009-0.003,0.007-0.012,0.007-0.013c0.02-0.008,0.066-0.04,0.084-0.023l0.041-0.015l0.003-0.008
		c0.007-0.003,0.021-0.011,0.026-0.017c0-0.002,0.004-0.005,0.004-0.009c0.002-0.002,0.005-0.005,0.012-0.007l0.003-0.008
		l-0.001-0.01c0.004-0.002,0.004-0.008,0.004-0.009c0,0,0.002-0.006,0.002-0.011c0.003-0.002,0.014-0.006,0.012-0.012
		c0.008-0.003,0.009-0.017,0.013-0.017l-0.002-0.018l0.002-0.006l0.016-0.005c0.003,0.002,0.006,0.005,0.011,0.005l0.001,0.011
		c0.004,0.006,0.008,0.015,0.012,0.029c0.004,0,0.005,0.01,0.009,0.021c0,0,0.015,0.018,0.015,0.026c0.013,0,0.03,0.009,0.043,0.007
		c0,0.011-0.003,0.017-0.002,0.027c-0.007,0.006-0.042,0.051-0.042,0.059c-0.005,0-0.008,0.011-0.014,0.013l-0.004,0.004
		c0.004-0.004,0,0,0,0.007l-0.003,0.009c-0.003,0.002-0.004,0.008-0.008,0.008l0.002,0.01c0.003-0.001,0.006,0.004,0.006,0.007
		c0.008-0.003,0.009,0.004,0.009,0.009c0.004,0,0.014,0.002,0.016,0l0.007,0.004c0,0.007,0,0.007,0.009,0.005
		c0,0.007,0.017-0.004,0.019,0.007c0.031-0.012,0.061-0.024,0.073-0.061c0.004,0,0.013-0.007,0.013-0.007
		c0.01-0.005,0.057-0.037,0.061-0.014c0.007-0.003,0.05-0.012,0.05-0.008l0.011-0.004l0.004,0.008
		c0.015,0.004,0.042-0.013,0.053-0.008l0.004,0.012c0.005,0,0.026,0.017,0.028,0.021c0,0,0.053-0.035,0.053-0.023l0.027-0.009
		c0.012,0.009,0.061-0.006,0.08-0.012c0.002,0.011,0.037-0.022,0.037,0c0.015-0.006,0.016-0.004,0.024,0.006
		c0.002-0.003,0.015,0.001,0.019,0.001l0.008,0.002c0.003,0.007,0.012,0.009,0.022,0.007c0,0.002,0.023,0.012,0.03,0.008
		c0.004,0.013,0.026,0.011,0.037,0.006c0,0.015,0.035,0,0.049-0.002c0,0.002,0,0.002,0.006,0.002c0,0,0.017,0.011,0.019,0.008
		c0.001,0.007,0.013,0.013,0.019,0.01h0.009c0,0.009,0.01,0.023,0.011,0.023c0.003,0.029,0.012,0.141-0.021,0.147
		c0.002,0.009,0.002,0.009-0.006,0.009c0,0.011-0.004,0.024-0.009,0.024l0.002,0.011c-0.011,0.004-0.008,0.009-0.013,0.017
		l-0.009,0.012c0,0.002-0.001,0.006,0,0.009c-0.004,0-0.009,0.006-0.01,0.009c0,0.002-0.009,0.025-0.02,0.028
		c0.002,0.007-0.004,0.021-0.015,0.023c0,0.005-0.003,0.01-0.002,0.016h-0.011c0,0.011-0.018,0.027-0.02,0.038l-0.031,0.011
		l-0.007,0.009l0.007,0.082c-0.009,0.016,0.011,0.063-0.002,0.078c0.002,0.025-0.021,0.055-0.015,0.083
		c-0.015,0.021-0.006,0.059-0.018,0.069l0.002,0.011c-0.005,0.002-0.005,0.014-0.014,0.017c0.009-0.015,0.009-0.003,0,0.009
		c-0.002,0-0.002,0.012-0.008,0.012c-0.003,0.012-0.009,0.012-0.009,0.023l-0.002,0.005l-0.003,0.004l-0.009,0.005l0.004,0.01
		c-0.009,0.003,0.002,0.007-0.013,0.009c0.002,0.014-0.005,0.025-0.002,0.033l-0.005,0.007c0,0-0.012,0.009-0.012,0.016
		c-0.007,0.001-0.014,0.011-0.014,0.019c-0.014,0.005-0.086,0.008-0.084,0.033c-0.011,0.007-0.042,0.011-0.042,0.025
		c-0.021,0.009-0.072,0.025-0.081,0.047c-0.008,0-0.015,0.017-0.018,0.023c-0.005,0-0.018,0.006-0.018,0.014
		c-0.009,0.003-0.013,0.016-0.018,0.023c0,0.003-0.002,0.007-0.002,0.01c-0.003,0.002-0.009,0.014-0.014,0.014
		c0,0.002-0.01,0.037-0.013,0.039c0.008,0.044,0.012,0.09-0.002,0.133c-0.009,0.004-0.015,0.011-0.014,0.022
		c-0.007,0,0,0.005-0.007,0.006l0.002,0.016c-0.007,0-0.009,0.016-0.007,0.024c0-0.024-0.001-0.009-0.007,0.001l0.001,0.011
		c-0.008,0.003-0.008,0.003-0.006,0.011c-0.006,0.002-0.018,0.019-0.018,0.019l-0.001,0.005c-0.005,0.002-0.016,0.019-0.016,0.021
		c-0.006,0.002,0,0.005-0.011,0.007c0.001,0.007,0,0.009,0,0.015l-0.01,0.002c-0.003-0.008-0.007-0.019-0.007-0.024
		c0.01-0.006,0.001-0.008,0.01-0.008c-0.002-0.007,0.002-0.001,0.001-0.013c0.011-0.002,0.009-0.011,0.015-0.013
		c0-0.009,0.003-0.016,0.009-0.021l-0.026,0.011c0.002,0.007-0.004,0-0.001,0.01c-0.013,0.003-0.01,0.014-0.014,0.014
		c0,0.006-0.001,0.013-0.001,0.019c-0.009,0.003-0.003,0.003-0.007,0.005c0,0.014-0.011,0.056-0.019,0.058
		c0.001,0.005,0.006,0.015-0.002,0.018c0.001,0.013-0.006,0.021-0.008,0.029l-0.018,0.007l-0.002-0.02
		c0.016-0.008-0.023-0.041-0.027-0.041c-0.002-0.01-0.004-0.002-0.004-0.007c-0.006,0.002-0.029-0.014-0.029-0.014l-0.009,0.005
		c-0.005-0.005-0.026,0.006-0.034,0.009c0-0.014-0.012-0.014-0.015-0.014c-0.02,0.005-0.041,0-0.061,0.008
		c-0.003-0.022,0.027-0.041,0.025-0.056c0.013,0,0.019-0.006,0.022-0.017c0.005,0,0.014-0.003,0.014-0.011l0.011-0.002
		c-0.002-0.005,0.004-0.011,0.002-0.014c0.02-0.008,0.009-0.042,0.032-0.049c-0.001-0.008,0.016-0.018,0.017-0.029
		c0.004,0,0.014-0.004,0.014-0.011c0.013-0.006,0.013-0.021,0.02-0.022l-0.001-0.036c-0.005,0.002-0.014-0.009-0.016-0.013
		c-0.016,0.006-0.027-0.008-0.029-0.008l-0.009-0.061c-0.016,0.005-0.032,0.008-0.046,0.013c0-0.005,0-0.008-0.004-0.005
		l-0.003-0.042c0,0-0.009-0.003-0.014-0.003c-0.002-0.012-0.009-0.012-0.009-0.015c-0.005,0-0.011,0-0.013-0.009
		c-0.018,0.007-0.046,0.009-0.069,0.012H18.02c-0.009-0.023-0.006-0.107-0.023-0.111c-0.007-0.042-0.039-0.065-0.041-0.104
		c-0.006,0.004-0.016-0.011-0.018-0.021c-0.003,0-0.009-0.001-0.009-0.008c-0.019,0.008-0.037,0.008-0.053,0.016L17.869,17.3
		l-0.002-0.008l-0.009-0.062c-0.02,0.007-0.063,0.012-0.09,0.02c-0.005-0.006-0.007-0.005-0.018,0c0-0.008-0.01,0.002-0.012-0.008
		c-0.012,0.003-0.026-0.002-0.035-0.012c-0.013,0.005-0.056-0.006-0.058-0.017c-0.003,0-0.008,0-0.008-0.006l-0.007-0.007
		c-0.003,0.004-0.016-0.004-0.016-0.004c0-0.005-0.004-0.011-0.004-0.011l-0.014-0.032l-0.001-0.012l-0.005-0.004
		c-0.016,0.004-0.037,0.007-0.055,0.014c-0.004,0.007-0.01,0.016-0.009,0.021c-0.007,0.002-0.014,0.007-0.014,0.011
		c-0.006,0.008-0.014,0.021-0.027,0.023l-0.004,0.017h-0.006c0,0-0.012,0.016-0.012,0.018l-0.008,0.003
		c-0.008,0.014-0.049,0.021-0.062,0.021v-0.007c-0.005,0.002-0.018-0.002-0.02-0.002c-0.001-0.002-0.006-0.028-0.006-0.026
		c0-0.009-0.006-0.014-0.006-0.016l-0.038,0.013c0,0.001-0.011,0.013-0.009,0.017c-0.011,0.001-0.03,0.013-0.033,0.001
		c-0.007,0.005-0.014,0-0.019,0l-0.011,0.005l-0.003-0.005l-0.004-0.003c0-0.009,0-0.009-0.008-0.007
		c-0.002-0.008-0.008-0.027-0.017-0.025c-0.001-0.004-0.002-0.005-0.005-0.005C17.211,17.192,17.206,17.18,17.203,17.18
		L17.203,17.18z M18.329,16.452c-0.005,0.003-0.081,0.006-0.078,0.023l-0.014,0.006l0.002,0.011
		c-0.004,0.004-0.004,0.015-0.002,0.018l-0.007,0.007l0.007,0.003l0.002,0.006l0.005,0.004l0.008-0.004
		c0.001,0.007,0.005-0.001,0.007,0.007c0.007-0.003,0.018-0.012,0.02,0c0.019-0.008,0.035-0.024,0.049-0.028
		c-0.002-0.002,0.004-0.012,0.007-0.012c-0.001-0.004-0.001-0.008,0.004-0.011l-0.004-0.018l-0.009,0.004l-0.002-0.01L18.329,16.452
		L18.329,16.452z"/>
</g>
</svg>
