<?xml version="1.0" encoding="utf-8"?>
<!-- Generator: Adobe Illustrator 16.0.0, SVG Export Plug-In . SVG Version: 6.00 Build 0)  -->
<!DOCTYPE svg PUBLIC "-//W3C//DTD SVG 1.1//EN" "http://www.w3.org/Graphics/SVG/1.1/DTD/svg11.dtd">
<svg version="1.1" id="Camada_1" xmlns="http://www.w3.org/2000/svg" xmlns:xlink="http://www.w3.org/1999/xlink" x="0px" y="0px"
	 width="40px" height="40px" viewBox="0 0 40 40" enable-background="new 0 0 40 40" xml:space="preserve">
<g>
	<linearGradient id="SVGID_1_" gradientUnits="userSpaceOnUse" x1="0.5337" y1="20" x2="39.4658" y2="20">
		<stop  offset="0" style="stop-color:#39BFF0"/>
		<stop  offset="0.2322" style="stop-color:#38BDEF"/>
		<stop  offset="0.3968" style="stop-color:#36B8EB"/>
		<stop  offset="0.5406" style="stop-color:#34AFE5"/>
		<stop  offset="0.6724" style="stop-color:#31A2DC"/>
		<stop  offset="0.7961" style="stop-color:#3091D0"/>
		<stop  offset="0.912" style="stop-color:#327CC0"/>
		<stop  offset="1" style="stop-color:#3668B1"/>
	</linearGradient>
	<path fill-rule="evenodd" clip-rule="evenodd" fill="url(#SVGID_1_)" d="M20,0.533c10.721,0,19.466,8.745,19.466,19.467
		c0,10.723-8.745,19.467-19.466,19.467C9.278,39.467,0.534,30.723,0.534,20C0.534,9.278,9.278,0.533,20,0.533L20,0.533z"/>
	<g>
		<linearGradient id="SVGID_2_" gradientUnits="userSpaceOnUse" x1="1.1025" y1="19.999" x2="38.8955" y2="19.999">
			<stop  offset="0" style="stop-color:#13181D"/>
			<stop  offset="0.292" style="stop-color:#13181E"/>
			<stop  offset="0.6533" style="stop-color:#13181E"/>
			<stop  offset="1" style="stop-color:#12181E"/>
		</linearGradient>
		<path fill-rule="evenodd" clip-rule="evenodd" fill="url(#SVGID_2_)" d="M20,1.102c10.41,0,18.896,8.489,18.896,18.898
			c0,10.408-8.486,18.896-18.896,18.896C9.591,38.896,1.103,30.408,1.103,20C1.103,9.591,9.591,1.102,20,1.102L20,1.102z"/>
		<linearGradient id="SVGID_3_" gradientUnits="userSpaceOnUse" x1="6.3789" y1="20" x2="33.6201" y2="20">
			<stop  offset="0" style="stop-color:#39BFF0"/>
			<stop  offset="0.2322" style="stop-color:#38BDEF"/>
			<stop  offset="0.3968" style="stop-color:#36B8EB"/>
			<stop  offset="0.5406" style="stop-color:#34AFE5"/>
			<stop  offset="0.6724" style="stop-color:#31A2DC"/>
			<stop  offset="0.7961" style="stop-color:#3091D0"/>
			<stop  offset="0.912" style="stop-color:#327CC0"/>
			<stop  offset="1" style="stop-color:#3668B1"/>
		</linearGradient>
		
			<path fill-rule="evenodd" clip-rule="evenodd" fill="none" stroke="url(#SVGID_3_)" stroke-width="0.4544" stroke-miterlimit="10" d="
			M20,6.607c7.376,0,13.393,6.017,13.393,13.393S27.376,33.393,20,33.393c-7.375,0-13.394-6.017-13.394-13.393
			S12.624,6.607,20,6.607L20,6.607z"/>
		<linearGradient id="SVGID_4_" gradientUnits="userSpaceOnUse" x1="1.811" y1="20.125" x2="38.1904" y2="20.125">
			<stop  offset="0" style="stop-color:#39BFF0"/>
			<stop  offset="0.2322" style="stop-color:#38BDEF"/>
			<stop  offset="0.3968" style="stop-color:#36B8EB"/>
			<stop  offset="0.5406" style="stop-color:#34AFE5"/>
			<stop  offset="0.6724" style="stop-color:#31A2DC"/>
			<stop  offset="0.7961" style="stop-color:#3091D0"/>
			<stop  offset="0.912" style="stop-color:#327CC0"/>
			<stop  offset="1" style="stop-color:#3668B1"/>
		</linearGradient>
		<path fill-rule="evenodd" clip-rule="evenodd" fill="url(#SVGID_4_)" d="M2.109,17.431l3.718,0.326L5.535,21.07l-0.801-0.069
			l0.182-2.07l-0.592-0.05l-0.168,1.911l-0.791-0.068l0.167-1.915l-0.72-0.062l-0.188,2.148l-0.812-0.071L2.109,17.431L2.109,17.431
			z M3.431,23.021l-0.01,0.001l-0.103,0.015c-0.14,0.031-0.23,0.117-0.273,0.253c-0.042,0.138-0.033,0.332,0.024,0.587
			c0.045,0.192,0.108,0.335,0.191,0.434c0.082,0.094,0.171,0.131,0.27,0.107c0.147-0.033,0.22-0.277,0.215-0.731l-0.002-0.119
			v-0.128c-0.011-0.719,0.051-1.197,0.182-1.436c0.06-0.111,0.146-0.207,0.252-0.286c0.054-0.04,0.111-0.071,0.17-0.098
			c0.059-0.025,0.129-0.048,0.207-0.065c0.355-0.082,0.665,0.013,0.926,0.284c0.261,0.271,0.463,0.713,0.604,1.319
			c0.138,0.602,0.155,1.067,0.045,1.396c-0.109,0.33-0.347,0.535-0.712,0.62l-0.042,0.009l-0.262-1.136l0.019-0.004
			c0.122-0.027,0.202-0.108,0.243-0.237c0.019-0.066,0.027-0.141,0.026-0.228c-0.003-0.085-0.019-0.187-0.045-0.301
			c-0.039-0.175-0.093-0.303-0.161-0.386c-0.065-0.082-0.142-0.113-0.23-0.093c-0.149,0.034-0.22,0.313-0.213,0.833l0.004,0.236
			c0.003,0.38-0.007,0.647-0.029,0.804c-0.02,0.156-0.059,0.3-0.112,0.43c-0.061,0.142-0.151,0.264-0.272,0.359
			c-0.12,0.098-0.26,0.164-0.419,0.2C3.555,25.745,3.23,25.64,2.952,25.34c-0.277-0.297-0.491-0.768-0.641-1.412
			c-0.146-0.637-0.157-1.122-0.03-1.45c0.125-0.329,0.398-0.542,0.82-0.641l0.054-0.012L3.431,23.021L3.431,23.021z M6.478,26.841
			l-0.677,0.392l0.354,0.613c0.084,0.146,0.174,0.238,0.271,0.272c0.096,0.04,0.203,0.023,0.317-0.042
			c0.11-0.063,0.173-0.147,0.188-0.252c0.016-0.103-0.018-0.228-0.099-0.369L6.478,26.841L6.478,26.841z M3.294,27.231l3.231-1.866
			l1.145,1.982c0.251,0.436,0.357,0.797,0.316,1.082c-0.041,0.288-0.232,0.528-0.572,0.726c-0.341,0.196-0.666,0.246-0.975,0.148
			c-0.31-0.099-0.571-0.333-0.786-0.701l-0.556-0.965l-1.176,0.681L3.294,27.231L3.294,27.231z M8.027,31.007
			c-0.264,0.271-0.401,0.537-0.41,0.791c-0.009,0.257,0.109,0.504,0.354,0.74c0.245,0.237,0.498,0.349,0.754,0.338
			c0.258-0.014,0.513-0.153,0.77-0.416c0.277-0.289,0.425-0.568,0.443-0.845c0.019-0.275-0.097-0.532-0.345-0.773
			c-0.229-0.222-0.482-0.317-0.757-0.29C8.563,30.579,8.292,30.731,8.027,31.007L8.027,31.007z M7.402,33.04
			c-0.532-0.515-0.821-1.022-0.869-1.526c-0.047-0.504,0.151-0.983,0.594-1.439c0.428-0.444,0.901-0.644,1.423-0.601
			c0.522,0.045,1.056,0.327,1.6,0.854c0.541,0.52,0.833,1.038,0.885,1.552c0.052,0.512-0.145,0.998-0.587,1.458
			c-0.433,0.447-0.906,0.645-1.422,0.596C8.51,33.885,7.969,33.587,7.402,33.04L7.402,33.04z M12.91,33.299l-0.34,0.664l0.632,0.321
			c0.151,0.078,0.275,0.107,0.374,0.089c0.097-0.017,0.176-0.082,0.234-0.195c0.06-0.116,0.068-0.219,0.026-0.307
			c-0.042-0.088-0.141-0.172-0.296-0.253L12.91,33.299L12.91,33.299z M10.445,35.381l1.693-3.323l1.907,0.971
			c0.199,0.102,0.364,0.189,0.495,0.264c0.134,0.075,0.232,0.139,0.298,0.188c0.132,0.098,0.229,0.202,0.291,0.315
			c0.06,0.11,0.089,0.241,0.084,0.391c-0.005,0.149-0.042,0.296-0.115,0.438c-0.113,0.22-0.275,0.36-0.491,0.423
			c-0.215,0.061-0.458,0.036-0.731-0.073c0.133,0.065,0.238,0.138,0.319,0.213c0.082,0.076,0.141,0.155,0.18,0.239
			c0.073,0.146,0.068,0.332-0.019,0.554l-0.219,0.583c-0.032,0.077-0.06,0.17-0.085,0.271l-0.075,0.349l-1.154-0.589
			c0.004-0.033,0.011-0.067,0.018-0.104c0.006-0.034,0.021-0.082,0.042-0.146c0.019-0.062,0.029-0.096,0.032-0.104
			c0.019-0.048,0.04-0.1,0.065-0.149l0.201-0.476c0.038-0.073,0.062-0.139,0.069-0.196s0.003-0.109-0.016-0.156
			c-0.03-0.082-0.135-0.168-0.313-0.258l-0.699-0.357l-0.666,1.302L10.445,35.381L10.445,35.381z M16.379,37.688l0.557-2.86
			l-1.364-0.264l0.156-0.805l3.977,0.773l-0.158,0.805l-1.363-0.265L17.63,37.93L16.379,37.688L16.379,37.688z M20.31,38.192
			l-0.455-3.704l3.302-0.404l0.1,0.799l-2.062,0.253l0.071,0.59l1.905-0.232l0.098,0.787l-1.906,0.233l0.088,0.719l2.141-0.263
			l0.099,0.809L20.31,38.192L20.31,38.192z M28.026,33.431c-0.109-0.145-0.239-0.23-0.387-0.258
			c-0.146-0.027-0.312,0.005-0.492,0.097c-0.29,0.146-0.466,0.353-0.526,0.614c-0.063,0.261-0.009,0.561,0.161,0.897
			c0.165,0.322,0.368,0.532,0.61,0.629c0.244,0.096,0.506,0.073,0.79-0.072c0.205-0.105,0.347-0.239,0.422-0.4
			c0.073-0.165,0.076-0.35,0.009-0.563l1.175-0.6c0.18,0.455,0.163,0.867-0.054,1.239c-0.216,0.374-0.643,0.724-1.284,1.05
			c-0.619,0.315-1.175,0.416-1.666,0.301c-0.493-0.112-0.872-0.431-1.138-0.949c-0.288-0.566-0.332-1.096-0.134-1.588
			c0.199-0.492,0.628-0.906,1.284-1.242c0.577-0.292,1.065-0.416,1.465-0.373c0.207,0.021,0.39,0.081,0.544,0.179
			c0.165,0.105,0.295,0.253,0.393,0.444L28.026,33.431L28.026,33.431z M33.209,31.238l0.566,0.586l-2.318,2.239l-2.593-2.685
			l0.918-0.886l2.025,2.099L33.209,31.238L33.209,31.238z M31.381,28.987l0.617-1.07l1.842,1.062c0.268,0.154,0.5,0.208,0.704,0.16
			c0.199-0.049,0.373-0.201,0.521-0.46c0.146-0.247,0.186-0.472,0.127-0.675c-0.061-0.202-0.22-0.379-0.484-0.529l-1.84-1.063
			l0.6-1.04l1.829,1.056c0.502,0.29,0.784,0.648,0.852,1.078c0.064,0.429-0.084,0.96-0.448,1.59
			c-0.363,0.629-0.742,1.016-1.137,1.166c-0.396,0.147-0.849,0.076-1.354-0.217L31.381,28.987L31.381,28.987z M34.591,23.934
			l0.757,0.175l0.148-0.64c0.037-0.157,0.031-0.281-0.013-0.372c-0.046-0.091-0.132-0.153-0.26-0.181
			c-0.119-0.028-0.224-0.014-0.307,0.05c-0.084,0.065-0.145,0.173-0.18,0.327L34.591,23.934L34.591,23.934z M35.953,24.248
			l0.799,0.185l0.17-0.736c0.039-0.176,0.037-0.314-0.011-0.419c-0.046-0.105-0.136-0.172-0.268-0.203
			c-0.128-0.03-0.238-0.008-0.328,0.065c-0.088,0.074-0.152,0.197-0.192,0.372L35.953,24.248L35.953,24.248z M37.217,25.783
			l-3.638-0.839l0.521-2.253c0.033-0.14,0.061-0.254,0.088-0.348c0.028-0.092,0.054-0.169,0.081-0.232s0.055-0.118,0.082-0.163
			c0.028-0.046,0.063-0.092,0.104-0.135c0.099-0.113,0.218-0.186,0.356-0.223c0.142-0.039,0.296-0.037,0.464,0.002
			c0.205,0.048,0.357,0.145,0.462,0.293c0.106,0.148,0.167,0.36,0.188,0.632c0.144-0.29,0.307-0.487,0.493-0.591
			c0.186-0.104,0.407-0.125,0.667-0.063c0.319,0.073,0.541,0.224,0.666,0.454c0.124,0.229,0.143,0.534,0.057,0.908L37.217,25.783
			L37.217,25.783z M38.19,20.7l-3.717,0.324l-0.289-3.313l0.801-0.07l0.182,2.068l0.592-0.05l-0.167-1.915l0.792-0.068l0.164,1.912
			l0.723-0.063l-0.188-2.147l0.813-0.07L38.19,20.7L38.19,20.7z M6.212,10.628c-0.167-0.072-0.323-0.082-0.463-0.032
			c-0.142,0.049-0.268,0.158-0.379,0.331c-0.177,0.271-0.227,0.536-0.149,0.793c0.077,0.258,0.273,0.491,0.59,0.696
			c0.303,0.197,0.585,0.277,0.844,0.241c0.256-0.038,0.474-0.19,0.647-0.458c0.125-0.192,0.179-0.379,0.163-0.557
			c-0.019-0.179-0.108-0.341-0.272-0.491l0.719-1.106c0.383,0.301,0.573,0.67,0.573,1.101s-0.196,0.947-0.589,1.552
			c-0.377,0.582-0.809,0.944-1.292,1.092c-0.483,0.148-0.969,0.064-1.46-0.255c-0.532-0.347-0.836-0.783-0.909-1.308
			c-0.074-0.526,0.09-1.099,0.491-1.718c0.353-0.541,0.714-0.892,1.081-1.054c0.191-0.086,0.378-0.126,0.563-0.118
			C6.564,9.346,6.75,9.408,6.929,9.524L6.212,10.628L6.212,10.628z M8.45,7.287l0.488,0.563l0.535-0.464
			c0.128-0.113,0.203-0.218,0.223-0.314c0.021-0.097-0.01-0.195-0.094-0.291C9.515,6.683,9.424,6.639,9.328,6.642
			C9.23,6.648,9.116,6.707,8.983,6.822L8.45,7.287L8.45,7.287z M9.458,10.353L7.009,7.535l1.615-1.402
			c0.167-0.146,0.312-0.266,0.43-0.361C9.174,5.676,9.27,5.608,9.34,5.567c0.139-0.085,0.273-0.137,0.398-0.151
			c0.127-0.015,0.259,0.007,0.395,0.066c0.138,0.061,0.258,0.151,0.365,0.272c0.16,0.186,0.231,0.39,0.206,0.611
			c-0.023,0.223-0.137,0.439-0.342,0.652c0.112-0.097,0.218-0.17,0.319-0.216c0.099-0.048,0.196-0.072,0.287-0.077
			c0.164-0.013,0.333,0.063,0.508,0.225l0.458,0.421c0.061,0.059,0.135,0.118,0.22,0.181l0.294,0.201l-0.978,0.849
			c-0.03-0.016-0.06-0.035-0.088-0.054c-0.03-0.021-0.071-0.051-0.12-0.093s-0.078-0.066-0.085-0.07
			c-0.038-0.037-0.076-0.075-0.112-0.117L10.7,7.901c-0.054-0.061-0.108-0.107-0.158-0.136c-0.051-0.028-0.102-0.044-0.151-0.045
			c-0.089-0.002-0.206,0.062-0.356,0.191L9.44,8.429l0.96,1.103L9.458,10.353L9.458,10.353z M11.515,4.089l1.146-0.463l0.796,1.969
			c0.115,0.286,0.267,0.473,0.456,0.557c0.188,0.088,0.419,0.073,0.694-0.039c0.267-0.106,0.437-0.256,0.515-0.453
			c0.078-0.196,0.06-0.435-0.053-0.716l-0.797-1.97l1.114-0.449l0.79,1.955c0.218,0.537,0.221,0.997,0.007,1.375
			c-0.211,0.378-0.657,0.705-1.332,0.977c-0.673,0.271-1.21,0.344-1.613,0.218c-0.402-0.125-0.715-0.461-0.934-1.005L11.515,4.089
			L11.515,4.089z M18.92,5.015l2.268-0.04l0.017,0.813l-3.72,0.065l-0.019-1.027l2.07-1.92L17.547,2.94l-0.013-0.819l3.532-0.063
			l0.019,0.991L18.92,5.015L18.92,5.015z M21.834,5.876l0.775-3.648l3.253,0.691l-0.167,0.786l-2.03-0.433l-0.124,0.581l1.878,0.401
			L25.254,5.03l-1.878-0.398l-0.15,0.708l2.107,0.448l-0.171,0.797L21.834,5.876L21.834,5.876z M25.643,6.946l1.693-3.326
			l1.136,0.581l-1.694,3.324L25.643,6.946L25.643,6.946z M30.284,6.25l-0.46,0.59l0.558,0.435c0.136,0.104,0.253,0.159,0.352,0.16
			c0.098,0.001,0.188-0.048,0.268-0.15c0.079-0.101,0.106-0.2,0.083-0.295c-0.024-0.093-0.104-0.195-0.242-0.303L30.284,6.25
			L30.284,6.25z M27.468,7.827l2.298-2.941l1.685,1.318c0.176,0.136,0.322,0.255,0.438,0.354c0.116,0.099,0.2,0.179,0.253,0.24
			c0.114,0.121,0.188,0.242,0.226,0.364c0.039,0.12,0.042,0.256,0.01,0.4c-0.033,0.147-0.098,0.282-0.196,0.408
			c-0.152,0.195-0.339,0.302-0.562,0.321c-0.223,0.02-0.458-0.05-0.705-0.21c0.117,0.09,0.209,0.18,0.274,0.27
			c0.064,0.09,0.106,0.18,0.131,0.268c0.042,0.159,0,0.34-0.125,0.541l-0.328,0.53c-0.044,0.072-0.09,0.156-0.134,0.251
			l-0.141,0.328l-1.02-0.797c0.01-0.033,0.022-0.066,0.035-0.098c0.013-0.034,0.038-0.078,0.069-0.135
			c0.031-0.057,0.05-0.09,0.052-0.097c0.027-0.045,0.057-0.09,0.094-0.134l0.287-0.429c0.052-0.064,0.086-0.126,0.104-0.182
			c0.019-0.053,0.024-0.105,0.017-0.155c-0.017-0.087-0.101-0.191-0.259-0.313l-0.619-0.485L28.45,8.596L27.468,7.827L27.468,7.827z
			 M33.059,10.667c-0.318,0.206-0.509,0.434-0.577,0.68c-0.065,0.248-0.005,0.515,0.18,0.801c0.186,0.286,0.407,0.453,0.66,0.497
			c0.255,0.046,0.535-0.031,0.843-0.231c0.335-0.218,0.543-0.458,0.623-0.722c0.079-0.266,0.023-0.542-0.163-0.832
			c-0.174-0.268-0.397-0.417-0.671-0.453C33.679,10.37,33.38,10.457,33.059,10.667L33.059,10.667z M31.992,12.506
			c-0.401-0.62-0.567-1.181-0.5-1.682c0.067-0.5,0.368-0.924,0.899-1.27c0.518-0.335,1.024-0.421,1.523-0.264
			c0.498,0.161,0.953,0.558,1.367,1.193c0.406,0.628,0.577,1.198,0.513,1.71c-0.065,0.513-0.366,0.942-0.899,1.29
			c-0.522,0.338-1.028,0.425-1.521,0.262C32.883,13.581,32.423,13.168,31.992,12.506L31.992,12.506z"/>
		<linearGradient id="SVGID_5_" gradientUnits="userSpaceOnUse" x1="10.0762" y1="20.4189" x2="30.3135" y2="20.4189">
			<stop  offset="0" style="stop-color:#39BFF0"/>
			<stop  offset="0.2322" style="stop-color:#38BDEF"/>
			<stop  offset="0.3968" style="stop-color:#36B8EB"/>
			<stop  offset="0.5406" style="stop-color:#34AFE5"/>
			<stop  offset="0.6724" style="stop-color:#31A2DC"/>
			<stop  offset="0.7961" style="stop-color:#3091D0"/>
			<stop  offset="0.912" style="stop-color:#327CC0"/>
			<stop  offset="1" style="stop-color:#3668B1"/>
		</linearGradient>
		<path fill-rule="evenodd" clip-rule="evenodd" fill="url(#SVGID_5_)" d="M20.957,27.514l0.497,1.549h1.633l-1.33,0.96l0.517,1.543
			l-1.331-0.938l-1.302,0.938l0.502-1.532l-1.337-0.977l1.649,0.002L20.957,27.514L20.957,27.514z M28.185,16.346l0.496,1.549h1.633
			l-1.328,0.962l0.517,1.541l-1.33-0.938l-1.304,0.938l0.503-1.532l-1.338-0.977l1.65,0.001L28.185,16.346L28.185,16.346z
			 M22.569,19.837l0.315,0.979h1.031l-0.841,0.607l0.328,0.977l-0.842-0.594L21.735,22.4l0.319-0.969l-0.847-0.618l1.044,0.001
			L22.569,19.837L22.569,19.837z M19.746,9.273l0.497,1.547h1.633l-1.33,0.962l0.517,1.543l-1.33-0.938l-1.304,0.938l0.504-1.534
			l-1.338-0.976l1.651,0.001L19.746,9.273L19.746,9.273z M12.227,16.737l0.497,1.549h1.633l-1.329,0.961l0.518,1.542l-1.33-0.938
			L10.91,20.79l0.504-1.533l-1.337-0.977l1.65,0.001L12.227,16.737L12.227,16.737z"/>
	</g>
</g>
</svg>
