<?xml version="1.0" encoding="utf-8"?>
<!-- Generator: Adobe Illustrator 16.0.0, SVG Export Plug-In . SVG Version: 6.00 Build 0)  -->
<!DOCTYPE svg PUBLIC "-//W3C//DTD SVG 1.1//EN" "http://www.w3.org/Graphics/SVG/1.1/DTD/svg11.dtd">
<svg version="1.1" id="Camada_1" xmlns="http://www.w3.org/2000/svg" xmlns:xlink="http://www.w3.org/1999/xlink" x="0px" y="0px"
	 width="40px" height="40px" viewBox="0 0 40 40" enable-background="new 0 0 40 40" xml:space="preserve">
<g>
	<linearGradient id="SVGID_1_" gradientUnits="userSpaceOnUse" x1="3.8564" y1="20" x2="36.1436" y2="20">
		<stop  offset="0" style="stop-color:#13181D"/>
		<stop  offset="0.292" style="stop-color:#13181E"/>
		<stop  offset="0.6533" style="stop-color:#13181E"/>
		<stop  offset="1" style="stop-color:#12181E"/>
	</linearGradient>
	<path fill-rule="evenodd" clip-rule="evenodd" fill="url(#SVGID_1_)" d="M36.144,14.939V0.332H3.856v14.607
		c0.179,10.879,5.56,19.123,16.147,24.729C30.586,34.063,35.971,25.818,36.144,14.939L36.144,14.939z"/>
	<linearGradient id="SVGID_2_" gradientUnits="userSpaceOnUse" x1="4.5195" y1="17.2124" x2="35.4902" y2="17.2124">
		<stop  offset="0" style="stop-color:#39BFF0"/>
		<stop  offset="0.2322" style="stop-color:#38BDEF"/>
		<stop  offset="0.3968" style="stop-color:#36B8EB"/>
		<stop  offset="0.5406" style="stop-color:#34AFE5"/>
		<stop  offset="0.6724" style="stop-color:#31A2DC"/>
		<stop  offset="0.7961" style="stop-color:#3091D0"/>
		<stop  offset="0.912" style="stop-color:#327CC0"/>
		<stop  offset="1" style="stop-color:#3668B1"/>
	</linearGradient>
	<path fill-rule="evenodd" clip-rule="evenodd" fill="url(#SVGID_2_)" d="M35.49,14.939v-0.142H4.52v0.142
		c0.028,1.623,0.173,3.186,0.438,4.688H35.05C35.309,18.125,35.462,16.563,35.49,14.939L35.49,14.939z"/>
	<linearGradient id="SVGID_3_" gradientUnits="userSpaceOnUse" x1="20.3311" y1="7.5645" x2="35.4902" y2="7.5645">
		<stop  offset="0" style="stop-color:#39BFF0"/>
		<stop  offset="0.2322" style="stop-color:#38BDEF"/>
		<stop  offset="0.3968" style="stop-color:#36B8EB"/>
		<stop  offset="0.5406" style="stop-color:#34AFE5"/>
		<stop  offset="0.6724" style="stop-color:#31A2DC"/>
		<stop  offset="0.7961" style="stop-color:#3091D0"/>
		<stop  offset="0.912" style="stop-color:#327CC0"/>
		<stop  offset="1" style="stop-color:#3668B1"/>
	</linearGradient>
	<polygon fill-rule="evenodd" clip-rule="evenodd" fill="url(#SVGID_3_)" points="35.49,9.976 35.49,5.153 20.331,5.153 
		20.331,9.976 35.49,9.976 	"/>
	<linearGradient id="SVGID_4_" gradientUnits="userSpaceOnUse" x1="4.5195" y1="7.5649" x2="19.6768" y2="7.5649">
		<stop  offset="0" style="stop-color:#39BFF0"/>
		<stop  offset="0.2322" style="stop-color:#38BDEF"/>
		<stop  offset="0.3968" style="stop-color:#36B8EB"/>
		<stop  offset="0.5406" style="stop-color:#34AFE5"/>
		<stop  offset="0.6724" style="stop-color:#31A2DC"/>
		<stop  offset="0.7961" style="stop-color:#3091D0"/>
		<stop  offset="0.912" style="stop-color:#327CC0"/>
		<stop  offset="1" style="stop-color:#3668B1"/>
	</linearGradient>
	<polygon fill-rule="evenodd" clip-rule="evenodd" fill="url(#SVGID_4_)" points="4.52,0.988 4.52,14.142 19.677,14.142 
		19.677,0.988 4.52,0.988 	"/>
	<linearGradient id="SVGID_5_" gradientUnits="userSpaceOnUse" x1="6.2988" y1="26.8594" x2="33.7119" y2="26.8594">
		<stop  offset="0" style="stop-color:#39BFF0"/>
		<stop  offset="0.2322" style="stop-color:#38BDEF"/>
		<stop  offset="0.3968" style="stop-color:#36B8EB"/>
		<stop  offset="0.5406" style="stop-color:#34AFE5"/>
		<stop  offset="0.6724" style="stop-color:#31A2DC"/>
		<stop  offset="0.7961" style="stop-color:#3091D0"/>
		<stop  offset="0.912" style="stop-color:#327CC0"/>
		<stop  offset="1" style="stop-color:#3668B1"/>
	</linearGradient>
	<path fill-rule="evenodd" clip-rule="evenodd" fill="url(#SVGID_5_)" d="M6.299,24.449c0.659,1.703,1.501,3.303,2.528,4.82h22.354
		c1.026-1.51,1.868-3.117,2.531-4.82H6.299L6.299,24.449z"/>
	<linearGradient id="SVGID_6_" gradientUnits="userSpaceOnUse" x1="13.0537" y1="36.5088" x2="26.9531" y2="36.5088">
		<stop  offset="0" style="stop-color:#39BFF0"/>
		<stop  offset="0.2322" style="stop-color:#38BDEF"/>
		<stop  offset="0.3968" style="stop-color:#36B8EB"/>
		<stop  offset="0.5406" style="stop-color:#34AFE5"/>
		<stop  offset="0.6724" style="stop-color:#31A2DC"/>
		<stop  offset="0.7961" style="stop-color:#3091D0"/>
		<stop  offset="0.912" style="stop-color:#327CC0"/>
		<stop  offset="1" style="stop-color:#3668B1"/>
	</linearGradient>
	<path fill-rule="evenodd" clip-rule="evenodd" fill="url(#SVGID_6_)" d="M13.054,34.094c1.972,1.784,4.295,3.391,6.95,4.83
		c2.658-1.439,4.979-3.046,6.949-4.83H13.054L13.054,34.094z"/>
	<linearGradient id="SVGID_7_" gradientUnits="userSpaceOnUse" x1="8.2178" y1="7.3374" x2="16.8486" y2="7.3374">
		<stop  offset="0" style="stop-color:#13181D"/>
		<stop  offset="0.292" style="stop-color:#13181E"/>
		<stop  offset="0.6533" style="stop-color:#13181E"/>
		<stop  offset="1" style="stop-color:#12181E"/>
	</linearGradient>
	<path fill-rule="evenodd" clip-rule="evenodd" fill="url(#SVGID_7_)" d="M10.539,1.992C9.354,1.391,8.584,1.307,8.218,1.738
		c0.818,0.164,1.214,0.663,1.17,1.498v7.238c0.317,0.158,0.675,0.255,1.078,0.29c0.088,0.008,0.169,0.016,0.252,0.024V8.979
		c1.466,0.127,2.472,0.85,3.021,2.182c0.559,1.332,1.168,2.008,1.831,2.046c0.661,0.036,1.086-0.542,1.278-1.741
		c-0.976,1.043-1.785,0.758-2.426-0.856c-0.648-1.621-1.883-2.501-3.705-2.656V2.631c0.268-0.088,0.55-0.141,0.855-0.156
		c0.759-0.029,1.437,0.225,2.025,0.762c0.587,0.54,0.898,1.203,0.93,1.978c0.028,0.655-0.18,1.249-0.625,1.786v0.804h0.304
		c0.245-0.142,0.485-0.312,0.7-0.511c0.425-0.375,0.698-0.791,0.833-1.237c0.076-0.28,0.21-0.499,0.396-0.655
		c-0.186-0.187-0.308-0.441-0.365-0.754c-0.15-0.764-0.513-1.449-1.101-2.046c-0.648-0.668-1.46-0.996-2.449-0.996
		C11.609,1.604,11.046,1.73,10.539,1.992L10.539,1.992z"/>
	<linearGradient id="SVGID_8_" gradientUnits="userSpaceOnUse" x1="10.9639" y1="4.1973" x2="12.0059" y2="4.1973">
		<stop  offset="0" style="stop-color:#13181D"/>
		<stop  offset="0.292" style="stop-color:#13181E"/>
		<stop  offset="0.6533" style="stop-color:#13181E"/>
		<stop  offset="1" style="stop-color:#12181E"/>
	</linearGradient>
	<path fill-rule="evenodd" clip-rule="evenodd" fill="url(#SVGID_8_)" d="M11.923,2.789c-0.299-0.084-0.616-0.074-0.959,0.021v2.568
		c0.132,0.269,0.355,0.34,0.66,0.243c0.388-0.124,0.477-0.37,0.283-0.743C11.677,4.439,11.687,3.741,11.923,2.789L11.923,2.789z"/>
	<linearGradient id="SVGID_9_" gradientUnits="userSpaceOnUse" x1="11.8428" y1="7.1602" x2="17.2119" y2="7.1602">
		<stop  offset="0" style="stop-color:#13181D"/>
		<stop  offset="0.292" style="stop-color:#13181E"/>
		<stop  offset="0.6533" style="stop-color:#13181E"/>
		<stop  offset="1" style="stop-color:#12181E"/>
	</linearGradient>
	<path fill-rule="evenodd" clip-rule="evenodd" fill="url(#SVGID_9_)" d="M11.843,4.039c0.318,0.096,0.482,0.305,0.482,0.632V8.07
		c0.625,0.253,1.152,0.642,1.578,1.146h1.488c0.229,0.021,0.325,0.158,0.295,0.408c-0.035,0.248-0.28,0.521-0.729,0.829
		c1.043,0.103,1.503-0.403,1.395-1.526c-0.113-1.116,0.177-1.914,0.859-2.375c-0.632-0.188-1.228,0.313-1.775,1.496h-1.78V4.916
		h0.595c-0.065-0.387-0.199-0.744-0.433-1.063h-1.626C11.981,3.869,11.865,3.928,11.843,4.039L11.843,4.039z"/>
	<linearGradient id="SVGID_10_" gradientUnits="userSpaceOnUse" x1="5.6963" y1="7.4326" x2="12.0801" y2="7.4326">
		<stop  offset="0" style="stop-color:#13181D"/>
		<stop  offset="0.292" style="stop-color:#13181E"/>
		<stop  offset="0.6533" style="stop-color:#13181E"/>
		<stop  offset="1" style="stop-color:#12181E"/>
	</linearGradient>
	<path fill-rule="evenodd" clip-rule="evenodd" fill="url(#SVGID_10_)" d="M9.141,3.236c0,0,0,0,0-0.008c0-0.077,0-0.15,0-0.215
		c-0.521,0.199-0.983,0.505-1.405,0.9C6.885,4.707,6.289,5.775,5.948,7.098c-0.053,0.195-0.142,0.35-0.252,0.451
		C5.821,7.735,5.91,7.943,5.964,8.185c0.199,0.855,0.689,1.681,1.473,2.483c0.774,0.797,1.733,1.191,2.886,1.184
		c0.68,0,1.259-0.096,1.758-0.291v-0.812c-0.41,0.246-0.953,0.337-1.639,0.261c-1.01-0.105-1.763-0.521-2.263-1.242
		C7.683,9.04,7.437,8.211,7.437,7.267c0-0.937,0.246-1.733,0.729-2.403C8.457,4.472,8.776,4.18,9.141,4V3.236L9.141,3.236z"/>
	<linearGradient id="SVGID_11_" gradientUnits="userSpaceOnUse" x1="11.8945" y1="11.5591" x2="14.5498" y2="11.5591">
		<stop  offset="0" style="stop-color:#13181D"/>
		<stop  offset="0.292" style="stop-color:#13181E"/>
		<stop  offset="0.6533" style="stop-color:#13181E"/>
		<stop  offset="1" style="stop-color:#12181E"/>
	</linearGradient>
	<path fill-rule="evenodd" clip-rule="evenodd" fill="url(#SVGID_11_)" d="M12.325,9.754v2.262c-0.016,0.736-0.157,1.184-0.431,1.34
		c0.513,0.043,0.95-0.068,1.315-0.338c0.402,0.24,0.85,0.352,1.34,0.338c-0.477-0.425-0.766-0.997-0.863-1.711
		c-0.06-0.121-0.11-0.254-0.172-0.389C13.238,10.592,12.845,10.096,12.325,9.754L12.325,9.754z"/>
	<linearGradient id="SVGID_12_" gradientUnits="userSpaceOnUse" x1="8.501" y1="12.8267" x2="11.6865" y2="12.8267">
		<stop  offset="0" style="stop-color:#13181D"/>
		<stop  offset="0.292" style="stop-color:#13181E"/>
		<stop  offset="0.6533" style="stop-color:#13181E"/>
		<stop  offset="1" style="stop-color:#12181E"/>
	</linearGradient>
	<path fill-rule="evenodd" clip-rule="evenodd" fill="url(#SVGID_12_)" d="M10.322,12.097c-0.335,0.007-0.653-0.022-0.96-0.089
		c-0.07,0.618-0.37,1.16-0.861,1.638c0.698-0.03,1.242-0.23,1.638-0.604c0.423,0.364,0.942,0.551,1.548,0.558
		c-0.471-0.377-0.768-0.885-0.902-1.518C10.635,12.097,10.488,12.097,10.322,12.097L10.322,12.097z"/>
	<linearGradient id="SVGID_13_" gradientUnits="userSpaceOnUse" x1="15.793" y1="4.4976" x2="18.7686" y2="4.4976">
		<stop  offset="0" style="stop-color:#13181D"/>
		<stop  offset="0.292" style="stop-color:#13181E"/>
		<stop  offset="0.6533" style="stop-color:#13181E"/>
		<stop  offset="1" style="stop-color:#12181E"/>
	</linearGradient>
	<path fill-rule="evenodd" clip-rule="evenodd" fill="url(#SVGID_13_)" d="M16.009,4.604c0.02,0.113,0.051,0.215,0.097,0.313h0.887
		c0.29,0.068,0.503,0.328,0.646,0.773c0.217,0.672,0.586,1.035,1.13,1.096c-0.582-0.768-0.757-1.579-0.526-2.428
		c0.221-0.854,0.058-1.576-0.494-2.147c0.15,1.083-0.014,1.634-0.497,1.644h-1.458C15.889,4.099,15.956,4.344,16.009,4.604
		L16.009,4.604z"/>
</g>
</svg>
