<?xml version="1.0" encoding="utf-8"?>
<!-- Generator: Adobe Illustrator 16.0.0, SVG Export Plug-In . SVG Version: 6.00 Build 0)  -->
<!DOCTYPE svg PUBLIC "-//W3C//DTD SVG 1.1//EN" "http://www.w3.org/Graphics/SVG/1.1/DTD/svg11.dtd">
<svg version="1.1" id="Camada_1" xmlns="http://www.w3.org/2000/svg" xmlns:xlink="http://www.w3.org/1999/xlink" x="0px" y="0px"
	 width="40px" height="40px" viewBox="0 0 40 40" enable-background="new 0 0 40 40" xml:space="preserve">
<g>
	<linearGradient id="SVGID_1_" gradientUnits="userSpaceOnUse" x1="2.9834" y1="20" x2="37.0166" y2="20">
		<stop  offset="0" style="stop-color:#13181D"/>
		<stop  offset="0.292" style="stop-color:#13181E"/>
		<stop  offset="0.6533" style="stop-color:#13181E"/>
		<stop  offset="1" style="stop-color:#12181E"/>
	</linearGradient>
	<path fill="url(#SVGID_1_)" d="M20.004,0.302C15.712,5.876,10.042,7.96,3.009,6.569c-0.455,13.839,5.212,24.88,16.995,33.129
		c11.775-8.249,17.442-19.29,16.987-33.129C29.957,7.96,24.289,5.876,20.004,0.302z"/>
	<linearGradient id="SVGID_2_" gradientUnits="userSpaceOnUse" x1="3.3423" y1="20.0718" x2="36.6582" y2="20.0718">
		<stop  offset="0" style="stop-color:#39BFF0"/>
		<stop  offset="0.2322" style="stop-color:#38BDEF"/>
		<stop  offset="0.3968" style="stop-color:#36B8EB"/>
		<stop  offset="0.5406" style="stop-color:#34AFE5"/>
		<stop  offset="0.6724" style="stop-color:#31A2DC"/>
		<stop  offset="0.7961" style="stop-color:#3091D0"/>
		<stop  offset="0.912" style="stop-color:#327CC0"/>
		<stop  offset="1" style="stop-color:#3668B1"/>
	</linearGradient>
	<path fill="url(#SVGID_2_)" d="M20.004,0.876C15.746,6.19,10.196,8.23,3.355,6.998c-0.319,13.436,5.22,24.199,16.648,32.27
		c11.421-8.07,16.963-18.834,16.641-32.27C29.805,8.23,24.256,6.19,20.004,0.876z"/>
	<linearGradient id="SVGID_3_" gradientUnits="userSpaceOnUse" x1="4.9155" y1="11.396" x2="35.0928" y2="11.396">
		<stop  offset="0" style="stop-color:#13181D"/>
		<stop  offset="0.292" style="stop-color:#13181E"/>
		<stop  offset="0.6533" style="stop-color:#13181E"/>
		<stop  offset="1" style="stop-color:#12181E"/>
	</linearGradient>
	<path fill="url(#SVGID_3_)" d="M20.004,3.261c-4.057,4.32-9.083,6.158-15.088,5.535c0.068,3.812,0.641,7.388,1.73,10.735h26.71
		c1.089-3.347,1.67-6.923,1.737-10.735C29.089,9.419,24.054,7.581,20.004,3.261z"/>
	<linearGradient id="SVGID_4_" gradientUnits="userSpaceOnUse" x1="6.9492" y1="28.7109" x2="33.0527" y2="28.7109">
		<stop  offset="0" style="stop-color:#13181D"/>
		<stop  offset="0.292" style="stop-color:#13181E"/>
		<stop  offset="0.6533" style="stop-color:#13181E"/>
		<stop  offset="1" style="stop-color:#12181E"/>
	</linearGradient>
	<path fill="url(#SVGID_4_)" d="M22.687,20.434c-2.345-0.463-4.909-0.463-7.674,0H6.949c2.336,6.555,6.687,12.188,13.055,16.903
		c6.36-4.715,10.712-10.349,13.049-16.903H22.687z"/>
	<linearGradient id="SVGID_5_" gradientUnits="userSpaceOnUse" x1="23.0488" y1="14.8301" x2="26.6768" y2="14.8301">
		<stop  offset="0" style="stop-color:#39BFF0"/>
		<stop  offset="0.2322" style="stop-color:#38BDEF"/>
		<stop  offset="0.3968" style="stop-color:#36B8EB"/>
		<stop  offset="0.5406" style="stop-color:#34AFE5"/>
		<stop  offset="0.6724" style="stop-color:#31A2DC"/>
		<stop  offset="0.7961" style="stop-color:#3091D0"/>
		<stop  offset="0.912" style="stop-color:#327CC0"/>
		<stop  offset="1" style="stop-color:#3668B1"/>
	</linearGradient>
	<path fill="url(#SVGID_5_)" d="M23.876,11.932c-0.025-0.008-0.041-0.016-0.059-0.025c-0.186,0.303-0.337,0.642-0.455,1.013
		c0.109,0.017,0.219,0.042,0.329,0.076c0.041,0.193,0.017,0.42-0.084,0.666c-1.055,2.697-0.617,4.098,1.33,4.2
		c-1.424-2.144-0.843-3.854,1.739-5.129l-0.43-0.936C25.411,12.219,24.61,12.261,23.876,11.932z"/>
	<linearGradient id="SVGID_6_" gradientUnits="userSpaceOnUse" x1="12.7012" y1="13.1768" x2="22.0557" y2="13.1768">
		<stop  offset="0" style="stop-color:#39BFF0"/>
		<stop  offset="0.2322" style="stop-color:#38BDEF"/>
		<stop  offset="0.3968" style="stop-color:#36B8EB"/>
		<stop  offset="0.5406" style="stop-color:#34AFE5"/>
		<stop  offset="0.6724" style="stop-color:#31A2DC"/>
		<stop  offset="0.7961" style="stop-color:#3091D0"/>
		<stop  offset="0.912" style="stop-color:#327CC0"/>
		<stop  offset="1" style="stop-color:#3668B1"/>
	</linearGradient>
	<path fill="url(#SVGID_6_)" d="M17.255,11.762c-1.568,0.551-2.616,0.6-3.146,0.153l-1.408,1.467
		c0.784-0.236,1.222,0.287,1.315,1.569c0.546-0.287,1.123-0.524,1.72-0.709c-0.008-0.252-0.025-0.496-0.042-0.742
		c1.696-0.859,3.736-1.146,6.142-0.842c-0.026-0.204-0.009-0.397,0.04-0.591c0.034-0.169,0.093-0.32,0.179-0.481
		C20.038,11.291,18.436,11.351,17.255,11.762z"/>
	<linearGradient id="SVGID_7_" gradientUnits="userSpaceOnUse" x1="15.6704" y1="10.9331" x2="26.2559" y2="10.9331">
		<stop  offset="0" style="stop-color:#39BFF0"/>
		<stop  offset="0.2322" style="stop-color:#38BDEF"/>
		<stop  offset="0.3968" style="stop-color:#36B8EB"/>
		<stop  offset="0.5406" style="stop-color:#34AFE5"/>
		<stop  offset="0.6724" style="stop-color:#31A2DC"/>
		<stop  offset="0.7961" style="stop-color:#3091D0"/>
		<stop  offset="0.912" style="stop-color:#327CC0"/>
		<stop  offset="1" style="stop-color:#3668B1"/>
	</linearGradient>
	<path fill="url(#SVGID_7_)" d="M17.01,8.398L15.67,9.74c0.994-0.136,1.549,0.472,1.695,1.823c0.514-0.163,1.112-0.263,1.787-0.305
		c-0.035-0.438-0.068-0.858-0.109-1.249c1.306-0.075,2.439-0.386,3.407-0.927c0.346,0.438,0.854,0.75,1.502,0.952
		c-2.235,1.374-2.572,2.75-0.996,4.142c0.212-2.218,1.309-3.626,3.3-4.207c-1.376-0.735-2.573-1.493-3.602-2.277
		C19.49,8.796,17.61,9.031,17.01,8.398z"/>
	<linearGradient id="SVGID_8_" gradientUnits="userSpaceOnUse" x1="19.3979" y1="14.5088" x2="23.2949" y2="14.5088">
		<stop  offset="0" style="stop-color:#39BFF0"/>
		<stop  offset="0.2322" style="stop-color:#38BDEF"/>
		<stop  offset="0.3968" style="stop-color:#36B8EB"/>
		<stop  offset="0.5406" style="stop-color:#34AFE5"/>
		<stop  offset="0.6724" style="stop-color:#31A2DC"/>
		<stop  offset="0.7961" style="stop-color:#3091D0"/>
		<stop  offset="0.912" style="stop-color:#327CC0"/>
		<stop  offset="1" style="stop-color:#3668B1"/>
	</linearGradient>
	<path fill="url(#SVGID_8_)" d="M22.848,14.294c-0.136-0.119-0.253-0.236-0.362-0.354c-1.079-0.143-2.11-0.193-3.087-0.159
		c0,0.395,0,0.802,0,1.223c1.096-0.035,2.294,0.05,3.567,0.244c0.067-0.362,0.177-0.758,0.33-1.188
		c-0.06-0.017-0.109-0.025-0.169-0.025c0,0.051-0.009,0.108-0.018,0.159c0,0.044-0.023,0.079-0.05,0.102
		c-0.026,0.025-0.059,0.042-0.103,0.042C22.916,14.336,22.881,14.319,22.848,14.294z"/>
	<linearGradient id="SVGID_9_" gradientUnits="userSpaceOnUse" x1="12.625" y1="21.041" x2="22.9844" y2="21.041">
		<stop  offset="0" style="stop-color:#39BFF0"/>
		<stop  offset="0.2322" style="stop-color:#38BDEF"/>
		<stop  offset="0.3968" style="stop-color:#36B8EB"/>
		<stop  offset="0.5406" style="stop-color:#34AFE5"/>
		<stop  offset="0.6724" style="stop-color:#31A2DC"/>
		<stop  offset="0.7961" style="stop-color:#3091D0"/>
		<stop  offset="0.912" style="stop-color:#327CC0"/>
		<stop  offset="1" style="stop-color:#3668B1"/>
	</linearGradient>
	<path fill="url(#SVGID_9_)" d="M19.212,16.774l0.017-0.869c0.017-1.156,0.017-2.219-0.009-3.181
		c-0.633,0.051-1.238,0.145-1.805,0.295c0.043,1.949,0.06,3.923,0.034,5.913c0.607-0.075,1.189-0.118,1.72-0.144l0.019-0.759
		l1.231-0.167l0.219,0.193c-0.11,0.313-0.203,0.608-0.27,0.886c-1.291-0.05-2.826,0.084-4.631,0.412
		c0.051-1.162,0.075-2.334,0.051-3.549c-0.633,0.22-1.206,0.506-1.747,0.86c0.135,4.427-0.337,8.055-1.417,10.881l0.599,0.64
		c1.154-0.235,2.033,0.152,2.623,1.174c0.219-0.287,0.396-0.6,0.557-0.945c-0.431-0.675-1.021-1.114-1.772-1.292
		c0.498-2.057,0.844-4.207,1.022-6.458c1.738-0.287,3.154-0.423,4.257-0.405c0.12,0.008,0.22,0.008,0.33,0.016
		c0.075,1.14,0.734,1.948,1.958,2.414v-0.474c-0.608-0.616-0.928-1.231-0.962-1.855c0.246,0.033,0.473,0.075,0.684,0.126
		c0.488,0.12,0.833,0.363,1.019,0.726c0.062-0.742,0.062-1.492,0-2.251c-0.36,0.059-0.808,0.076-1.356,0.059
		c0.203-0.362,0.488-0.716,0.868-1.088l-0.613-1.197c-0.559,0.076-1.157,0.151-1.791,0.21
		C19.591,17.019,19.313,16.951,19.212,16.774z"/>
	<linearGradient id="SVGID_10_" gradientUnits="userSpaceOnUse" x1="17.3149" y1="22.4463" x2="19.1367" y2="22.4463">
		<stop  offset="0" style="stop-color:#39BFF0"/>
		<stop  offset="0.2322" style="stop-color:#38BDEF"/>
		<stop  offset="0.3968" style="stop-color:#36B8EB"/>
		<stop  offset="0.5406" style="stop-color:#34AFE5"/>
		<stop  offset="0.6724" style="stop-color:#31A2DC"/>
		<stop  offset="0.7961" style="stop-color:#3091D0"/>
		<stop  offset="0.912" style="stop-color:#327CC0"/>
		<stop  offset="1" style="stop-color:#3668B1"/>
	</linearGradient>
	<path fill="url(#SVGID_10_)" d="M19.137,20.426c-0.515,0.017-1.089,0.067-1.714,0.136c-0.023,1.28-0.057,2.563-0.108,3.854
		c0.295,0.025,0.607,0.043,0.919,0.052c0.278,0,0.557,0,0.827,0L19.137,20.426z"/>
	<linearGradient id="SVGID_11_" gradientUnits="userSpaceOnUse" x1="8.5669" y1="19.582" x2="17.2959" y2="19.582">
		<stop  offset="0" style="stop-color:#39BFF0"/>
		<stop  offset="0.2322" style="stop-color:#38BDEF"/>
		<stop  offset="0.3968" style="stop-color:#36B8EB"/>
		<stop  offset="0.5406" style="stop-color:#34AFE5"/>
		<stop  offset="0.6724" style="stop-color:#31A2DC"/>
		<stop  offset="0.7961" style="stop-color:#3091D0"/>
		<stop  offset="0.912" style="stop-color:#327CC0"/>
		<stop  offset="1" style="stop-color:#3668B1"/>
	</linearGradient>
	<path fill="url(#SVGID_11_)" d="M17.296,15.223c-0.007-0.396-0.015-0.802-0.015-1.199c-3.392,0.633-6.056,2.513-8.005,5.634
		c-0.229,0.388-0.473,0.709-0.709,0.962c0.321,0.118,0.574,0.345,0.768,0.682c0.971,1.747,2.253,3.03,3.856,3.839
		c0.117-0.489,0.219-0.996,0.303-1.528c-1.172-0.605-2-1.501-2.456-2.665c-0.194-0.479-0.144-0.96,0.134-1.442
		C12.515,17.178,14.556,15.752,17.296,15.223z"/>
	<linearGradient id="SVGID_12_" gradientUnits="userSpaceOnUse" x1="15.0693" y1="23.5166" x2="31.3418" y2="23.5166">
		<stop  offset="0" style="stop-color:#39BFF0"/>
		<stop  offset="0.2322" style="stop-color:#38BDEF"/>
		<stop  offset="0.3968" style="stop-color:#36B8EB"/>
		<stop  offset="0.5406" style="stop-color:#34AFE5"/>
		<stop  offset="0.6724" style="stop-color:#31A2DC"/>
		<stop  offset="0.7961" style="stop-color:#3091D0"/>
		<stop  offset="0.912" style="stop-color:#327CC0"/>
		<stop  offset="1" style="stop-color:#3668B1"/>
	</linearGradient>
	<path fill="url(#SVGID_12_)" d="M15.365,24.28c-0.083,0.53-0.176,1.055-0.296,1.569c0.92,0.235,1.907,0.354,2.978,0.354
		c1.888,0.007,3.611-0.312,5.155-0.944c1.476-0.607,2.918-0.827,4.318-0.666c0.058-0.878,0.38-1.519,0.978-1.905
		c0.6-0.39,1.07-0.28,1.417,0.319l0.759-0.017c-0.431-0.473-0.201-0.988,0.668-1.554c-1.385,0-2.235-0.191-2.582-0.606
		c-2.943,2.623-6.462,3.888-10.526,3.787C17.162,24.593,16.217,24.484,15.365,24.28z"/>
	<linearGradient id="SVGID_13_" gradientUnits="userSpaceOnUse" x1="15.7368" y1="28.6309" x2="23.7148" y2="28.6309">
		<stop  offset="0" style="stop-color:#39BFF0"/>
		<stop  offset="0.2322" style="stop-color:#38BDEF"/>
		<stop  offset="0.3968" style="stop-color:#36B8EB"/>
		<stop  offset="0.5406" style="stop-color:#34AFE5"/>
		<stop  offset="0.6724" style="stop-color:#31A2DC"/>
		<stop  offset="0.7961" style="stop-color:#3091D0"/>
		<stop  offset="0.912" style="stop-color:#327CC0"/>
		<stop  offset="1" style="stop-color:#3668B1"/>
	</linearGradient>
	<path fill="url(#SVGID_13_)" d="M19.061,26.329c-0.338,0.018-0.675,0.036-1.013,0.036c-0.304,0-0.599-0.011-0.885-0.025
		c-0.22,1.433-0.691,2.571-1.425,3.397l0.522,0.826c0.793-0.97,1.881-1.087,3.239-0.337c1.359,0.742,2.769,0.902,4.217,0.464
		C20.806,30.285,19.254,28.826,19.061,26.329z"/>
	<linearGradient id="SVGID_14_" gradientUnits="userSpaceOnUse" x1="16.4971" y1="30.8008" x2="18.1494" y2="30.8008">
		<stop  offset="0" style="stop-color:#39BFF0"/>
		<stop  offset="0.2322" style="stop-color:#38BDEF"/>
		<stop  offset="0.3968" style="stop-color:#36B8EB"/>
		<stop  offset="0.5406" style="stop-color:#34AFE5"/>
		<stop  offset="0.6724" style="stop-color:#31A2DC"/>
		<stop  offset="0.7961" style="stop-color:#3091D0"/>
		<stop  offset="0.912" style="stop-color:#327CC0"/>
		<stop  offset="1" style="stop-color:#3668B1"/>
	</linearGradient>
	<path fill="url(#SVGID_14_)" d="M17.12,30.073c-0.228,0.104-0.438,0.263-0.623,0.476c0.589,0.724,1.138,1.053,1.652,0.968
		C17.702,31.069,17.366,30.59,17.12,30.073z"/>
	<linearGradient id="SVGID_15_" gradientUnits="userSpaceOnUse" x1="24.3486" y1="16.626" x2="29.3281" y2="16.626">
		<stop  offset="0" style="stop-color:#39BFF0"/>
		<stop  offset="0.2322" style="stop-color:#38BDEF"/>
		<stop  offset="0.3968" style="stop-color:#36B8EB"/>
		<stop  offset="0.5406" style="stop-color:#34AFE5"/>
		<stop  offset="0.6724" style="stop-color:#31A2DC"/>
		<stop  offset="0.7961" style="stop-color:#3091D0"/>
		<stop  offset="0.912" style="stop-color:#327CC0"/>
		<stop  offset="1" style="stop-color:#3668B1"/>
	</linearGradient>
	<path fill="url(#SVGID_15_)" d="M28.297,15.574l-0.49-0.714c-1.047,0.065-2.066-0.06-3.054-0.406
		c-0.134,0.185-0.228,0.372-0.294,0.573c-0.067,0.186-0.102,0.379-0.11,0.583c0.903,0.379,1.45,0.968,1.645,1.787
		c0.236,1.031,1.207,1.493,2.902,1.383c0.454-0.092,0.548-0.361,0.294-0.811c-0.252-0.446-0.589-0.404-1.005,0.111
		c-0.8-0.102-1.204-0.497-1.213-1.181C26.955,16.218,27.394,15.77,28.297,15.574z"/>
</g>
</svg>
