<?xml version="1.0" encoding="utf-8"?>
<!-- Generator: Adobe Illustrator 16.0.0, SVG Export Plug-In . SVG Version: 6.00 Build 0)  -->
<!DOCTYPE svg PUBLIC "-//W3C//DTD SVG 1.1//EN" "http://www.w3.org/Graphics/SVG/1.1/DTD/svg11.dtd">
<svg version="1.1" id="Camada_1" xmlns="http://www.w3.org/2000/svg" xmlns:xlink="http://www.w3.org/1999/xlink" x="0px" y="0px"
	 width="40px" height="40px" viewBox="0 0 40 40" enable-background="new 0 0 40 40" xml:space="preserve">
<g>
	<linearGradient id="SVGID_1_" gradientUnits="userSpaceOnUse" x1="0.3647" y1="20" x2="39.6348" y2="20">
		<stop  offset="0" style="stop-color:#13181D"/>
		<stop  offset="0.292" style="stop-color:#13181E"/>
		<stop  offset="0.6533" style="stop-color:#13181E"/>
		<stop  offset="1" style="stop-color:#12181E"/>
	</linearGradient>
	<path fill-rule="evenodd" clip-rule="evenodd" fill="url(#SVGID_1_)" d="M20,0.365c10.815,0,19.635,8.821,19.635,19.635
		c0,10.813-8.82,19.635-19.635,19.635C9.186,39.635,0.365,30.813,0.365,20C0.365,9.186,9.186,0.365,20,0.365L20,0.365z"/>
	<linearGradient id="SVGID_2_" gradientUnits="userSpaceOnUse" x1="1.0259" y1="19.999" x2="38.9727" y2="19.999">
		<stop  offset="0" style="stop-color:#39BFF0"/>
		<stop  offset="0.2322" style="stop-color:#38BDEF"/>
		<stop  offset="0.3968" style="stop-color:#36B8EB"/>
		<stop  offset="0.5406" style="stop-color:#34AFE5"/>
		<stop  offset="0.6724" style="stop-color:#31A2DC"/>
		<stop  offset="0.7961" style="stop-color:#3091D0"/>
		<stop  offset="0.912" style="stop-color:#327CC0"/>
		<stop  offset="1" style="stop-color:#3668B1"/>
	</linearGradient>
	<path fill-rule="evenodd" clip-rule="evenodd" fill="url(#SVGID_2_)" d="M20,1.026c10.452,0,18.973,8.523,18.973,18.974
		S30.451,38.973,20,38.973C9.55,38.973,1.026,30.45,1.026,20S9.55,1.026,20,1.026L20,1.026z"/>
	<linearGradient id="SVGID_3_" gradientUnits="userSpaceOnUse" x1="2.3506" y1="19.999" x2="37.6494" y2="19.999">
		<stop  offset="0" style="stop-color:#13181D"/>
		<stop  offset="0.292" style="stop-color:#13181E"/>
		<stop  offset="0.6533" style="stop-color:#13181E"/>
		<stop  offset="1" style="stop-color:#12181E"/>
	</linearGradient>
	<path fill-rule="evenodd" clip-rule="evenodd" fill="url(#SVGID_3_)" d="M34.396,9.809c2.048,2.883,3.254,6.4,3.254,10.191
		s-1.206,7.309-3.254,10.19c-3.28-3.25-8.517-5.359-14.396-5.359c-5.878,0-11.114,2.109-14.395,5.359
		C3.557,27.309,2.351,23.79,2.351,20s1.207-7.308,3.254-10.191c3.281,3.25,8.517,5.362,14.395,5.362
		C25.879,15.171,31.115,13.058,34.396,9.809L34.396,9.809z"/>
	<linearGradient id="SVGID_4_" gradientUnits="userSpaceOnUse" x1="6.2671" y1="20" x2="33.7295" y2="20">
		<stop  offset="0" style="stop-color:#13181D"/>
		<stop  offset="0.292" style="stop-color:#13181E"/>
		<stop  offset="0.6533" style="stop-color:#13181E"/>
		<stop  offset="1" style="stop-color:#12181E"/>
	</linearGradient>
	<path fill-rule="evenodd" clip-rule="evenodd" fill="url(#SVGID_4_)" d="M20,37.649c1.735,0,3.413-0.253,4.997-0.725
		c-0.935-1.015-2.826-1.709-4.998-1.709c-2.171,0-4.061,0.694-4.998,1.709C16.587,37.396,18.264,37.649,20,37.649L20,37.649z
		 M26.09,36.563c3.018-1.117,5.652-3.037,7.64-5.496c-1.703-1.728-4.012-3.121-6.698-4.018c-0.765,3.326-2.054,6.032-3.641,7.646
		C24.562,35.129,25.507,35.781,26.09,36.563L26.09,36.563z M12.965,27.046c-2.685,0.896-4.994,2.29-6.698,4.018
		c1.989,2.463,4.625,4.383,7.644,5.5c0.582-0.782,1.528-1.435,2.699-1.868C15.022,33.082,13.734,30.374,12.965,27.046L12.965,27.046
		z M20,2.351c1.735,0,3.413,0.251,4.997,0.723c-0.935,1.014-2.826,1.711-4.998,1.711c-2.171,0-4.061-0.695-4.998-1.711
		C16.587,2.602,18.264,2.351,20,2.351L20,2.351z M26.09,3.436c3.018,1.116,5.652,3.035,7.64,5.495
		c-1.703,1.728-4.012,3.123-6.698,4.02c-0.765-3.328-2.054-6.033-3.641-7.646C24.562,4.87,25.507,4.218,26.09,3.436L26.09,3.436z
		 M12.965,12.951c-2.685-0.896-4.994-2.289-6.698-4.016c1.989-2.462,4.625-4.383,7.644-5.5c0.582,0.782,1.528,1.434,2.699,1.869
		C15.022,6.917,13.734,9.625,12.965,12.951L12.965,12.951z"/>
	<linearGradient id="SVGID_5_" gradientUnits="userSpaceOnUse" x1="15.7471" y1="19.9697" x2="24.6406" y2="19.9697">
		<stop  offset="0" style="stop-color:#13181D"/>
		<stop  offset="0.292" style="stop-color:#13181E"/>
		<stop  offset="0.6533" style="stop-color:#13181E"/>
		<stop  offset="1" style="stop-color:#12181E"/>
	</linearGradient>
	<path fill-rule="evenodd" clip-rule="evenodd" fill="url(#SVGID_5_)" d="M15.747,27.402h1.726v0.354h-1.317v0.824h0.984v0.356
		h-0.984v1.311h-0.409V27.402L15.747,27.402z M18.297,28.921v0.981h0.522c0.228,0,0.393-0.039,0.499-0.118
		c0.105-0.077,0.156-0.203,0.156-0.372c0-0.159-0.053-0.28-0.165-0.363c-0.11-0.085-0.271-0.128-0.481-0.128H18.297L18.297,28.921z
		 M18.297,27.739v0.849h0.535c0.185,0,0.325-0.039,0.425-0.112c0.098-0.074,0.147-0.183,0.147-0.325c0-0.14-0.05-0.247-0.153-0.312
		c-0.102-0.066-0.264-0.1-0.483-0.1H18.297L18.297,27.739z M17.892,27.402h0.888c0.343,0,0.602,0.061,0.774,0.181
		c0.175,0.118,0.26,0.299,0.26,0.536c0,0.153-0.036,0.284-0.108,0.386c-0.074,0.104-0.185,0.186-0.335,0.249
		c0.171,0.059,0.3,0.15,0.388,0.269c0.087,0.122,0.131,0.27,0.131,0.442c0,0.261-0.088,0.454-0.269,0.585
		c-0.179,0.131-0.446,0.197-0.801,0.197h-0.928V27.402L17.892,27.402z M20.858,27.747v0.935h0.448c0.23,0,0.393-0.035,0.488-0.108
		c0.096-0.074,0.144-0.195,0.144-0.365c0-0.168-0.05-0.284-0.147-0.355c-0.1-0.07-0.264-0.105-0.498-0.105H20.858L20.858,27.747z
		 M20.45,27.402h0.91c0.334,0,0.585,0.066,0.747,0.199c0.164,0.133,0.245,0.337,0.245,0.608c0,0.266-0.079,0.47-0.238,0.61
		c-0.158,0.14-0.387,0.212-0.686,0.212h-0.571v1.215H20.45V27.402L20.45,27.402z M23.435,27.741l-0.4,1.391h0.819l-0.386-1.391
		H23.435L23.435,27.741z M23.175,27.402h0.563l0.868,2.845h-0.421l-0.223-0.769h-1.025l-0.219,0.769h-0.409L23.175,27.402
		L23.175,27.402z M16.49,9.693h0.274v2.595h0.46v0.322h-1.309v-0.322h0.467v-2.167l-0.515,0.042V9.906
		c0.104-0.022,0.209-0.052,0.318-0.088C16.294,9.782,16.394,9.741,16.49,9.693L16.49,9.693z M18.065,12.466l0.168-0.309
		c0.077,0.05,0.159,0.089,0.245,0.119c0.044,0.012,0.086,0.021,0.129,0.029c0.041,0.005,0.086,0.009,0.133,0.009
		c0.229,0,0.415-0.094,0.554-0.283c0.071-0.097,0.126-0.209,0.166-0.338c0.037-0.13,0.058-0.273,0.058-0.432
		c-0.103,0.102-0.21,0.176-0.325,0.226c-0.115,0.05-0.238,0.075-0.366,0.075c-0.255,0-0.463-0.086-0.631-0.26
		c-0.165-0.172-0.248-0.392-0.248-0.662c0-0.28,0.089-0.508,0.266-0.682c0.177-0.175,0.407-0.26,0.693-0.26
		c0.328,0,0.579,0.111,0.754,0.34c0.172,0.229,0.261,0.559,0.261,0.992c0,0.5-0.107,0.895-0.32,1.188
		c-0.212,0.294-0.5,0.44-0.863,0.44c-0.136,0-0.262-0.017-0.375-0.05C18.251,12.576,18.151,12.528,18.065,12.466L18.065,12.466z
		 M19.525,10.779c0-0.115-0.016-0.217-0.045-0.305c-0.03-0.09-0.076-0.171-0.134-0.244c-0.111-0.134-0.257-0.201-0.437-0.201
		c-0.162,0-0.299,0.057-0.405,0.171c-0.107,0.112-0.161,0.258-0.161,0.436c0,0.182,0.052,0.326,0.157,0.436
		c0.102,0.112,0.238,0.166,0.404,0.166c0.13,0,0.253-0.041,0.365-0.122C19.382,11.036,19.468,10.922,19.525,10.779L19.525,10.779z
		 M21.352,10.029c-0.201,0-0.354,0.097-0.459,0.291c-0.107,0.195-0.159,0.479-0.159,0.854c0,0.375,0.052,0.657,0.156,0.851
		c0.104,0.192,0.259,0.29,0.462,0.29c0.202,0,0.355-0.095,0.459-0.288c0.105-0.192,0.156-0.477,0.156-0.853
		c0-0.38-0.05-0.667-0.154-0.858C21.709,10.126,21.556,10.029,21.352,10.029L21.352,10.029z M21.352,9.693
		c0.332,0,0.584,0.125,0.754,0.377c0.173,0.25,0.26,0.618,0.26,1.104c0,0.482-0.087,0.851-0.258,1.104
		c-0.172,0.252-0.422,0.379-0.756,0.379c-0.33,0-0.582-0.126-0.756-0.379c-0.172-0.253-0.26-0.622-0.26-1.104
		c0-0.486,0.086-0.854,0.258-1.104C20.768,9.818,21.02,9.693,21.352,9.693L21.352,9.693z M24.122,11.056
		c0.174,0.059,0.305,0.151,0.39,0.276c0.044,0.063,0.075,0.134,0.098,0.21c0.02,0.077,0.031,0.163,0.031,0.26
		c0,0.259-0.085,0.464-0.259,0.621c-0.173,0.156-0.407,0.233-0.696,0.233c-0.23,0-0.43-0.047-0.6-0.138
		c-0.171-0.093-0.313-0.236-0.426-0.429l0.321-0.212c0.086,0.143,0.184,0.251,0.3,0.326c0.114,0.074,0.242,0.11,0.384,0.11
		c0.177,0,0.317-0.047,0.421-0.139c0.103-0.093,0.152-0.222,0.152-0.387c0-0.184-0.068-0.319-0.202-0.409
		c-0.137-0.087-0.349-0.131-0.637-0.131h-0.071H23.28v-0.344l0.077,0.006c0.035,0,0.057,0,0.063,0c0.251,0,0.436-0.041,0.557-0.121
		c0.124-0.08,0.185-0.201,0.185-0.361c0-0.126-0.044-0.226-0.133-0.298c-0.089-0.074-0.212-0.109-0.372-0.109
		c-0.111,0-0.214,0.028-0.313,0.085c-0.098,0.059-0.188,0.145-0.27,0.258l-0.282-0.218c0.109-0.149,0.24-0.262,0.395-0.34
		c0.155-0.077,0.326-0.115,0.517-0.115c0.262,0,0.468,0.065,0.621,0.195c0.151,0.131,0.227,0.306,0.227,0.53
		c0,0.146-0.035,0.273-0.11,0.383C24.367,10.91,24.261,10.995,24.122,11.056L24.122,11.056z"/>
	<linearGradient id="SVGID_6_" gradientUnits="userSpaceOnUse" x1="3.7017" y1="19.9995" x2="36.2979" y2="19.9995">
		<stop  offset="0" style="stop-color:#39BFF0"/>
		<stop  offset="0.2322" style="stop-color:#38BDEF"/>
		<stop  offset="0.3968" style="stop-color:#36B8EB"/>
		<stop  offset="0.5406" style="stop-color:#34AFE5"/>
		<stop  offset="0.6724" style="stop-color:#31A2DC"/>
		<stop  offset="0.7961" style="stop-color:#3091D0"/>
		<stop  offset="0.912" style="stop-color:#327CC0"/>
		<stop  offset="1" style="stop-color:#3668B1"/>
	</linearGradient>
	<path fill-rule="evenodd" clip-rule="evenodd" fill="url(#SVGID_6_)" d="M31.445,20.885c0,0.72,0.166,1.27,0.498,1.642
		c0.335,0.371,0.758,0.557,1.27,0.557c0.513,0,0.934-0.184,1.264-0.555c0.328-0.368,0.492-0.924,0.492-1.662
		c0-0.729-0.16-1.274-0.479-1.633c-0.321-0.358-0.747-0.539-1.276-0.539c-0.53,0-0.956,0.181-1.281,0.544
		C31.607,19.604,31.445,20.153,31.445,20.885L31.445,20.885z M30.12,20.929c0-0.648,0.096-1.194,0.289-1.633
		c0.146-0.326,0.343-0.615,0.596-0.874c0.249-0.258,0.523-0.45,0.822-0.574c0.396-0.168,0.854-0.252,1.373-0.252
		c0.938,0,1.689,0.291,2.255,0.874c0.563,0.583,0.843,1.392,0.843,2.43c0,1.027-0.278,1.831-0.839,2.414
		c-0.559,0.58-1.306,0.871-2.24,0.871c-0.949,0-1.701-0.289-2.262-0.868C30.398,22.739,30.12,21.943,30.12,20.929L30.12,20.929z
		 M28.412,24.076v-6.372h1.285v6.372H28.412L28.412,24.076z M21.562,24.076v-6.372h1.925l1.158,4.348l1.143-4.348h1.931v6.372
		h-1.197V19.06l-1.265,5.016h-1.238l-1.26-5.016v5.016H21.562L21.562,24.076z M16.187,24.076v-6.372h4.723v1.078h-3.438v1.413h3.199
		v1.076h-3.199v1.73h3.56v1.075H16.187L16.187,24.076z M11.594,20.398h0.952c0.616,0,1.003-0.025,1.156-0.077
		c0.153-0.053,0.273-0.143,0.361-0.271c0.086-0.125,0.129-0.286,0.129-0.479c0-0.213-0.055-0.386-0.169-0.518
		c-0.116-0.132-0.276-0.216-0.487-0.25c-0.104-0.014-0.417-0.022-0.938-0.022h-1.003V20.398L11.594,20.398z M10.307,24.076v-6.372
		h2.709c0.681,0,1.175,0.057,1.484,0.171c0.308,0.116,0.554,0.319,0.74,0.61c0.185,0.293,0.278,0.627,0.278,1.005
		c0,0.479-0.142,0.873-0.421,1.185c-0.281,0.311-0.702,0.508-1.261,0.589c0.278,0.16,0.508,0.339,0.688,0.533
		c0.182,0.195,0.425,0.54,0.733,1.036l0.777,1.242h-1.538l-0.93-1.387c-0.33-0.495-0.557-0.809-0.679-0.937
		c-0.12-0.129-0.25-0.217-0.385-0.265c-0.137-0.049-0.353-0.072-0.649-0.072h-0.259v2.66H10.307L10.307,24.076z M6.888,21.734V20.66
		H9.66v2.538c-0.27,0.262-0.66,0.49-1.17,0.689c-0.512,0.199-1.032,0.298-1.556,0.298c-0.665,0-1.246-0.14-1.742-0.418
		c-0.496-0.282-0.868-0.681-1.115-1.2c-0.25-0.521-0.375-1.088-0.375-1.699c0-0.661,0.139-1.253,0.417-1.768
		c0.279-0.515,0.686-0.911,1.221-1.187c0.409-0.211,0.918-0.317,1.527-0.317c0.791,0,1.409,0.166,1.853,0.498
		c0.443,0.331,0.729,0.79,0.858,1.375L8.3,19.708c-0.09-0.313-0.258-0.559-0.506-0.742c-0.248-0.18-0.558-0.27-0.927-0.27
		c-0.564,0-1.009,0.177-1.342,0.536c-0.333,0.354-0.498,0.885-0.498,1.584c0,0.757,0.168,1.325,0.504,1.703
		c0.335,0.378,0.775,0.565,1.322,0.565c0.269,0,0.538-0.051,0.81-0.156c0.271-0.108,0.504-0.236,0.698-0.386v-0.808H6.888
		L6.888,21.734z M17.122,17.019h1.039l0.452-0.608l0.454,0.608h1.039l-0.853-1.204h-1.28L17.122,17.019L17.122,17.019z"/>
</g>
</svg>
