<?xml version="1.0" encoding="utf-8"?>
<!-- Generator: Adobe Illustrator 16.0.0, SVG Export Plug-In . SVG Version: 6.00 Build 0)  -->
<!DOCTYPE svg PUBLIC "-//W3C//DTD SVG 1.1//EN" "http://www.w3.org/Graphics/SVG/1.1/DTD/svg11.dtd">
<svg version="1.1" id="Camada_1" xmlns="http://www.w3.org/2000/svg" xmlns:xlink="http://www.w3.org/1999/xlink" x="0px" y="0px"
	 width="40px" height="40px" viewBox="0 0 40 40" enable-background="new 0 0 40 40" xml:space="preserve">
<g>
	<circle fill="#13181D" cx="20.125" cy="19.938" r="19.132"/>
	<linearGradient id="SVGID_1_" gradientUnits="userSpaceOnUse" x1="2.4136" y1="20.0972" x2="37.8359" y2="20.0972">
		<stop  offset="0" style="stop-color:#39BFF0"/>
		<stop  offset="0.2322" style="stop-color:#38BDEF"/>
		<stop  offset="0.3968" style="stop-color:#36B8EB"/>
		<stop  offset="0.5406" style="stop-color:#34AFE5"/>
		<stop  offset="0.6724" style="stop-color:#31A2DC"/>
		<stop  offset="0.7961" style="stop-color:#3091D0"/>
		<stop  offset="0.912" style="stop-color:#327CC0"/>
		<stop  offset="1" style="stop-color:#3668B1"/>
	</linearGradient>
	
		<path fill-rule="evenodd" clip-rule="evenodd" fill="none" stroke="url(#SVGID_1_)" stroke-width="0.5079" stroke-miterlimit="10" d="
		M20.181,2.532c9.615,0.027,17.431,7.94,17.401,17.616c-0.028,9.674-7.895,17.541-17.51,17.514
		C10.455,37.633,2.638,29.72,2.667,20.043C2.699,10.37,10.566,2.502,20.181,2.532L20.181,2.532z"/>
	<linearGradient id="SVGID_2_" gradientUnits="userSpaceOnUse" x1="12.0713" y1="14.751" x2="18.1841" y2="14.751">
		<stop  offset="0" style="stop-color:#39BFF0"/>
		<stop  offset="0.2322" style="stop-color:#38BDEF"/>
		<stop  offset="0.3968" style="stop-color:#36B8EB"/>
		<stop  offset="0.5406" style="stop-color:#34AFE5"/>
		<stop  offset="0.6724" style="stop-color:#31A2DC"/>
		<stop  offset="0.7961" style="stop-color:#3091D0"/>
		<stop  offset="0.912" style="stop-color:#327CC0"/>
		<stop  offset="1" style="stop-color:#3668B1"/>
	</linearGradient>
	<path fill-rule="evenodd" clip-rule="evenodd" fill="url(#SVGID_2_)" d="M18.184,8.531l-0.005,1.937
		c-4.481,0.415-3.915,5.655-0.095,6.853l-0.005,3.65c-4.058-1.17-6.294-3.497-5.977-6.954C12.401,10.378,14.854,8.995,18.184,8.531
		L18.184,8.531z"/>
	<linearGradient id="SVGID_3_" gradientUnits="userSpaceOnUse" x1="9.3936" y1="26.7422" x2="18.0454" y2="26.7422">
		<stop  offset="0" style="stop-color:#39BFF0"/>
		<stop  offset="0.2322" style="stop-color:#38BDEF"/>
		<stop  offset="0.3968" style="stop-color:#36B8EB"/>
		<stop  offset="0.5406" style="stop-color:#34AFE5"/>
		<stop  offset="0.6724" style="stop-color:#31A2DC"/>
		<stop  offset="0.7961" style="stop-color:#3091D0"/>
		<stop  offset="0.912" style="stop-color:#327CC0"/>
		<stop  offset="1" style="stop-color:#3668B1"/>
	</linearGradient>
	<path fill-rule="evenodd" clip-rule="evenodd" fill="url(#SVGID_3_)" d="M18.045,29.789c-1.221-0.295-2.18-1.042-3.212-2.451
		c1.313-0.436,1.767-2.058,2.29-3.296c0.063-1.184-0.366-2.049-1.876-2.209c-3.126,0.461-1.803,5.411-5.854,5.611
		c0.021,0.376,0.043,0.749,0.065,1.122l1.739-0.035c2.253,1.85,4.397,2.949,6.842,3.119L18.045,29.789L18.045,29.789z"/>
	<linearGradient id="SVGID_4_" gradientUnits="userSpaceOnUse" x1="16.8896" y1="32.0547" x2="24.126" y2="32.0547">
		<stop  offset="0" style="stop-color:#39BFF0"/>
		<stop  offset="0.2322" style="stop-color:#38BDEF"/>
		<stop  offset="0.3968" style="stop-color:#36B8EB"/>
		<stop  offset="0.5406" style="stop-color:#34AFE5"/>
		<stop  offset="0.6724" style="stop-color:#31A2DC"/>
		<stop  offset="0.7961" style="stop-color:#3091D0"/>
		<stop  offset="0.912" style="stop-color:#327CC0"/>
		<stop  offset="1" style="stop-color:#3668B1"/>
	</linearGradient>
	<path fill-rule="evenodd" clip-rule="evenodd" fill="url(#SVGID_4_)" d="M18.791,28.749c1.07,0.202,2.138,0.22,3.207,0.057
		l-0.01,4.155c0.557,0.544,1.442,0.799,2.138,0.597c-0.068,0.879-0.597,1.368-1.31,1.499c-0.525-0.016-1.178-0.169-1.563-0.603
		l-0.797,0.907l-0.69-0.905c-0.357,0.393-0.852,0.579-1.389,0.599c-0.995-0.274-1.551-0.824-1.482-1.513
		c0.866,0.116,1.531,0.004,1.892-0.537L18.791,28.749L18.791,28.749z"/>
	<linearGradient id="SVGID_5_" gradientUnits="userSpaceOnUse" x1="16.0225" y1="26.7637" x2="25.6338" y2="26.7637">
		<stop  offset="0" style="stop-color:#39BFF0"/>
		<stop  offset="0.2322" style="stop-color:#38BDEF"/>
		<stop  offset="0.3968" style="stop-color:#36B8EB"/>
		<stop  offset="0.5406" style="stop-color:#34AFE5"/>
		<stop  offset="0.6724" style="stop-color:#31A2DC"/>
		<stop  offset="0.7961" style="stop-color:#3091D0"/>
		<stop  offset="0.912" style="stop-color:#327CC0"/>
		<stop  offset="1" style="stop-color:#3668B1"/>
	</linearGradient>
	<path fill-rule="evenodd" clip-rule="evenodd" fill="url(#SVGID_5_)" d="M17.117,25.543c-0.151,0.72-0.574,1.371-1.094,1.997
		c2.877,0.887,5.7,0.83,9.23-0.237c0.534-0.504,0.345-1.289,0.361-1.935C22.896,26.118,19.852,26.261,17.117,25.543L17.117,25.543z"
		/>
	<linearGradient id="SVGID_6_" gradientUnits="userSpaceOnUse" x1="18.8042" y1="19.9385" x2="22.0684" y2="19.9385">
		<stop  offset="0" style="stop-color:#39BFF0"/>
		<stop  offset="0.2322" style="stop-color:#38BDEF"/>
		<stop  offset="0.3968" style="stop-color:#36B8EB"/>
		<stop  offset="0.5406" style="stop-color:#34AFE5"/>
		<stop  offset="0.6724" style="stop-color:#31A2DC"/>
		<stop  offset="0.7961" style="stop-color:#3091D0"/>
		<stop  offset="0.912" style="stop-color:#327CC0"/>
		<stop  offset="1" style="stop-color:#3668B1"/>
	</linearGradient>
	<path fill-rule="evenodd" clip-rule="evenodd" fill="url(#SVGID_6_)" d="M18.837,14.523l3.231-0.012l-0.057,10.631
		c-1.017,0.263-2.073,0.334-3.208-0.012C18.804,25.131,18.837,14.322,18.837,14.523L18.837,14.523z"/>
	<linearGradient id="SVGID_7_" gradientUnits="userSpaceOnUse" x1="22.7109" y1="25.4639" x2="29.5195" y2="25.4639">
		<stop  offset="0" style="stop-color:#39BFF0"/>
		<stop  offset="0.2322" style="stop-color:#38BDEF"/>
		<stop  offset="0.3968" style="stop-color:#36B8EB"/>
		<stop  offset="0.5406" style="stop-color:#34AFE5"/>
		<stop  offset="0.6724" style="stop-color:#31A2DC"/>
		<stop  offset="0.7961" style="stop-color:#3091D0"/>
		<stop  offset="0.912" style="stop-color:#327CC0"/>
		<stop  offset="1" style="stop-color:#3668B1"/>
	</linearGradient>
	<path fill-rule="evenodd" clip-rule="evenodd" fill="url(#SVGID_7_)" d="M22.785,18.963l-0.01,3.794
		c2.134,0.737,3.254,1.521,3.27,3.202c0.114,1.664-1.526,2.937-3.328,3.646l-0.006,2.36c3.35,0.02,6.541-2.778,6.809-6.095
		C29.254,22.694,28.562,20.977,22.785,18.963L22.785,18.963z"/>
	<linearGradient id="SVGID_8_" gradientUnits="userSpaceOnUse" x1="29.9053" y1="23.8613" x2="32.085" y2="23.8613">
		<stop  offset="0" style="stop-color:#39BFF0"/>
		<stop  offset="0.2322" style="stop-color:#38BDEF"/>
		<stop  offset="0.3968" style="stop-color:#36B8EB"/>
		<stop  offset="0.5406" style="stop-color:#34AFE5"/>
		<stop  offset="0.6724" style="stop-color:#31A2DC"/>
		<stop  offset="0.7961" style="stop-color:#3091D0"/>
		<stop  offset="0.912" style="stop-color:#327CC0"/>
		<stop  offset="1" style="stop-color:#3668B1"/>
	</linearGradient>
	<path fill-rule="evenodd" clip-rule="evenodd" fill="url(#SVGID_8_)" d="M29.905,23.579c0.401,0.402,0.483,0.867,0.421,1.361
		c0.817-0.312,1.404-0.764,1.759-1.355l-1.088-0.803C30.726,23.138,30.361,23.406,29.905,23.579L29.905,23.579z"/>
	<linearGradient id="SVGID_9_" gradientUnits="userSpaceOnUse" x1="22.8135" y1="12.8584" x2="28.5498" y2="12.8584">
		<stop  offset="0" style="stop-color:#39BFF0"/>
		<stop  offset="0.2322" style="stop-color:#38BDEF"/>
		<stop  offset="0.3968" style="stop-color:#36B8EB"/>
		<stop  offset="0.5406" style="stop-color:#34AFE5"/>
		<stop  offset="0.6724" style="stop-color:#31A2DC"/>
		<stop  offset="0.7961" style="stop-color:#3091D0"/>
		<stop  offset="0.912" style="stop-color:#327CC0"/>
		<stop  offset="1" style="stop-color:#3668B1"/>
	</linearGradient>
	<path fill-rule="evenodd" clip-rule="evenodd" fill="url(#SVGID_9_)" d="M23.843,16.726c0.344,0.553,1.478,0.813,2.071,0.386
		c-0.032-2.22,1.366-5.109,2.636-5.648l-0.188-1.001c-0.594-0.132-1.154-0.132-1.686-0.004c-1.081-1.043-2.323-1.731-3.725-2.066
		l-0.138,2.174c0.87,0.189,1.33,0.429,1.69,1.065C24.863,12.659,24.514,14.504,23.843,16.726L23.843,16.726z"/>
	<linearGradient id="SVGID_10_" gradientUnits="userSpaceOnUse" x1="16.9009" y1="8.0908" x2="24.2725" y2="8.0908">
		<stop  offset="0" style="stop-color:#39BFF0"/>
		<stop  offset="0.2322" style="stop-color:#38BDEF"/>
		<stop  offset="0.3968" style="stop-color:#36B8EB"/>
		<stop  offset="0.5406" style="stop-color:#34AFE5"/>
		<stop  offset="0.6724" style="stop-color:#31A2DC"/>
		<stop  offset="0.7961" style="stop-color:#3091D0"/>
		<stop  offset="0.912" style="stop-color:#327CC0"/>
		<stop  offset="1" style="stop-color:#3668B1"/>
	</linearGradient>
	<path fill-rule="evenodd" clip-rule="evenodd" fill="url(#SVGID_10_)" d="M16.901,7.026c0.131-0.852,0.542-1.473,1.568-1.597
		c0.188-0.177,1.168,0.25,1.39,0.527l0.73-1.021l0.754,1.004c0.185-0.296,0.709-0.513,1.432-0.564
		c1.182,0.186,1.394,0.771,1.498,1.559c-0.62-0.362-1.084-0.372-1.944,0.107l-0.013,4.205l-3.468-0.01l0.011-4.204
		C18.239,6.639,17.583,6.635,16.901,7.026L16.901,7.026z"/>
	<linearGradient id="SVGID_11_" gradientUnits="userSpaceOnUse" x1="26.9707" y1="15.1553" x2="31.1221" y2="15.1553">
		<stop  offset="0" style="stop-color:#39BFF0"/>
		<stop  offset="0.2322" style="stop-color:#38BDEF"/>
		<stop  offset="0.3968" style="stop-color:#36B8EB"/>
		<stop  offset="0.5406" style="stop-color:#34AFE5"/>
		<stop  offset="0.6724" style="stop-color:#31A2DC"/>
		<stop  offset="0.7961" style="stop-color:#3091D0"/>
		<stop  offset="0.912" style="stop-color:#327CC0"/>
		<stop  offset="1" style="stop-color:#3668B1"/>
	</linearGradient>
	<path fill-rule="evenodd" clip-rule="evenodd" fill="url(#SVGID_11_)" d="M27.691,13.205c-0.762,0.912-0.882,1.619-0.536,2.058
		c1.829,0.951,2.985,1.819,3.473,2.607l0.494-0.381c-0.69-2.489-0.78-3.729-0.055-4.537l-1.029-0.511
		C29.562,13.167,28.398,13.676,27.691,13.205L27.691,13.205z"/>
	<linearGradient id="SVGID_12_" gradientUnits="userSpaceOnUse" x1="15.6753" y1="13.002" x2="24.1895" y2="13.002">
		<stop  offset="0" style="stop-color:#39BFF0"/>
		<stop  offset="0.2322" style="stop-color:#38BDEF"/>
		<stop  offset="0.3968" style="stop-color:#36B8EB"/>
		<stop  offset="0.5406" style="stop-color:#34AFE5"/>
		<stop  offset="0.6724" style="stop-color:#31A2DC"/>
		<stop  offset="0.7961" style="stop-color:#3091D0"/>
		<stop  offset="0.912" style="stop-color:#327CC0"/>
		<stop  offset="1" style="stop-color:#3668B1"/>
	</linearGradient>
	<path fill-rule="evenodd" clip-rule="evenodd" fill="url(#SVGID_12_)" d="M23.956,11.986c-2.508-0.289-4.389-0.292-7.526-0.022
		c-0.628,0.28-0.945,1.124-0.633,2.249c3.136-0.271,5.961-0.543,8.152,0.025C24.267,13.394,24.271,12.269,23.956,11.986
		L23.956,11.986z"/>
	<linearGradient id="SVGID_13_" gradientUnits="userSpaceOnUse" x1="5.6382" y1="19.9839" x2="12.5996" y2="19.9839">
		<stop  offset="0" style="stop-color:#39BFF0"/>
		<stop  offset="0.2322" style="stop-color:#38BDEF"/>
		<stop  offset="0.3968" style="stop-color:#36B8EB"/>
		<stop  offset="0.5406" style="stop-color:#34AFE5"/>
		<stop  offset="0.6724" style="stop-color:#31A2DC"/>
		<stop  offset="0.7961" style="stop-color:#3091D0"/>
		<stop  offset="0.912" style="stop-color:#327CC0"/>
		<stop  offset="1" style="stop-color:#3668B1"/>
	</linearGradient>
	<path fill-rule="evenodd" clip-rule="evenodd" fill="url(#SVGID_13_)" d="M11.396,14.417c0.132,0.859,0.175,1.961,0.675,2.578
		c-0.734,1.122-1.188,2.152-1.192,3.035c0.05,1.133,0.821,2.148,1.721,3.041c-0.231,1.042-0.736,1.854-1.419,2.48
		c-3.279-0.898-3.267-4.549-5.542-5.538C7.457,19.236,8.467,15.282,11.396,14.417L11.396,14.417z"/>
	<linearGradient id="SVGID_14_" gradientUnits="userSpaceOnUse" x1="0.6992" y1="20.0005" x2="39.3008" y2="20.0005">
		<stop  offset="0" style="stop-color:#39BFF0"/>
		<stop  offset="0.2322" style="stop-color:#38BDEF"/>
		<stop  offset="0.3968" style="stop-color:#36B8EB"/>
		<stop  offset="0.5406" style="stop-color:#34AFE5"/>
		<stop  offset="0.6724" style="stop-color:#31A2DC"/>
		<stop  offset="0.7961" style="stop-color:#3091D0"/>
		<stop  offset="0.912" style="stop-color:#327CC0"/>
		<stop  offset="1" style="stop-color:#3668B1"/>
	</linearGradient>
	<path fill="url(#SVGID_14_)" d="M20,0.806L20,0.806c5.315,0,10.139,2.156,13.636,5.632c3.497,3.478,5.665,8.276,5.665,13.561v0.002
		l0,0c0,5.287-2.168,10.084-5.665,13.563c-3.497,3.473-8.32,5.632-13.634,5.632H20l0,0c-5.314,0-10.139-2.159-13.636-5.636
		c-3.496-3.475-5.664-8.271-5.665-13.559l0,0l0,0c0-5.287,2.169-10.085,5.665-13.563c3.497-3.476,8.322-5.632,13.634-5.632H20
		L20,0.806z M20,1.321L20,1.321h-0.001c-5.173,0-9.87,2.098-13.273,5.481c-3.401,3.382-5.51,8.053-5.51,13.198l0,0l0,0
		c0,5.144,2.108,9.813,5.51,13.196c3.404,3.384,8.1,5.481,13.275,5.481l0,0h0.001c5.172,0,9.87-2.098,13.272-5.479
		c3.402-3.385,5.513-8.055,5.513-13.198l0,0v-0.002c0-5.144-2.11-9.814-5.513-13.196C29.871,3.419,25.174,1.321,20,1.321L20,1.321z"
		/>
</g>
</svg>
