<?xml version="1.0" encoding="utf-8"?>
<!-- Generator: Adobe Illustrator 16.0.0, SVG Export Plug-In . SVG Version: 6.00 Build 0)  -->
<!DOCTYPE svg PUBLIC "-//W3C//DTD SVG 1.1//EN" "http://www.w3.org/Graphics/SVG/1.1/DTD/svg11.dtd">
<svg version="1.1" id="Camada_1" xmlns="http://www.w3.org/2000/svg" xmlns:xlink="http://www.w3.org/1999/xlink" x="0px" y="0px"
	 width="40px" height="40px" viewBox="0 0 40 40" enable-background="new 0 0 40 40" xml:space="preserve">
<g>
	<linearGradient id="SVGID_1_" gradientUnits="userSpaceOnUse" x1="0.9609" y1="20" x2="39.0391" y2="20">
		<stop  offset="0" style="stop-color:#13181D"/>
		<stop  offset="0.292" style="stop-color:#13181E"/>
		<stop  offset="0.6533" style="stop-color:#13181E"/>
		<stop  offset="1" style="stop-color:#12181E"/>
	</linearGradient>
	<path fill-rule="evenodd" clip-rule="evenodd" fill="url(#SVGID_1_)" d="M0.961,39.033L0.961,39.033L0.961,39.033L0.961,39.033z
		 M20.007,39.023c10.486,0,19.032-8.548,19.032-19.033c0-10.478-8.546-19.024-19.032-19.024c-10.481,0-19.024,8.547-19.024,19.024
		C0.983,30.476,9.526,39.023,20.007,39.023L20.007,39.023z"/>
	<linearGradient id="SVGID_2_" gradientUnits="userSpaceOnUse" x1="1.5996" y1="19.9941" x2="38.4229" y2="19.9941">
		<stop  offset="0" style="stop-color:#39BFF0"/>
		<stop  offset="0.2322" style="stop-color:#38BDEF"/>
		<stop  offset="0.3968" style="stop-color:#36B8EB"/>
		<stop  offset="0.5406" style="stop-color:#34AFE5"/>
		<stop  offset="0.6724" style="stop-color:#31A2DC"/>
		<stop  offset="0.7961" style="stop-color:#3091D0"/>
		<stop  offset="0.912" style="stop-color:#327CC0"/>
		<stop  offset="1" style="stop-color:#3668B1"/>
	</linearGradient>
	<path fill-rule="evenodd" clip-rule="evenodd" fill="url(#SVGID_2_)" d="M20.007,38.405c-5.066,0-9.658-2.07-13.006-5.405
		C3.671,29.657,1.6,25.059,1.6,19.991c0-5.06,2.071-9.657,5.401-13.002c3.348-3.334,7.94-5.406,13.006-5.406
		c5.068,0,9.68,2.072,13.01,5.406c3.334,3.345,5.406,7.942,5.406,13.002c0,5.068-2.072,9.667-5.406,13.009
		C29.687,36.335,25.075,38.405,20.007,38.405L20.007,38.405z"/>
	<linearGradient id="SVGID_3_" gradientUnits="userSpaceOnUse" x1="1.98" y1="19.9946" x2="38.042" y2="19.9946">
		<stop  offset="0" style="stop-color:#13181D"/>
		<stop  offset="0.292" style="stop-color:#13181E"/>
		<stop  offset="0.6533" style="stop-color:#13181E"/>
		<stop  offset="1" style="stop-color:#12181E"/>
	</linearGradient>
	<path fill-rule="evenodd" clip-rule="evenodd" fill="url(#SVGID_3_)" d="M20.007,38.025c4.968,0,9.478-2.032,12.743-5.3
		c3.259-3.257,5.292-7.777,5.292-12.735c0-4.95-2.033-9.469-5.292-12.727c-3.266-3.268-7.775-5.3-12.743-5.3
		c-4.948,0-9.455,2.032-12.728,5.3c-3.27,3.258-5.299,7.777-5.299,12.727c0,4.958,2.029,9.478,5.299,12.735
		C10.552,35.993,15.059,38.025,20.007,38.025L20.007,38.025z"/>
	<linearGradient id="SVGID_4_" gradientUnits="userSpaceOnUse" x1="9.0098" y1="7.7002" x2="10.4751" y2="7.7002">
		<stop  offset="0" style="stop-color:#39BFF0"/>
		<stop  offset="0.2322" style="stop-color:#38BDEF"/>
		<stop  offset="0.3968" style="stop-color:#36B8EB"/>
		<stop  offset="0.5406" style="stop-color:#34AFE5"/>
		<stop  offset="0.6724" style="stop-color:#31A2DC"/>
		<stop  offset="0.7961" style="stop-color:#3091D0"/>
		<stop  offset="0.912" style="stop-color:#327CC0"/>
		<stop  offset="1" style="stop-color:#3668B1"/>
	</linearGradient>
	<polygon fill-rule="evenodd" clip-rule="evenodd" fill="url(#SVGID_4_)" points="10.287,7.077 10.056,7.591 10.475,7.973 
		9.906,7.909 9.68,8.426 9.554,7.872 9.01,7.808 9.492,7.529 9.376,6.975 9.791,7.356 10.287,7.077 	"/>
	<linearGradient id="SVGID_5_" gradientUnits="userSpaceOnUse" x1="7.5308" y1="9.4854" x2="9.3999" y2="9.4854">
		<stop  offset="0" style="stop-color:#39BFF0"/>
		<stop  offset="0.2322" style="stop-color:#38BDEF"/>
		<stop  offset="0.3968" style="stop-color:#36B8EB"/>
		<stop  offset="0.5406" style="stop-color:#34AFE5"/>
		<stop  offset="0.6724" style="stop-color:#31A2DC"/>
		<stop  offset="0.7961" style="stop-color:#3091D0"/>
		<stop  offset="0.912" style="stop-color:#327CC0"/>
		<stop  offset="1" style="stop-color:#3668B1"/>
	</linearGradient>
	<polygon fill-rule="evenodd" clip-rule="evenodd" fill="url(#SVGID_5_)" points="9.01,8.588 8.809,9.274 9.4,9.678 8.683,9.701 
		8.494,10.382 8.239,9.727 7.531,9.741 8.088,9.312 7.849,8.628 8.441,9.032 9.01,8.588 	"/>
	<linearGradient id="SVGID_6_" gradientUnits="userSpaceOnUse" x1="6.2827" y1="11.9355" x2="8.4653" y2="11.9355">
		<stop  offset="0" style="stop-color:#39BFF0"/>
		<stop  offset="0.2322" style="stop-color:#38BDEF"/>
		<stop  offset="0.3968" style="stop-color:#36B8EB"/>
		<stop  offset="0.5406" style="stop-color:#34AFE5"/>
		<stop  offset="0.6724" style="stop-color:#31A2DC"/>
		<stop  offset="0.7961" style="stop-color:#3091D0"/>
		<stop  offset="0.912" style="stop-color:#327CC0"/>
		<stop  offset="1" style="stop-color:#3668B1"/>
	</linearGradient>
	<polygon fill-rule="evenodd" clip-rule="evenodd" fill="url(#SVGID_6_)" points="7.662,10.801 7.631,11.672 8.465,11.948 
		7.623,12.212 7.623,13.069 7.103,12.377 6.283,12.617 6.798,11.938 6.298,11.206 7.13,11.496 7.662,10.801 	"/>
	<linearGradient id="SVGID_7_" gradientUnits="userSpaceOnUse" x1="4.8574" y1="15.208" x2="8.1763" y2="15.208">
		<stop  offset="0" style="stop-color:#39BFF0"/>
		<stop  offset="0.2322" style="stop-color:#38BDEF"/>
		<stop  offset="0.3968" style="stop-color:#36B8EB"/>
		<stop  offset="0.5406" style="stop-color:#34AFE5"/>
		<stop  offset="0.6724" style="stop-color:#31A2DC"/>
		<stop  offset="0.7961" style="stop-color:#3091D0"/>
		<stop  offset="0.912" style="stop-color:#327CC0"/>
		<stop  offset="1" style="stop-color:#3668B1"/>
	</linearGradient>
	<polygon fill-rule="evenodd" clip-rule="evenodd" fill="url(#SVGID_7_)" points="6.688,13.567 6.914,14.814 8.176,14.993 
		7.04,15.595 7.265,16.848 6.346,15.976 5.223,16.568 5.777,15.432 4.857,14.526 6.133,14.698 6.688,13.567 	"/>
	<linearGradient id="SVGID_8_" gradientUnits="userSpaceOnUse" x1="29.5469" y1="7.7002" x2="31.0205" y2="7.7002">
		<stop  offset="0" style="stop-color:#39BFF0"/>
		<stop  offset="0.2322" style="stop-color:#38BDEF"/>
		<stop  offset="0.3968" style="stop-color:#36B8EB"/>
		<stop  offset="0.5406" style="stop-color:#34AFE5"/>
		<stop  offset="0.6724" style="stop-color:#31A2DC"/>
		<stop  offset="0.7961" style="stop-color:#3091D0"/>
		<stop  offset="0.912" style="stop-color:#327CC0"/>
		<stop  offset="1" style="stop-color:#3668B1"/>
	</linearGradient>
	<polygon fill-rule="evenodd" clip-rule="evenodd" fill="url(#SVGID_8_)" points="29.734,7.077 29.977,7.591 29.547,7.973 
		30.116,7.909 30.343,8.426 30.468,7.872 31.021,7.808 30.53,7.529 30.656,6.975 30.227,7.356 29.734,7.077 	"/>
	<linearGradient id="SVGID_9_" gradientUnits="userSpaceOnUse" x1="30.6162" y1="9.4854" x2="32.4873" y2="9.4854">
		<stop  offset="0" style="stop-color:#39BFF0"/>
		<stop  offset="0.2322" style="stop-color:#38BDEF"/>
		<stop  offset="0.3968" style="stop-color:#36B8EB"/>
		<stop  offset="0.5406" style="stop-color:#34AFE5"/>
		<stop  offset="0.6724" style="stop-color:#31A2DC"/>
		<stop  offset="0.7961" style="stop-color:#3091D0"/>
		<stop  offset="0.912" style="stop-color:#327CC0"/>
		<stop  offset="1" style="stop-color:#3668B1"/>
	</linearGradient>
	<polygon fill-rule="evenodd" clip-rule="evenodd" fill="url(#SVGID_9_)" points="31.021,8.588 31.213,9.274 30.616,9.678 
		31.34,9.701 31.526,10.382 31.777,9.727 32.487,9.741 31.932,9.312 32.172,8.628 31.581,9.032 31.021,8.588 	"/>
	<linearGradient id="SVGID_10_" gradientUnits="userSpaceOnUse" x1="31.5654" y1="11.9355" x2="33.7383" y2="11.9355">
		<stop  offset="0" style="stop-color:#39BFF0"/>
		<stop  offset="0.2322" style="stop-color:#38BDEF"/>
		<stop  offset="0.3968" style="stop-color:#36B8EB"/>
		<stop  offset="0.5406" style="stop-color:#34AFE5"/>
		<stop  offset="0.6724" style="stop-color:#31A2DC"/>
		<stop  offset="0.7961" style="stop-color:#3091D0"/>
		<stop  offset="0.912" style="stop-color:#327CC0"/>
		<stop  offset="1" style="stop-color:#3668B1"/>
	</linearGradient>
	<polygon fill-rule="evenodd" clip-rule="evenodd" fill="url(#SVGID_10_)" points="32.376,10.801 32.386,11.672 31.565,11.948 
		32.398,12.212 32.409,13.069 32.915,12.377 33.738,12.617 33.219,11.938 33.724,11.206 32.89,11.496 32.376,10.801 	"/>
	<linearGradient id="SVGID_11_" gradientUnits="userSpaceOnUse" x1="31.8438" y1="15.208" x2="35.1758" y2="15.208">
		<stop  offset="0" style="stop-color:#39BFF0"/>
		<stop  offset="0.2322" style="stop-color:#38BDEF"/>
		<stop  offset="0.3968" style="stop-color:#36B8EB"/>
		<stop  offset="0.5406" style="stop-color:#34AFE5"/>
		<stop  offset="0.6724" style="stop-color:#31A2DC"/>
		<stop  offset="0.7961" style="stop-color:#3091D0"/>
		<stop  offset="0.912" style="stop-color:#327CC0"/>
		<stop  offset="1" style="stop-color:#3668B1"/>
	</linearGradient>
	<polygon fill-rule="evenodd" clip-rule="evenodd" fill="url(#SVGID_11_)" points="33.335,13.567 33.117,14.814 31.844,14.993 
		32.978,15.595 32.75,16.848 33.687,15.976 34.801,16.568 34.24,15.432 35.176,14.526 33.889,14.698 33.335,13.567 	"/>
	<linearGradient id="SVGID_12_" gradientUnits="userSpaceOnUse" x1="7.4873" y1="28.3086" x2="14.7783" y2="28.3086">
		<stop  offset="0" style="stop-color:#39BFF0"/>
		<stop  offset="0.2322" style="stop-color:#38BDEF"/>
		<stop  offset="0.3968" style="stop-color:#36B8EB"/>
		<stop  offset="0.5406" style="stop-color:#34AFE5"/>
		<stop  offset="0.6724" style="stop-color:#31A2DC"/>
		<stop  offset="0.7961" style="stop-color:#3091D0"/>
		<stop  offset="0.912" style="stop-color:#327CC0"/>
		<stop  offset="1" style="stop-color:#3668B1"/>
	</linearGradient>
	<path fill-rule="evenodd" clip-rule="evenodd" fill="url(#SVGID_12_)" d="M13.732,22.612c-0.039-0.026-0.116-0.026-0.154,0.013
		l-6.047,8.014c-0.072,0.102-0.048,0.24,0.028,0.333c1.037,1.132,2.096,2.091,3.331,2.962c0.075,0.055,0.217,0.166,0.28,0.016
		l0.645-1.519c0.034-0.087,0.01-0.211-0.062-0.266c-0.646-0.426-1.201-0.93-1.745-1.449c-0.077-0.077-0.062-0.266,0-0.365
		l4.761-6.921c0.025-0.023,0-0.087-0.039-0.1C14.372,23.103,14.036,22.867,13.732,22.612L13.732,22.612z"/>
	<linearGradient id="SVGID_13_" gradientUnits="userSpaceOnUse" x1="11.4009" y1="30.3096" x2="19.5239" y2="30.3096">
		<stop  offset="0" style="stop-color:#39BFF0"/>
		<stop  offset="0.2322" style="stop-color:#38BDEF"/>
		<stop  offset="0.3968" style="stop-color:#36B8EB"/>
		<stop  offset="0.5406" style="stop-color:#34AFE5"/>
		<stop  offset="0.6724" style="stop-color:#31A2DC"/>
		<stop  offset="0.7961" style="stop-color:#3091D0"/>
		<stop  offset="0.912" style="stop-color:#327CC0"/>
		<stop  offset="1" style="stop-color:#3668B1"/>
	</linearGradient>
	<path fill-rule="evenodd" clip-rule="evenodd" fill="url(#SVGID_13_)" d="M19.352,36.739c0.086,0,0.086-0.062,0.086-0.116
		l0.086-11.713c0-0.038-0.049-0.076-0.086-0.076c-0.29-0.011-0.592-0.049-0.896-0.089c-0.038-0.016-0.086,0.011-0.114,0.064
		l-1.413,3.257c-0.04,0.076-0.063,0.063-0.078-0.016l-0.11-3.656c0-0.053-0.015-0.077-0.039-0.077
		c-0.351-0.127-0.685-0.265-1.021-0.43c-0.028-0.014-0.077-0.014-0.102,0.039l-4.253,10.234c-0.025,0.053,0,0.116,0.038,0.14
		c0.413,0.265,0.833,0.492,1.263,0.724c0.048,0.023,0.148,0.048,0.173-0.039l2.617-7.323c0.023-0.088,0.048-0.102,0.048,0.013
		l0.115,6.212c0,0.327,0.024,0.327,0.164,0.022l2.486-5.529c0.024-0.073,0.048-0.073,0.04,0.014l-0.646,8.08
		c-0.01,0.049,0.052,0.111,0.101,0.126C18.329,36.678,18.845,36.716,19.352,36.739L19.352,36.739z"/>
	<linearGradient id="SVGID_14_" gradientUnits="userSpaceOnUse" x1="20.064" y1="30.498" x2="25.3066" y2="30.498">
		<stop  offset="0" style="stop-color:#39BFF0"/>
		<stop  offset="0.2322" style="stop-color:#38BDEF"/>
		<stop  offset="0.3968" style="stop-color:#36B8EB"/>
		<stop  offset="0.5406" style="stop-color:#34AFE5"/>
		<stop  offset="0.6724" style="stop-color:#31A2DC"/>
		<stop  offset="0.7961" style="stop-color:#3091D0"/>
		<stop  offset="0.912" style="stop-color:#327CC0"/>
		<stop  offset="1" style="stop-color:#3668B1"/>
	</linearGradient>
	<path fill-rule="evenodd" clip-rule="evenodd" fill="url(#SVGID_14_)" d="M23.61,25.579c-0.53,0.165-1.108,0.313-1.918,0.454
		c-0.038,0-0.086,0.061-0.086,0.114l0.072,3.08c0,0.047,0.038,0.125,0.129,0.114c0.768-0.114,1.527-0.255,2.284-0.419
		c0.102-0.024,0.141,0,0.164,0.141l0.188,1.209c0.015,0.068,0.024,0.153-0.063,0.178c-0.833,0.203-1.676,0.368-2.523,0.491
		c-0.062,0.016-0.14,0.039-0.14,0.155l0.078,3.195c0,0.165,0.1,0.249,0.187,0.236c0.974-0.064,1.946-0.328,2.892-0.568
		c0.063-0.011,0.152-0.034,0.178,0.102l0.25,1.666c0.03,0.092-0.062,0.177-0.174,0.202c-1.59,0.492-3.107,0.786-4.836,0.823
		c-0.126,0-0.227-0.037-0.227-0.153l0.078-11.643c0-0.063,0.11-0.1,0.187-0.1c1.113-0.072,2.048-0.229,3.016-0.594
		c0.116-0.038,0.154-0.024,0.154,0.027l0.188,1.172C23.7,25.541,23.675,25.556,23.61,25.579L23.61,25.579z"/>
	<linearGradient id="SVGID_15_" gradientUnits="userSpaceOnUse" x1="23.8711" y1="29.5762" x2="27.8535" y2="29.5762">
		<stop  offset="0" style="stop-color:#39BFF0"/>
		<stop  offset="0.2322" style="stop-color:#38BDEF"/>
		<stop  offset="0.3968" style="stop-color:#36B8EB"/>
		<stop  offset="0.5406" style="stop-color:#34AFE5"/>
		<stop  offset="0.6724" style="stop-color:#31A2DC"/>
		<stop  offset="0.7961" style="stop-color:#3091D0"/>
		<stop  offset="0.912" style="stop-color:#327CC0"/>
		<stop  offset="1" style="stop-color:#3668B1"/>
	</linearGradient>
	<path fill-rule="evenodd" clip-rule="evenodd" fill="url(#SVGID_15_)" d="M26.088,35.578c-0.04,0.009-0.102,0.009-0.116-0.053
		l-2.097-11.425c-0.01-0.025,0-0.038,0.038-0.048c0.319-0.141,0.632-0.304,0.935-0.468c0.025-0.015,0.088-0.025,0.088,0.008
		l2.905,11.012c0.023,0.087,0.014,0.126-0.023,0.155C27.248,35.058,26.694,35.321,26.088,35.578L26.088,35.578z"/>
	<linearGradient id="SVGID_16_" gradientUnits="userSpaceOnUse" x1="29.0371" y1="20.7241" x2="36.5635" y2="20.7241">
		<stop  offset="0" style="stop-color:#39BFF0"/>
		<stop  offset="0.2322" style="stop-color:#38BDEF"/>
		<stop  offset="0.3968" style="stop-color:#36B8EB"/>
		<stop  offset="0.5406" style="stop-color:#34AFE5"/>
		<stop  offset="0.6724" style="stop-color:#31A2DC"/>
		<stop  offset="0.7961" style="stop-color:#3091D0"/>
		<stop  offset="0.912" style="stop-color:#327CC0"/>
		<stop  offset="1" style="stop-color:#3668B1"/>
	</linearGradient>
	<path fill-rule="evenodd" clip-rule="evenodd" fill="url(#SVGID_16_)" d="M35.215,20.708c-0.078,0.376-0.18,0.728-0.291,1.084
		c-0.015,0.024-0.038,0.087-0.116,0.061l-0.25-0.137c-0.038-0.024-0.086,0.013-0.115,0.036l-0.391,0.975
		c-0.024,0.063-0.024,0.126,0.063,0.188l1.753,1.176c0.063,0.038,0.178,0.049,0.217-0.101c0.343-1.417,0.492-2.818,0.478-4.25
		c0-0.063-0.025-0.126-0.103-0.154l-2.899-1.007c-0.115-0.053-0.288-0.039-0.366,0.111c-0.256,0.492-0.491,0.896-0.719,1.262
		c-0.037,0.04-0.1,0.116-0.201,0.062l-1.427-0.694c-0.067-0.038-0.116-0.072-0.067-0.187l0.231-0.506
		c0.023-0.064,0.11-0.049,0.163-0.025l0.491,0.188c0.05,0.025,0.111,0.025,0.142-0.047l0.226-0.609
		c0.024-0.046-0.054-0.114-0.102-0.139l-1.908-0.655c-0.072-0.023-0.125,0.023-0.15,0.077c-0.215,0.654-0.479,1.262-0.809,1.879
		c-0.062,0.115-0.009,0.201,0.055,0.25l3.608,2.434c0.062,0.039,0.178,0.039,0.24-0.077c0.367-0.579,0.703-1.171,1.035-1.75
		c0.024-0.037,0.063-0.077,0.151-0.037l0.995,0.442C35.199,20.567,35.228,20.616,35.215,20.708L35.215,20.708z"/>
	<linearGradient id="SVGID_17_" gradientUnits="userSpaceOnUse" x1="4.4233" y1="25.6602" x2="12.6655" y2="25.6602">
		<stop  offset="0" style="stop-color:#39BFF0"/>
		<stop  offset="0.2322" style="stop-color:#38BDEF"/>
		<stop  offset="0.3968" style="stop-color:#36B8EB"/>
		<stop  offset="0.5406" style="stop-color:#34AFE5"/>
		<stop  offset="0.6724" style="stop-color:#31A2DC"/>
		<stop  offset="0.7961" style="stop-color:#3091D0"/>
		<stop  offset="0.912" style="stop-color:#327CC0"/>
		<stop  offset="1" style="stop-color:#3668B1"/>
	</linearGradient>
	<path fill-rule="evenodd" clip-rule="evenodd" fill="url(#SVGID_17_)" d="M4.428,25.604c-0.024-0.063,0.046-0.141,0.101-0.179
		l7.295-4.62c0.038-0.025,0.115,0,0.14,0.027c0.217,0.251,0.428,0.502,0.655,0.755c0.029,0.05,0.062,0.112,0.037,0.164l-5.339,8.753
		c-0.039,0.047-0.163,0.009-0.201-0.038C6.9,30.186,6.688,29.921,6.5,29.616c-0.038-0.047-0.028-0.139,0.01-0.187l1.253-2.01
		c0.062-0.109,0.062-0.174,0.023-0.289c-0.217-0.567-0.403-1.122-0.583-1.691c-0.009-0.053-0.124-0.063-0.173-0.037L5.036,26.74
		c-0.055,0.024-0.155,0.009-0.178-0.038C4.707,26.349,4.552,25.971,4.428,25.604L4.428,25.604z M10.389,23.165l-2.072,1.394
		c-0.054,0.021-0.078,0.101-0.054,0.163c0.101,0.367,0.216,0.703,0.356,1.022c0.024,0.086,0.102,0.137,0.149,0.047l1.629-2.61
		C10.413,23.165,10.397,23.154,10.389,23.165L10.389,23.165z"/>
	<linearGradient id="SVGID_18_" gradientUnits="userSpaceOnUse" x1="25.3408" y1="27.8477" x2="33.3389" y2="27.8477">
		<stop  offset="0" style="stop-color:#39BFF0"/>
		<stop  offset="0.2322" style="stop-color:#38BDEF"/>
		<stop  offset="0.3968" style="stop-color:#36B8EB"/>
		<stop  offset="0.5406" style="stop-color:#34AFE5"/>
		<stop  offset="0.6724" style="stop-color:#31A2DC"/>
		<stop  offset="0.7961" style="stop-color:#3091D0"/>
		<stop  offset="0.912" style="stop-color:#327CC0"/>
		<stop  offset="1" style="stop-color:#3668B1"/>
	</linearGradient>
	<path fill-rule="evenodd" clip-rule="evenodd" fill="url(#SVGID_18_)" d="M32.423,31.058c-0.037,0.039-0.101,0.078-0.148,0.016
		l-3.219-3.903c-0.029-0.039-0.077-0.077-0.13-0.039l-0.554,0.392c-0.049,0.038-0.116,0.09-0.079,0.192L30.289,33
		c0.028,0.063,0,0.1-0.039,0.14c-0.516,0.405-1.045,0.786-1.6,1.138c-0.037,0.023-0.1,0.048-0.115-0.015l-3.194-10.92l0.062-0.087
		c0.835-0.543,1.426-0.987,2.086-1.729c0.236-0.264,0.518-0.092,0.633,0.102l2.118,3.493c0.204,0.317,0.189,0.771-0.051,1.063
		l-0.063,0.073l3.17,3.522c0.062,0.063,0.049,0.124,0.01,0.164C33.017,30.341,32.74,30.678,32.423,31.058L32.423,31.058z
		 M28.524,25.299l-0.872-1.714c-0.028-0.063-0.077-0.077-0.139-0.041c-0.188,0.127-0.381,0.291-0.584,0.416
		c-0.023,0.029-0.023,0.054-0.01,0.078l0.719,1.917c0.014,0.03,0.039,0.054,0.077,0.03l0.757-0.546
		C28.51,25.415,28.559,25.362,28.524,25.299L28.524,25.299z"/>
	<linearGradient id="SVGID_19_" gradientUnits="userSpaceOnUse" x1="28.0645" y1="24.8105" x2="35.9355" y2="24.8105">
		<stop  offset="0" style="stop-color:#39BFF0"/>
		<stop  offset="0.2322" style="stop-color:#38BDEF"/>
		<stop  offset="0.3968" style="stop-color:#36B8EB"/>
		<stop  offset="0.5406" style="stop-color:#34AFE5"/>
		<stop  offset="0.6724" style="stop-color:#31A2DC"/>
		<stop  offset="0.7961" style="stop-color:#3091D0"/>
		<stop  offset="0.912" style="stop-color:#327CC0"/>
		<stop  offset="1" style="stop-color:#3668B1"/>
	</linearGradient>
	<path fill-rule="evenodd" clip-rule="evenodd" fill="url(#SVGID_19_)" d="M35.541,25.767c-0.012,0.039-0.039,0.078-0.087,0.054
		l-1.73-1.191c-0.037-0.008-0.085-0.008-0.115,0.03l-0.719,1.817c-0.014,0.047,0,0.1,0.025,0.139l1.2,1.995
		c0.024,0.033,0.024,0.087,0.015,0.111c-0.217,0.342-0.43,0.669-0.656,0.996c-0.014,0.026-0.067,0.039-0.092,0l-5.299-8.813
		c-0.024-0.034-0.024-0.072,0-0.11c0.226-0.283,0.427-0.577,0.63-0.881c0.011-0.023,0.049-0.047,0.086-0.023l7.098,4.566
		c0.024,0.024,0.049,0.064,0.035,0.111C35.821,24.957,35.694,25.362,35.541,25.767L35.541,25.767z M32.409,23.733l-1.957-1.324
		c-0.072-0.049-0.088-0.038-0.048,0.038l1.527,2.541c0.023,0.036,0.088,0.124,0.14,0.009c0.049-0.125,0.314-0.742,0.416-1.1
		C32.501,23.825,32.446,23.771,32.409,23.733L32.409,23.733z"/>
	<linearGradient id="SVGID_20_" gradientUnits="userSpaceOnUse" x1="3.4536" y1="20.4375" x2="11.5503" y2="20.4375">
		<stop  offset="0" style="stop-color:#39BFF0"/>
		<stop  offset="0.2322" style="stop-color:#38BDEF"/>
		<stop  offset="0.3968" style="stop-color:#36B8EB"/>
		<stop  offset="0.5406" style="stop-color:#34AFE5"/>
		<stop  offset="0.6724" style="stop-color:#31A2DC"/>
		<stop  offset="0.7961" style="stop-color:#3091D0"/>
		<stop  offset="0.912" style="stop-color:#327CC0"/>
		<stop  offset="1" style="stop-color:#3668B1"/>
	</linearGradient>
	<path fill-rule="evenodd" clip-rule="evenodd" fill="url(#SVGID_20_)" d="M7.662,22.828c-0.559-0.709-1.051-1.504-1.519-2.37
		C6.104,20.37,6.032,20.37,5.97,20.396l-2.313,0.79c-0.14,0.052-0.164-0.038-0.164-0.102c-0.049-0.54-0.039-1.08-0.039-1.61
		c0-0.125,0.063-0.177,0.141-0.192l6.625-1.311c0.077-0.014,0.139,0.024,0.154,0.063c0.328,0.81,0.707,1.488,1.161,2.212
		c0.037,0.047,0,0.135-0.039,0.164l-3.609,2.468C7.811,22.929,7.733,22.914,7.662,22.828L7.662,22.828z M9.78,20.207
		c-0.202-0.294-0.39-0.593-0.568-0.896c-0.014-0.015-0.037-0.015-0.062,0l-1.706,0.591c-0.078,0.01-0.062,0.064-0.049,0.088
		c0.212,0.428,0.468,0.814,0.757,1.195c0.039,0.052,0.124,0.078,0.173,0.038l1.454-0.969C9.791,20.246,9.791,20.217,9.78,20.207
		L9.78,20.207z"/>
	<linearGradient id="SVGID_21_" gradientUnits="userSpaceOnUse" x1="10.2505" y1="13.6631" x2="29.7666" y2="13.6631">
		<stop  offset="0" style="stop-color:#39BFF0"/>
		<stop  offset="0.2322" style="stop-color:#38BDEF"/>
		<stop  offset="0.3968" style="stop-color:#36B8EB"/>
		<stop  offset="0.5406" style="stop-color:#34AFE5"/>
		<stop  offset="0.6724" style="stop-color:#31A2DC"/>
		<stop  offset="0.7961" style="stop-color:#3091D0"/>
		<stop  offset="0.912" style="stop-color:#327CC0"/>
		<stop  offset="1" style="stop-color:#3668B1"/>
	</linearGradient>
	
		<path fill-rule="evenodd" clip-rule="evenodd" fill="none" stroke="url(#SVGID_21_)" stroke-width="0.2167" stroke-miterlimit="10" d="
		M20.007,23.319c5.309,0,9.651-4.327,9.651-9.651c0-5.315-4.343-9.661-9.651-9.661c-5.315,0-9.648,4.346-9.648,9.661
		C10.359,18.993,14.691,23.319,20.007,23.319L20.007,23.319z"/>
	<linearGradient id="SVGID_22_" gradientUnits="userSpaceOnUse" x1="10.7549" y1="13.6631" x2="29.2676" y2="13.6631">
		<stop  offset="0" style="stop-color:#39BFF0"/>
		<stop  offset="0.2322" style="stop-color:#38BDEF"/>
		<stop  offset="0.3968" style="stop-color:#36B8EB"/>
		<stop  offset="0.5406" style="stop-color:#34AFE5"/>
		<stop  offset="0.6724" style="stop-color:#31A2DC"/>
		<stop  offset="0.7961" style="stop-color:#3091D0"/>
		<stop  offset="0.912" style="stop-color:#327CC0"/>
		<stop  offset="1" style="stop-color:#3668B1"/>
	</linearGradient>
	<path fill-rule="evenodd" clip-rule="evenodd" fill="url(#SVGID_22_)" d="M20.007,22.929c-2.541,0-4.863-1.05-6.54-2.722
		c-1.681-1.667-2.712-3.98-2.712-6.539c0-5.104,4.152-9.27,9.252-9.27c2.544,0,4.855,1.049,6.532,2.728
		c1.682,1.681,2.729,3.988,2.729,6.542C29.268,18.78,25.099,22.929,20.007,22.929L20.007,22.929z"/>
	<linearGradient id="SVGID_23_" gradientUnits="userSpaceOnUse" x1="13.1245" y1="6.2813" x2="19.6582" y2="6.2813">
		<stop  offset="0" style="stop-color:#13181D"/>
		<stop  offset="0.292" style="stop-color:#13181E"/>
		<stop  offset="0.6533" style="stop-color:#13181E"/>
		<stop  offset="1" style="stop-color:#12181E"/>
	</linearGradient>
	<path fill-rule="evenodd" clip-rule="evenodd" fill="url(#SVGID_23_)" d="M17.318,6.387c0.991-0.583,1.783-1.214,2.34-1.715
		c-2.616,0.101-4.948,1.335-6.534,3.219C14.522,7.688,15.935,7.188,17.318,6.387L17.318,6.387z"/>
	<linearGradient id="SVGID_24_" gradientUnits="userSpaceOnUse" x1="20.3682" y1="6.2813" x2="26.8926" y2="6.2813">
		<stop  offset="0" style="stop-color:#13181D"/>
		<stop  offset="0.292" style="stop-color:#13181E"/>
		<stop  offset="0.6533" style="stop-color:#13181E"/>
		<stop  offset="1" style="stop-color:#12181E"/>
	</linearGradient>
	<path fill-rule="evenodd" clip-rule="evenodd" fill="url(#SVGID_24_)" d="M22.699,6.387c1.383,0.801,2.789,1.302,4.193,1.504
		c-0.17-0.199-0.343-0.39-0.531-0.573c-1.556-1.562-3.668-2.55-5.993-2.646C20.917,5.168,21.706,5.804,22.699,6.387L22.699,6.387z"
		/>
	<linearGradient id="SVGID_25_" gradientUnits="userSpaceOnUse" x1="11.0195" y1="15.6348" x2="19.5781" y2="15.6348">
		<stop  offset="0" style="stop-color:#13181D"/>
		<stop  offset="0.292" style="stop-color:#13181E"/>
		<stop  offset="0.6533" style="stop-color:#13181E"/>
		<stop  offset="1" style="stop-color:#12181E"/>
	</linearGradient>
	<path fill-rule="evenodd" clip-rule="evenodd" fill="url(#SVGID_25_)" d="M14.305,16.264c-1.284-2.606-1.927-5.468-1.734-7.645
		c-0.978,1.438-1.551,3.179-1.551,5.049c0,2.486,1.007,4.731,2.636,6.345c1.532,1.533,3.619,2.526,5.923,2.637
		C16.826,20.626,15.197,18.082,14.305,16.264L14.305,16.264z"/>
	<linearGradient id="SVGID_26_" gradientUnits="userSpaceOnUse" x1="20.439" y1="15.6484" x2="29.0029" y2="15.6484">
		<stop  offset="0" style="stop-color:#13181D"/>
		<stop  offset="0.292" style="stop-color:#13181E"/>
		<stop  offset="0.6533" style="stop-color:#13181E"/>
		<stop  offset="1" style="stop-color:#12181E"/>
	</linearGradient>
	<path fill-rule="evenodd" clip-rule="evenodd" fill="url(#SVGID_26_)" d="M27.46,8.647c0.179,2.167-0.468,5.026-1.743,7.617
		c-1.254,2.569-3.07,4.767-5.278,6.386c4.747-0.228,8.564-4.168,8.564-8.982C29.003,11.808,28.433,10.079,27.46,8.647L27.46,8.647z"
		/>
	<linearGradient id="SVGID_27_" gradientUnits="userSpaceOnUse" x1="12.8203" y1="13.6772" x2="27.2061" y2="13.6772">
		<stop  offset="0" style="stop-color:#13181D"/>
		<stop  offset="0.292" style="stop-color:#13181E"/>
		<stop  offset="0.6533" style="stop-color:#13181E"/>
		<stop  offset="1" style="stop-color:#12181E"/>
	</linearGradient>
	<path fill-rule="evenodd" clip-rule="evenodd" fill="url(#SVGID_27_)" d="M20.007,22.625c2.48-1.754,4.272-4.086,5.457-6.486
		c1.442-2.939,1.963-5.932,1.659-7.916c-1.792-0.214-3.334-0.868-4.559-1.591c-1.176-0.693-2.058-1.436-2.558-1.903
		c-0.493,0.467-1.364,1.21-2.541,1.903c-1.224,0.724-2.775,1.364-4.567,1.581c-0.29,1.994,0.212,4.987,1.667,7.926
		C15.738,18.525,17.53,20.871,20.007,22.625L20.007,22.625z"/>
	<linearGradient id="SVGID_28_" gradientUnits="userSpaceOnUse" x1="13.0151" y1="13.6514" x2="27.0068" y2="13.6514">
		<stop  offset="0" style="stop-color:#39BFF0"/>
		<stop  offset="0.2322" style="stop-color:#38BDEF"/>
		<stop  offset="0.3968" style="stop-color:#36B8EB"/>
		<stop  offset="0.5406" style="stop-color:#34AFE5"/>
		<stop  offset="0.6724" style="stop-color:#31A2DC"/>
		<stop  offset="0.7961" style="stop-color:#3091D0"/>
		<stop  offset="0.912" style="stop-color:#327CC0"/>
		<stop  offset="1" style="stop-color:#3668B1"/>
	</linearGradient>
	<path fill-rule="evenodd" clip-rule="evenodd" fill="url(#SVGID_28_)" d="M20.007,22.284c-0.242-0.18-0.483-0.352-0.72-0.546
		c-1.945-1.546-3.412-3.527-4.432-5.56c-1.209-2.422-1.808-4.91-1.84-6.794c0-0.328,0.009-0.67,0.047-0.998
		c0.467-0.047,0.935-0.125,1.402-0.25c0.795-0.189,1.537-0.483,2.221-0.81c1.06-0.516,1.933-1.122,2.539-1.601
		c0.275-0.231,0.54-0.458,0.782-0.708c0.245,0.242,0.5,0.477,0.775,0.694c0.606,0.492,1.479,1.098,2.553,1.614
		c0.767,0.365,1.63,0.693,2.55,0.887c0.353,0.086,0.718,0.14,1.084,0.173c0.023,0.318,0.038,0.622,0.038,0.925
		c-0.015,1.88-0.606,4.403-1.84,6.866c-1.027,2.043-2.5,4.028-4.457,5.589C20.482,21.939,20.242,22.119,20.007,22.284L20.007,22.284
		z"/>
	<linearGradient id="SVGID_29_" gradientUnits="userSpaceOnUse" x1="18.9849" y1="5.8208" x2="21.0371" y2="5.8208">
		<stop  offset="0" style="stop-color:#13181D"/>
		<stop  offset="0.292" style="stop-color:#13181E"/>
		<stop  offset="0.6533" style="stop-color:#13181E"/>
		<stop  offset="1" style="stop-color:#12181E"/>
	</linearGradient>
	<path fill-rule="evenodd" clip-rule="evenodd" fill="url(#SVGID_29_)" d="M21.037,6.257c-0.453-0.342-0.81-0.645-1.03-0.872
		c-0.219,0.227-0.569,0.53-1.022,0.872H21.037L21.037,6.257z"/>
	<linearGradient id="SVGID_30_" gradientUnits="userSpaceOnUse" x1="17.3032" y1="6.9121" x2="22.7139" y2="6.9121">
		<stop  offset="0" style="stop-color:#13181D"/>
		<stop  offset="0.292" style="stop-color:#13181E"/>
		<stop  offset="0.6533" style="stop-color:#13181E"/>
		<stop  offset="1" style="stop-color:#12181E"/>
	</linearGradient>
	<path fill-rule="evenodd" clip-rule="evenodd" fill="url(#SVGID_30_)" d="M22.714,7.304c-0.477-0.252-0.919-0.531-1.301-0.783
		h-2.811c-0.375,0.252-0.818,0.531-1.299,0.783H22.714L22.714,7.304z"/>
	<linearGradient id="SVGID_31_" gradientUnits="userSpaceOnUse" x1="14.6382" y1="7.9658" x2="25.3691" y2="7.9658">
		<stop  offset="0" style="stop-color:#13181D"/>
		<stop  offset="0.292" style="stop-color:#13181E"/>
		<stop  offset="0.6533" style="stop-color:#13181E"/>
		<stop  offset="1" style="stop-color:#12181E"/>
	</linearGradient>
	<path fill-rule="evenodd" clip-rule="evenodd" fill="url(#SVGID_31_)" d="M25.369,8.363c-0.77-0.202-1.494-0.478-2.134-0.795
		h-6.449c-0.654,0.318-1.377,0.593-2.148,0.795H25.369L25.369,8.363z"/>
	<linearGradient id="SVGID_32_" gradientUnits="userSpaceOnUse" x1="13.2798" y1="9.0396" x2="26.7422" y2="9.0396">
		<stop  offset="0" style="stop-color:#13181D"/>
		<stop  offset="0.292" style="stop-color:#13181E"/>
		<stop  offset="0.6533" style="stop-color:#13181E"/>
		<stop  offset="1" style="stop-color:#12181E"/>
	</linearGradient>
	<path fill-rule="evenodd" clip-rule="evenodd" fill="url(#SVGID_32_)" d="M26.742,9.437c0-0.279,0-0.544-0.025-0.795H13.304
		c-0.024,0.25-0.024,0.516-0.024,0.795H26.742L26.742,9.437z"/>
	<linearGradient id="SVGID_33_" gradientUnits="userSpaceOnUse" x1="13.2896" y1="10.0996" x2="26.7275" y2="10.0996">
		<stop  offset="0" style="stop-color:#13181D"/>
		<stop  offset="0.292" style="stop-color:#13181E"/>
		<stop  offset="0.6533" style="stop-color:#13181E"/>
		<stop  offset="1" style="stop-color:#12181E"/>
	</linearGradient>
	<path fill-rule="evenodd" clip-rule="evenodd" fill="url(#SVGID_33_)" d="M26.666,10.499c0.028-0.267,0.051-0.532,0.062-0.797
		H13.29c0.014,0.266,0.038,0.531,0.076,0.797H26.666L26.666,10.499z"/>
	<linearGradient id="SVGID_34_" gradientUnits="userSpaceOnUse" x1="13.3901" y1="11.167" x2="26.627" y2="11.167">
		<stop  offset="0" style="stop-color:#13181D"/>
		<stop  offset="0.292" style="stop-color:#13181E"/>
		<stop  offset="0.6533" style="stop-color:#13181E"/>
		<stop  offset="1" style="stop-color:#12181E"/>
	</linearGradient>
	<path fill-rule="evenodd" clip-rule="evenodd" fill="url(#SVGID_34_)" d="M26.492,11.558c0.063-0.265,0.102-0.531,0.135-0.781
		H13.39c0.038,0.25,0.087,0.516,0.139,0.781H26.492L26.492,11.558z"/>
	<linearGradient id="SVGID_35_" gradientUnits="userSpaceOnUse" x1="13.5781" y1="12.2197" x2="26.4385" y2="12.2197">
		<stop  offset="0" style="stop-color:#13181D"/>
		<stop  offset="0.292" style="stop-color:#13181E"/>
		<stop  offset="0.6533" style="stop-color:#13181E"/>
		<stop  offset="1" style="stop-color:#12181E"/>
	</linearGradient>
	<path fill-rule="evenodd" clip-rule="evenodd" fill="url(#SVGID_35_)" d="M26.25,12.617c0.064-0.264,0.126-0.53,0.188-0.795h-12.86
		c0.067,0.266,0.13,0.531,0.202,0.795H26.25L26.25,12.617z"/>
	<linearGradient id="SVGID_36_" gradientUnits="userSpaceOnUse" x1="13.8579" y1="13.2798" x2="26.1748" y2="13.2798">
		<stop  offset="0" style="stop-color:#13181D"/>
		<stop  offset="0.292" style="stop-color:#13181E"/>
		<stop  offset="0.6533" style="stop-color:#13181E"/>
		<stop  offset="1" style="stop-color:#12181E"/>
	</linearGradient>
	<path fill-rule="evenodd" clip-rule="evenodd" fill="url(#SVGID_36_)" d="M25.924,13.678c0.086-0.265,0.173-0.531,0.251-0.796
		H13.858c0.077,0.265,0.148,0.531,0.24,0.796H25.924L25.924,13.678z"/>
	<linearGradient id="SVGID_37_" gradientUnits="userSpaceOnUse" x1="14.2007" y1="14.354" x2="25.832" y2="14.354">
		<stop  offset="0" style="stop-color:#13181D"/>
		<stop  offset="0.292" style="stop-color:#13181E"/>
		<stop  offset="0.6533" style="stop-color:#13181E"/>
		<stop  offset="1" style="stop-color:#12181E"/>
	</linearGradient>
	<path fill-rule="evenodd" clip-rule="evenodd" fill="url(#SVGID_37_)" d="M25.533,14.751c0.102-0.28,0.197-0.543,0.299-0.795
		H14.201c0.086,0.251,0.187,0.515,0.303,0.795H25.533L25.533,14.751z"/>
	<linearGradient id="SVGID_38_" gradientUnits="userSpaceOnUse" x1="14.6143" y1="15.4146" x2="25.416" y2="15.4146">
		<stop  offset="0" style="stop-color:#13181D"/>
		<stop  offset="0.292" style="stop-color:#13181E"/>
		<stop  offset="0.6533" style="stop-color:#13181E"/>
		<stop  offset="1" style="stop-color:#12181E"/>
	</linearGradient>
	<path fill-rule="evenodd" clip-rule="evenodd" fill="url(#SVGID_38_)" d="M25.051,15.812c0.127-0.264,0.25-0.53,0.365-0.795H14.614
		c0.115,0.265,0.225,0.531,0.356,0.795H25.051L25.051,15.812z"/>
	<linearGradient id="SVGID_39_" gradientUnits="userSpaceOnUse" x1="15.105" y1="16.4741" x2="24.9258" y2="16.4741">
		<stop  offset="0" style="stop-color:#13181D"/>
		<stop  offset="0.292" style="stop-color:#13181E"/>
		<stop  offset="0.6533" style="stop-color:#13181E"/>
		<stop  offset="1" style="stop-color:#12181E"/>
	</linearGradient>
	<path fill-rule="evenodd" clip-rule="evenodd" fill="url(#SVGID_39_)" d="M24.496,16.871c0.15-0.264,0.29-0.53,0.43-0.794h-9.821
		c0.13,0.264,0.28,0.53,0.419,0.794H24.496L24.496,16.871z"/>
	<linearGradient id="SVGID_40_" gradientUnits="userSpaceOnUse" x1="15.689" y1="17.5352" x2="24.3428" y2="17.5352">
		<stop  offset="0" style="stop-color:#13181D"/>
		<stop  offset="0.292" style="stop-color:#13181E"/>
		<stop  offset="0.6533" style="stop-color:#13181E"/>
		<stop  offset="1" style="stop-color:#12181E"/>
	</linearGradient>
	<path fill-rule="evenodd" clip-rule="evenodd" fill="url(#SVGID_40_)" d="M23.837,17.933c0.179-0.264,0.343-0.531,0.506-0.794
		h-8.654c0.149,0.264,0.313,0.53,0.49,0.794H23.837L23.837,17.933z"/>
	<linearGradient id="SVGID_41_" gradientUnits="userSpaceOnUse" x1="16.3579" y1="18.5947" x2="23.6641" y2="18.5947">
		<stop  offset="0" style="stop-color:#13181D"/>
		<stop  offset="0.292" style="stop-color:#13181E"/>
		<stop  offset="0.6533" style="stop-color:#13181E"/>
		<stop  offset="1" style="stop-color:#12181E"/>
	</linearGradient>
	<path fill-rule="evenodd" clip-rule="evenodd" fill="url(#SVGID_41_)" d="M23.08,18.993c0.202-0.265,0.391-0.517,0.584-0.795
		h-7.306c0.189,0.279,0.377,0.531,0.578,0.795H23.08L23.08,18.993z"/>
	<linearGradient id="SVGID_42_" gradientUnits="userSpaceOnUse" x1="17.1533" y1="19.6499" x2="22.8691" y2="19.6499">
		<stop  offset="0" style="stop-color:#13181D"/>
		<stop  offset="0.292" style="stop-color:#13181E"/>
		<stop  offset="0.6533" style="stop-color:#13181E"/>
		<stop  offset="1" style="stop-color:#12181E"/>
	</linearGradient>
	<path fill-rule="evenodd" clip-rule="evenodd" fill="url(#SVGID_42_)" d="M22.174,20.043c0.236-0.241,0.478-0.506,0.695-0.786
		h-5.716c0.226,0.28,0.452,0.545,0.695,0.786H22.174L22.174,20.043z"/>
	<linearGradient id="SVGID_43_" gradientUnits="userSpaceOnUse" x1="18.0981" y1="20.7031" x2="21.9189" y2="20.7031">
		<stop  offset="0" style="stop-color:#13181D"/>
		<stop  offset="0.292" style="stop-color:#13181E"/>
		<stop  offset="0.6533" style="stop-color:#13181E"/>
		<stop  offset="1" style="stop-color:#12181E"/>
	</linearGradient>
	<path fill-rule="evenodd" clip-rule="evenodd" fill="url(#SVGID_43_)" d="M21.084,21.099c0.295-0.255,0.57-0.521,0.835-0.791
		h-3.821c0.264,0.27,0.544,0.535,0.848,0.791H21.084L21.084,21.099z"/>
	<linearGradient id="SVGID_44_" gradientUnits="userSpaceOnUse" x1="19.2485" y1="21.6641" x2="20.772" y2="21.6641">
		<stop  offset="0" style="stop-color:#13181D"/>
		<stop  offset="0.292" style="stop-color:#13181E"/>
		<stop  offset="0.6533" style="stop-color:#13181E"/>
		<stop  offset="1" style="stop-color:#12181E"/>
	</linearGradient>
	<path fill-rule="evenodd" clip-rule="evenodd" fill="url(#SVGID_44_)" d="M20.007,21.956c0.259-0.188,0.509-0.381,0.765-0.584
		h-1.523C19.5,21.575,19.756,21.768,20.007,21.956L20.007,21.956z"/>
	<linearGradient id="SVGID_45_" gradientUnits="userSpaceOnUse" x1="16.4839" y1="13.0273" x2="24.5449" y2="13.0273">
		<stop  offset="0" style="stop-color:#39BFF0"/>
		<stop  offset="0.2322" style="stop-color:#38BDEF"/>
		<stop  offset="0.3968" style="stop-color:#36B8EB"/>
		<stop  offset="0.5406" style="stop-color:#34AFE5"/>
		<stop  offset="0.6724" style="stop-color:#31A2DC"/>
		<stop  offset="0.7961" style="stop-color:#3091D0"/>
		<stop  offset="0.912" style="stop-color:#327CC0"/>
		<stop  offset="1" style="stop-color:#3668B1"/>
	</linearGradient>
	<path fill-rule="evenodd" clip-rule="evenodd" fill="url(#SVGID_45_)" d="M16.484,17.933c0.379,0,0.834,0.015,1.06-0.352
		c0.14-0.193,0.14-0.418,0.14-0.468v-4.496c0-0.047-0.039-0.124-0.114-0.188c-0.15-0.141-0.479-0.255-0.67-0.28
		c0.192-0.039,0.521-0.15,0.684-0.279c0.062-0.063,0.101-0.125,0.101-0.173V8.955c0-0.086-0.015-0.148-0.054-0.212
		c-0.047-0.101-0.124-0.178-0.226-0.24c-0.25-0.126-0.669-0.086-0.92-0.025c0.023-0.101,0.14-0.316,0.179-0.38
		c0.312-0.545,0.693-0.656,1.06-0.608c0.342,0.04,0.655,0.242,0.872,0.396c0.329-0.303,0.704-0.53,1.069-0.685
		C20.18,7,20.694,6.922,21.101,6.922c0.934,0,1.791,0.404,2.409,1.05c0.645,0.646,1.035,1.512,1.035,2.447
		c0,0.82-0.415,1.768-1.098,2.477c-0.607,0.632-1.413,1.084-2.299,1.099c-0.454,0.008-0.906-0.116-1.229-0.356
		c-0.304-0.212-0.522-0.54-0.522-0.936c0-0.048,0-0.1,0.016-0.149c0.01-0.304,0.11-0.584,0.304-0.781
		c0.187-0.202,0.448-0.343,0.827-0.343c0.04,0,0.074,0,0.126,0.01l0,0c0.266,0.015,0.468,0.093,0.594,0.203
		c0.162,0.154,0.216,0.343,0.216,0.531c0,0.318-0.193,0.645-0.534,0.669c0.065,0.023,0.138,0.038,0.23,0.053
		c0.569,0.01,1.325-0.529,1.435-1.099c0.056-0.226-0.008-0.419-0.071-0.622c-0.063-0.164-0.116-0.336-0.116-0.54
		c-0.014-0.318,0.078-0.505,0.164-0.683c0.102-0.201,0.188-0.375,0.063-0.732c-0.125-0.338-0.344-0.657-0.642-0.868
		c-0.28-0.192-0.621-0.303-1.063-0.303c-0.337,0-0.743,0.174-1.042,0.438c-0.289,0.242-0.506,0.544-0.506,0.833v9.812
		c-0.312-0.078-0.592-0.165-0.834-0.405c-0.125-0.112-0.226-0.266-0.287-0.405c-0.203,0.163-0.414,0.279-0.656,0.293
		C17.231,18.64,16.624,18.323,16.484,17.933L16.484,17.933z"/>
	<linearGradient id="SVGID_46_" gradientUnits="userSpaceOnUse" x1="16.936" y1="12.9839" x2="24.2793" y2="12.9839">
		<stop  offset="0" style="stop-color:#13181D"/>
		<stop  offset="0.292" style="stop-color:#13181E"/>
		<stop  offset="0.6533" style="stop-color:#13181E"/>
		<stop  offset="1" style="stop-color:#12181E"/>
	</linearGradient>
	<path fill-rule="evenodd" clip-rule="evenodd" fill="url(#SVGID_46_)" d="M17.028,18.16c0.213,0.139,0.404,0.201,0.577,0.193
		c0.343-0.029,0.671-0.358,0.811-0.545c0.011,0.203,0.101,0.516,0.327,0.732c0.115,0.101,0.242,0.178,0.391,0.241V9.321
		c0-0.376,0.256-0.756,0.594-1.036c0.35-0.299,0.827-0.514,1.219-0.501c0.495,0,0.899,0.135,1.214,0.352
		c0.353,0.25,0.593,0.606,0.747,0.997c0.163,0.454,0.048,0.679-0.077,0.936c-0.063,0.149-0.154,0.314-0.141,0.554
		c0,0.179,0.054,0.328,0.102,0.467c0.078,0.241,0.149,0.468,0.087,0.771c-0.149,0.694-1.007,1.312-1.716,1.301
		c-0.188-0.015-0.352-0.078-0.481-0.153c-0.313-0.213-0.337-0.531-0.29-0.733c0.053,0.092,0.218,0.241,0.366,0.28l0,0
		c0.039,0.023,0.077,0.023,0.126,0.023c0.23,0,0.333-0.201,0.333-0.403c0-0.126-0.029-0.237-0.132-0.329
		c-0.085-0.072-0.226-0.125-0.437-0.139l0,0l0,0l0,0c-0.039-0.01-0.078-0.01-0.103-0.01c-0.302,0-0.504,0.101-0.625,0.25
		c-0.155,0.163-0.232,0.391-0.241,0.63c-0.016,0.039-0.016,0.093-0.016,0.126c0,0.305,0.164,0.543,0.387,0.723
		c0.294,0.202,0.698,0.313,1.099,0.303c0.81-0.015,1.556-0.428,2.109-1.026c0.632-0.655,1.021-1.528,1.021-2.284
		c0-0.857-0.366-1.667-0.958-2.269c-0.568-0.583-1.363-0.964-2.221-0.964c-0.383,0-0.858,0.065-1.336,0.264
		c-0.375,0.154-0.742,0.381-1.06,0.7l-0.078,0.085l-0.086-0.063c-0.203-0.139-0.53-0.38-0.858-0.428
		c-0.25-0.024-0.519,0.062-0.747,0.415c0.204-0.025,0.419,0.013,0.594,0.115c0.153,0.077,0.279,0.202,0.341,0.353
		c0.053,0.101,0.077,0.202,0.077,0.327v2.742c0,0.125-0.062,0.263-0.188,0.376c-0.038,0.028-0.077,0.052-0.116,0.076
		c0.039,0.025,0.078,0.053,0.101,0.077c0.141,0.126,0.203,0.274,0.203,0.391v4.496c0,0.076-0.015,0.353-0.178,0.617
		C17.644,17.933,17.419,18.11,17.028,18.16L17.028,18.16z"/>
</g>
</svg>
