<?xml version="1.0" encoding="utf-8"?>
<!-- Generator: Adobe Illustrator 16.0.0, SVG Export Plug-In . SVG Version: 6.00 Build 0)  -->
<!DOCTYPE svg PUBLIC "-//W3C//DTD SVG 1.1//EN" "http://www.w3.org/Graphics/SVG/1.1/DTD/svg11.dtd">
<svg version="1.1" id="Camada_1" xmlns="http://www.w3.org/2000/svg" xmlns:xlink="http://www.w3.org/1999/xlink" x="0px" y="0px"
	 width="40px" height="40px" viewBox="0 0 40 40" enable-background="new 0 0 40 40" xml:space="preserve">
<g>
	<linearGradient id="SVGID_1_" gradientUnits="userSpaceOnUse" x1="0.791" y1="20" x2="39.208" y2="20">
		<stop  offset="0" style="stop-color:#13181D"/>
		<stop  offset="0.292" style="stop-color:#13181E"/>
		<stop  offset="0.6533" style="stop-color:#13181E"/>
		<stop  offset="1" style="stop-color:#12181E"/>
	</linearGradient>
	<path fill="url(#SVGID_1_)" d="M31.379,1.179c-0.21,0.113-0.421,0.227-0.633,0.341c-2.965,1.544-6.544,2.317-10.74,2.326
		c-4.201-0.009-7.782-0.782-10.758-2.326c-0.21-0.114-0.419-0.229-0.622-0.341L3.196,7.031c3.195,2.352,3.081,6.126-0.342,11.32
		c-2.108,3.176-2.6,6.492-1.476,9.95c1.405,4.333,4.773,6.669,10.119,7.011c3.326,0.211,6.159,1.377,8.51,3.51
		c2.345-2.133,5.178-3.299,8.503-3.51c5.343-0.342,8.714-2.678,10.117-7.011c1.113-3.458,0.63-6.773-1.467-9.95
		c-3.431-5.194-3.543-8.968-0.352-11.32L31.379,1.179z"/>
	<linearGradient id="SVGID_2_" gradientUnits="userSpaceOnUse" x1="2.8447" y1="10.8271" x2="27.9648" y2="10.8271">
		<stop  offset="0" style="stop-color:#39BFF0"/>
		<stop  offset="0.2322" style="stop-color:#38BDEF"/>
		<stop  offset="0.3968" style="stop-color:#36B8EB"/>
		<stop  offset="0.5406" style="stop-color:#34AFE5"/>
		<stop  offset="0.6724" style="stop-color:#31A2DC"/>
		<stop  offset="0.7961" style="stop-color:#3091D0"/>
		<stop  offset="0.912" style="stop-color:#327CC0"/>
		<stop  offset="1" style="stop-color:#3668B1"/>
	</linearGradient>
	<path fill="url(#SVGID_2_)" d="M8.943,2.11C8.882,2.083,8.819,2.049,8.758,2.013L4.177,6.961c2.967,2.553,2.713,6.475-0.771,11.75
		c-0.202,0.307-0.395,0.623-0.561,0.93L27.965,3.39c-2.351,0.747-5.01,1.112-7.958,1.125C15.691,4.502,12.005,3.705,8.943,2.11z"/>
	<linearGradient id="SVGID_3_" gradientUnits="userSpaceOnUse" x1="14.6714" y1="28.1553" x2="18.2354" y2="28.1553">
		<stop  offset="0" style="stop-color:#39BFF0"/>
		<stop  offset="0.2322" style="stop-color:#38BDEF"/>
		<stop  offset="0.3968" style="stop-color:#36B8EB"/>
		<stop  offset="0.5406" style="stop-color:#34AFE5"/>
		<stop  offset="0.6724" style="stop-color:#31A2DC"/>
		<stop  offset="0.7961" style="stop-color:#3091D0"/>
		<stop  offset="0.912" style="stop-color:#327CC0"/>
		<stop  offset="1" style="stop-color:#3668B1"/>
	</linearGradient>
	<path fill="url(#SVGID_3_)" d="M18.235,19.649l-3.564,2.297v13.209c1.267,0.343,2.448,0.85,3.555,1.507L18.235,19.649z"/>
	<linearGradient id="SVGID_4_" gradientUnits="userSpaceOnUse" x1="21.7881" y1="25.8516" x2="25.3516" y2="25.8516">
		<stop  offset="0" style="stop-color:#39BFF0"/>
		<stop  offset="0.2322" style="stop-color:#38BDEF"/>
		<stop  offset="0.3968" style="stop-color:#36B8EB"/>
		<stop  offset="0.5406" style="stop-color:#34AFE5"/>
		<stop  offset="0.6724" style="stop-color:#31A2DC"/>
		<stop  offset="0.7961" style="stop-color:#3091D0"/>
		<stop  offset="0.912" style="stop-color:#327CC0"/>
		<stop  offset="1" style="stop-color:#3668B1"/>
	</linearGradient>
	<path fill="url(#SVGID_4_)" d="M25.352,15.042l-3.563,2.299v19.321c1.104-0.666,2.289-1.174,3.563-1.518V15.042z"/>
	<linearGradient id="SVGID_5_" gradientUnits="userSpaceOnUse" x1="7.5479" y1="29.4375" x2="11.1099" y2="29.4375">
		<stop  offset="0" style="stop-color:#39BFF0"/>
		<stop  offset="0.2322" style="stop-color:#38BDEF"/>
		<stop  offset="0.3968" style="stop-color:#36B8EB"/>
		<stop  offset="0.5406" style="stop-color:#34AFE5"/>
		<stop  offset="0.6724" style="stop-color:#31A2DC"/>
		<stop  offset="0.7961" style="stop-color:#3091D0"/>
		<stop  offset="0.912" style="stop-color:#327CC0"/>
		<stop  offset="1" style="stop-color:#3668B1"/>
	</linearGradient>
	<path fill="url(#SVGID_5_)" d="M11.11,24.258l-3.562,2.297v7.309c1.052,0.386,2.237,0.632,3.562,0.755V24.258z"/>
	<linearGradient id="SVGID_6_" gradientUnits="userSpaceOnUse" x1="2.686" y1="30.2041" x2="3.9849" y2="30.2041">
		<stop  offset="0" style="stop-color:#39BFF0"/>
		<stop  offset="0.2322" style="stop-color:#38BDEF"/>
		<stop  offset="0.3968" style="stop-color:#36B8EB"/>
		<stop  offset="0.5406" style="stop-color:#34AFE5"/>
		<stop  offset="0.6724" style="stop-color:#31A2DC"/>
		<stop  offset="0.7961" style="stop-color:#3091D0"/>
		<stop  offset="0.912" style="stop-color:#327CC0"/>
		<stop  offset="1" style="stop-color:#3668B1"/>
	</linearGradient>
	<path fill="url(#SVGID_6_)" d="M3.985,28.861l-1.299,0.835c0.361,0.685,0.789,1.299,1.299,1.851V28.861z"/>
	<linearGradient id="SVGID_7_" gradientUnits="userSpaceOnUse" x1="28.9043" y1="22.5273" x2="32.4756" y2="22.5273">
		<stop  offset="0" style="stop-color:#39BFF0"/>
		<stop  offset="0.2322" style="stop-color:#38BDEF"/>
		<stop  offset="0.3968" style="stop-color:#36B8EB"/>
		<stop  offset="0.5406" style="stop-color:#34AFE5"/>
		<stop  offset="0.6724" style="stop-color:#31A2DC"/>
		<stop  offset="0.7961" style="stop-color:#3091D0"/>
		<stop  offset="0.912" style="stop-color:#327CC0"/>
		<stop  offset="1" style="stop-color:#3668B1"/>
	</linearGradient>
	<path fill="url(#SVGID_7_)" d="M32.476,10.437l-3.571,2.297v21.884c1.326-0.123,2.509-0.377,3.563-0.764L32.476,10.437z"/>
	<linearGradient id="SVGID_8_" gradientUnits="userSpaceOnUse" x1="36.0273" y1="24.6758" x2="38.543" y2="24.6758">
		<stop  offset="0" style="stop-color:#39BFF0"/>
		<stop  offset="0.2322" style="stop-color:#38BDEF"/>
		<stop  offset="0.3968" style="stop-color:#36B8EB"/>
		<stop  offset="0.5406" style="stop-color:#34AFE5"/>
		<stop  offset="0.6724" style="stop-color:#31A2DC"/>
		<stop  offset="0.7961" style="stop-color:#3091D0"/>
		<stop  offset="0.912" style="stop-color:#327CC0"/>
		<stop  offset="1" style="stop-color:#3668B1"/>
	</linearGradient>
	<path fill="url(#SVGID_8_)" d="M36.6,18.711c-0.202-0.298-0.394-0.608-0.572-0.896v13.722c0.862-0.937,1.521-2.087,1.969-3.438
		C39.048,24.835,38.581,21.711,36.6,18.711z"/>
	<linearGradient id="SVGID_9_" gradientUnits="userSpaceOnUse" x1="23.7891" y1="9.2822" x2="29.4932" y2="9.2822">
		<stop  offset="0" style="stop-color:#39BFF0"/>
		<stop  offset="0.2322" style="stop-color:#38BDEF"/>
		<stop  offset="0.3968" style="stop-color:#36B8EB"/>
		<stop  offset="0.5406" style="stop-color:#34AFE5"/>
		<stop  offset="0.6724" style="stop-color:#31A2DC"/>
		<stop  offset="0.7961" style="stop-color:#3091D0"/>
		<stop  offset="0.912" style="stop-color:#327CC0"/>
		<stop  offset="1" style="stop-color:#3668B1"/>
	</linearGradient>
	<path fill="url(#SVGID_9_)" d="M29.493,4.549c-0.099-0.237-0.308-0.291-0.624-0.14l-4.643,3.07
		c-0.28,0.299-0.419,0.597-0.438,0.904v5.186c0.096,0.648,0.403,0.824,0.929,0.542l4.073-2.579c0.367-0.316,0.604-0.746,0.702-1.279
		V7.855l-2.062,1.257v1.517l-1.142,0.762c-0.133,0.072-0.229,0.062-0.282-0.025c-0.043-0.071-0.062-0.201-0.069-0.413l-0.043-2.652
		c0.017-0.146,0.069-0.27,0.156-0.357l1.212-0.896c0.263-0.211,0.402-0.204,0.421,0.019v0.279l1.809-1.201V4.549z"/>
	<linearGradient id="SVGID_10_" gradientUnits="userSpaceOnUse" x1="14.2866" y1="15.3193" x2="20.3398" y2="15.3193">
		<stop  offset="0" style="stop-color:#39BFF0"/>
		<stop  offset="0.2322" style="stop-color:#38BDEF"/>
		<stop  offset="0.3968" style="stop-color:#36B8EB"/>
		<stop  offset="0.5406" style="stop-color:#34AFE5"/>
		<stop  offset="0.6724" style="stop-color:#31A2DC"/>
		<stop  offset="0.7961" style="stop-color:#3091D0"/>
		<stop  offset="0.912" style="stop-color:#327CC0"/>
		<stop  offset="1" style="stop-color:#3668B1"/>
	</linearGradient>
	<path fill="url(#SVGID_10_)" d="M19.059,12.472l1.281-0.833V9.901l-6.053,3.93v1.308l0.841-0.51v4.328l-0.816,0.551l0.019,1.229
		l4.002-2.528v-1.254l-1.062,0.686v-1.633l1.043-0.676v0.878l1.079-0.721v-2.711l-0.992,0.687v0.491l-1.158,0.667v-1.377
		l1.441-0.958L19.059,12.472z"/>
	<linearGradient id="SVGID_11_" gradientUnits="userSpaceOnUse" x1="11.3477" y1="21.2764" x2="13.0762" y2="21.2764">
		<stop  offset="0" style="stop-color:#39BFF0"/>
		<stop  offset="0.2322" style="stop-color:#38BDEF"/>
		<stop  offset="0.3968" style="stop-color:#36B8EB"/>
		<stop  offset="0.5406" style="stop-color:#34AFE5"/>
		<stop  offset="0.6724" style="stop-color:#31A2DC"/>
		<stop  offset="0.7961" style="stop-color:#3091D0"/>
		<stop  offset="0.912" style="stop-color:#327CC0"/>
		<stop  offset="1" style="stop-color:#3668B1"/>
	</linearGradient>
	<path fill="url(#SVGID_11_)" d="M13.076,21.536v-1.658l-1.729,1.087v1.71L13.076,21.536z"/>
	<linearGradient id="SVGID_12_" gradientUnits="userSpaceOnUse" x1="20.8145" y1="15.1748" x2="22.542" y2="15.1748">
		<stop  offset="0" style="stop-color:#39BFF0"/>
		<stop  offset="0.2322" style="stop-color:#38BDEF"/>
		<stop  offset="0.3968" style="stop-color:#36B8EB"/>
		<stop  offset="0.5406" style="stop-color:#34AFE5"/>
		<stop  offset="0.6724" style="stop-color:#31A2DC"/>
		<stop  offset="0.7961" style="stop-color:#3091D0"/>
		<stop  offset="0.912" style="stop-color:#327CC0"/>
		<stop  offset="1" style="stop-color:#3668B1"/>
	</linearGradient>
	<path fill="url(#SVGID_12_)" d="M20.814,14.867v1.703l1.728-1.131V13.78L20.814,14.867z"/>
	<linearGradient id="SVGID_13_" gradientUnits="userSpaceOnUse" x1="4.5293" y1="21.7451" x2="10.2417" y2="21.7451">
		<stop  offset="0" style="stop-color:#39BFF0"/>
		<stop  offset="0.2322" style="stop-color:#38BDEF"/>
		<stop  offset="0.3968" style="stop-color:#36B8EB"/>
		<stop  offset="0.5406" style="stop-color:#34AFE5"/>
		<stop  offset="0.6724" style="stop-color:#31A2DC"/>
		<stop  offset="0.7961" style="stop-color:#3091D0"/>
		<stop  offset="0.912" style="stop-color:#327CC0"/>
		<stop  offset="1" style="stop-color:#3668B1"/>
	</linearGradient>
	<path fill="url(#SVGID_13_)" d="M10.021,16.965c-0.131-0.07-0.323-0.08-0.597-0.009l-4.29,2.66
		c-0.448,0.29-0.648,0.587-0.597,0.903l0.01,2.255c0.034,0.342,0.158,0.526,0.367,0.542c0.22,0.028,0.537-0.112,0.958-0.41
		l1.79-1.142c0.341-0.133,0.553-0.122,0.622,0.026v1.467l-1.437,0.964c-0.239,0.133-0.336,0.037-0.299-0.28v-0.817l-2.01,1.246
		v1.528c-0.008,0.639,0.264,0.833,0.816,0.571l4.344-2.801c0.377-0.202,0.553-0.631,0.543-1.273l-0.028-2.097
		c-0.306-0.446-0.778-0.535-1.412-0.244l-1.903,1.165c-0.186,0.071-0.291-0.006-0.323-0.208v-0.66c-0.019-0.097,0-0.192,0.06-0.28
		c0.061-0.088,0.166-0.187,0.343-0.299l0.93-0.597c0.219-0.122,0.359-0.095,0.403,0.097v0.482l1.931-1.194v-1.244
		C10.189,17.139,10.12,17.026,10.021,16.965z"/>
	<linearGradient id="SVGID_14_" gradientUnits="userSpaceOnUse" x1="30.6592" y1="8.9219" x2="32.3887" y2="8.9219">
		<stop  offset="0" style="stop-color:#39BFF0"/>
		<stop  offset="0.2322" style="stop-color:#38BDEF"/>
		<stop  offset="0.3968" style="stop-color:#36B8EB"/>
		<stop  offset="0.5406" style="stop-color:#34AFE5"/>
		<stop  offset="0.6724" style="stop-color:#31A2DC"/>
		<stop  offset="0.7961" style="stop-color:#3091D0"/>
		<stop  offset="0.912" style="stop-color:#327CC0"/>
		<stop  offset="1" style="stop-color:#3668B1"/>
	</linearGradient>
	<path fill="url(#SVGID_14_)" d="M32.389,9.188V7.522l-1.729,1.089v1.71L32.389,9.188z"/>
	<linearGradient id="SVGID_15_" gradientUnits="userSpaceOnUse" x1="7.0928" y1="8.3389" x2="15.4092" y2="8.3389">
		<stop  offset="0" style="stop-color:#13181D"/>
		<stop  offset="0.292" style="stop-color:#13181E"/>
		<stop  offset="0.6533" style="stop-color:#13181E"/>
		<stop  offset="1" style="stop-color:#12181E"/>
	</linearGradient>
	<path fill="url(#SVGID_15_)" d="M15.409,8.337c0-1.148-0.414-2.131-1.218-2.937c-0.818-0.816-1.8-1.229-2.94-1.221
		C10.102,4.171,9.126,4.584,8.311,5.4C7.495,6.207,7.093,7.189,7.093,8.337c0,1.141,0.402,2.124,1.218,2.94
		c0.053,0.044,0.106,0.095,0.159,0.142c0.779,0.718,1.701,1.079,2.782,1.079c1.14,0,2.122-0.413,2.94-1.221
		C14.996,10.461,15.409,9.478,15.409,8.337z M11.057,4.584c0.069-0.01,0.132-0.01,0.204-0.01c0.437,0,0.831,0.072,1.218,0.193
		c0.008,0.007,0.008,0.017,0.008,0.027c1.009,1.798,1.098,3.343,0.29,4.615c-0.01-0.008-0.025-0.008-0.043-0.018
		C12.933,7.638,12.382,6.031,11.057,4.584z M12.507,9.646c0.042,0,0.094,0,0.147,0.01c0.063,0.01,0.113,0.027,0.158,0.054
		c0.019,0.018,0.037,0.034,0.054,0.062c0,0.007,0,0.007,0,0.007c0,0.019,0.006,0.037,0,0.062c-0.011,0.043-0.036,0.097-0.089,0.15
		c-0.025,0.036-0.053,0.069-0.087,0.097c-0.079,0.069-0.183,0.131-0.308,0.174c-0.148,0.052-0.29,0.08-0.42,0.08
		c-0.018-0.009-0.036-0.009-0.054-0.009c-0.095-0.019-0.156-0.052-0.193-0.114c-0.025-0.062-0.017-0.123,0.045-0.202
		c0,0,0.01-0.008,0.01-0.018c0,0,0,0,0.007,0c0.088-0.114,0.229-0.2,0.405-0.27C12.285,9.682,12.4,9.655,12.507,9.646z M12.303,9.41
		c-0.079,0.018-0.139,0.035-0.22,0.068c-0.175,0.063-0.313,0.15-0.428,0.255c-1.976-0.35-2.947-1.736-2.931-4.165
		c0.535-0.494,1.149-0.81,1.832-0.932C11.961,6.066,12.531,7.653,12.303,9.41z M14.944,7.576c-0.017,0.053-0.036,0.113-0.053,0.174
		c-0.369,1.089-0.967,1.721-1.789,1.895c0.859-1.288,0.841-2.834-0.045-4.615c0.306,0.167,0.588,0.387,0.85,0.648
		C14.462,6.225,14.804,6.855,14.944,7.576z M13.935,10.961c-0.01,0.012-0.016,0.017-0.026,0.027
		c-0.457,0.457-0.975,0.772-1.554,0.949c0.264-0.414,0.353-0.905,0.282-1.5c0.028-0.01,0.054-0.028,0.082-0.046
		C13.12,10.717,13.532,10.911,13.935,10.961z M13.015,10.12c0.018-0.026,0.034-0.042,0.043-0.069
		c0.861-0.114,1.508-0.633,1.957-1.554c-0.026,0.783-0.28,1.475-0.736,2.081C13.856,10.594,13.435,10.443,13.015,10.12z
		 M11.53,10.488c0.029,0.01,0.046,0.027,0.08,0.044c-0.658,0.553-1.651,0.721-2.967,0.484c-0.017-0.009-0.025-0.018-0.035-0.028
		c-0.342-0.343-0.596-0.7-0.781-1.106C9.048,10.611,10.278,10.813,11.53,10.488z M12.11,10.602v-0.008
		c0.043,0,0.096-0.008,0.141-0.017c0.062,0.623-0.113,1.125-0.527,1.493c-0.147,0.006-0.308,0.016-0.462,0.024
		c-0.74-0.008-1.407-0.192-1.994-0.57C10.548,11.612,11.497,11.305,12.11,10.602z M7.616,9.269C7.539,8.971,7.503,8.664,7.503,8.331
		c0-0.887,0.273-1.668,0.826-2.343c0.087,2.35,1.123,3.722,3.106,4.114C10.136,10.427,8.863,10.155,7.616,9.269z"/>
</g>
</svg>
