<?xml version="1.0" encoding="utf-8"?>
<!-- Generator: Adobe Illustrator 16.0.0, SVG Export Plug-In . SVG Version: 6.00 Build 0)  -->
<!DOCTYPE svg PUBLIC "-//W3C//DTD SVG 1.1//EN" "http://www.w3.org/Graphics/SVG/1.1/DTD/svg11.dtd">
<svg version="1.1" id="Camada_1" xmlns="http://www.w3.org/2000/svg" xmlns:xlink="http://www.w3.org/1999/xlink" x="0px" y="0px"
	 width="40px" height="40px" viewBox="0 0 40 40" enable-background="new 0 0 40 40" xml:space="preserve">
<linearGradient id="SVGID_1_" gradientUnits="userSpaceOnUse" x1="1.0942" y1="20.0249" x2="38.9053" y2="20.0249">
	<stop  offset="0" style="stop-color:#39BFF0"/>
	<stop  offset="0.2322" style="stop-color:#38BDEF"/>
	<stop  offset="0.3968" style="stop-color:#36B8EB"/>
	<stop  offset="0.5406" style="stop-color:#34AFE5"/>
	<stop  offset="0.6724" style="stop-color:#31A2DC"/>
	<stop  offset="0.7961" style="stop-color:#3091D0"/>
	<stop  offset="0.912" style="stop-color:#327CC0"/>
	<stop  offset="1" style="stop-color:#3668B1"/>
</linearGradient>
<polygon fill="#13181D" stroke="url(#SVGID_1_)" stroke-width="0.1718" stroke-miterlimit="10" points="1.18,1.199 1.18,15.779 
	19.997,38.801 38.819,15.779 38.819,1.199 "/>
<linearGradient id="SVGID_2_" gradientUnits="userSpaceOnUse" x1="2.1763" y1="19.9287" x2="37.8252" y2="19.9287">
	<stop  offset="0" style="stop-color:#39BFF0"/>
	<stop  offset="0.2322" style="stop-color:#38BDEF"/>
	<stop  offset="0.3968" style="stop-color:#36B8EB"/>
	<stop  offset="0.5406" style="stop-color:#34AFE5"/>
	<stop  offset="0.6724" style="stop-color:#31A2DC"/>
	<stop  offset="0.7961" style="stop-color:#3091D0"/>
	<stop  offset="0.912" style="stop-color:#327CC0"/>
	<stop  offset="1" style="stop-color:#3668B1"/>
</linearGradient>
<polygon fill="url(#SVGID_2_)" points="2.176,2.195 2.176,15.863 19.997,37.663 37.825,15.863 37.825,2.195 "/>
<linearGradient id="SVGID_3_" gradientUnits="userSpaceOnUse" x1="22.8799" y1="23.1992" x2="36.0029" y2="23.1992">
	<stop  offset="0" style="stop-color:#13181D"/>
	<stop  offset="0.292" style="stop-color:#13181E"/>
	<stop  offset="0.6533" style="stop-color:#13181E"/>
	<stop  offset="1" style="stop-color:#12181E"/>
</linearGradient>
<polygon fill="url(#SVGID_3_)" points="22.88,15.175 22.88,31.223 36.003,15.175 "/>
<linearGradient id="SVGID_4_" gradientUnits="userSpaceOnUse" x1="3.9961" y1="23.1992" x2="17.1274" y2="23.1992">
	<stop  offset="0" style="stop-color:#13181D"/>
	<stop  offset="0.292" style="stop-color:#13181E"/>
	<stop  offset="0.6533" style="stop-color:#13181E"/>
	<stop  offset="1" style="stop-color:#12181E"/>
</linearGradient>
<polygon fill="url(#SVGID_4_)" points="3.996,15.175 17.127,31.223 17.127,15.175 "/>
<linearGradient id="SVGID_5_" gradientUnits="userSpaceOnUse" x1="3.9961" y1="8.6572" x2="36.0029" y2="8.6572">
	<stop  offset="0" style="stop-color:#13181D"/>
	<stop  offset="0.292" style="stop-color:#13181E"/>
	<stop  offset="0.6533" style="stop-color:#13181E"/>
	<stop  offset="1" style="stop-color:#12181E"/>
</linearGradient>
<rect x="3.996" y="3.846" fill="url(#SVGID_5_)" width="32.007" height="9.622"/>
<linearGradient id="SVGID_6_" gradientUnits="userSpaceOnUse" x1="28.5146" y1="8.6582" x2="34.5898" y2="8.6582">
	<stop  offset="0" style="stop-color:#39BFF0"/>
	<stop  offset="0.2322" style="stop-color:#38BDEF"/>
	<stop  offset="0.3968" style="stop-color:#36B8EB"/>
	<stop  offset="0.5406" style="stop-color:#34AFE5"/>
	<stop  offset="0.6724" style="stop-color:#31A2DC"/>
	<stop  offset="0.7961" style="stop-color:#3091D0"/>
	<stop  offset="0.912" style="stop-color:#327CC0"/>
	<stop  offset="1" style="stop-color:#3668B1"/>
</linearGradient>
<path fill="url(#SVGID_6_)" d="M34.59,7.652V6.646c0-0.738-0.605-1.341-1.343-1.341h-3.391c-0.736,0-1.342,0.604-1.342,1.341v4.024
	c0,0.737,0.605,1.343,1.342,1.343h3.391c0.737,0,1.343-0.606,1.343-1.343V9.665h-1.343v0.67c0,0.186-0.149,0.334-0.336,0.334h-2.718
	c-0.188,0-0.337-0.148-0.337-0.334V6.98c0-0.186,0.149-0.335,0.337-0.335h2.718c0.187,0,0.336,0.149,0.336,0.335v0.671H34.59z"/>
<linearGradient id="SVGID_7_" gradientUnits="userSpaceOnUse" x1="5.416" y1="8.6582" x2="11.4907" y2="8.6582">
	<stop  offset="0" style="stop-color:#39BFF0"/>
	<stop  offset="0.2322" style="stop-color:#38BDEF"/>
	<stop  offset="0.3968" style="stop-color:#36B8EB"/>
	<stop  offset="0.5406" style="stop-color:#34AFE5"/>
	<stop  offset="0.6724" style="stop-color:#31A2DC"/>
	<stop  offset="0.7961" style="stop-color:#3091D0"/>
	<stop  offset="0.912" style="stop-color:#327CC0"/>
	<stop  offset="1" style="stop-color:#3668B1"/>
</linearGradient>
<path fill="url(#SVGID_7_)" d="M5.416,6.646v1.342c0,0.736,0.601,1.342,1.342,1.342h3.057c0.179,0,0.335,0.149,0.335,0.335v0.67
	c0,0.186-0.156,0.334-0.335,0.334H5.416v1.343h4.733c0.738,0,1.341-0.606,1.341-1.343V9.33c0-0.739-0.604-1.342-1.341-1.342H7.093
	c-0.186,0-0.335-0.151-0.335-0.335V6.98c0-0.186,0.15-0.335,0.335-0.335h4.397V5.304H6.758C6.017,5.304,5.416,5.908,5.416,6.646z"/>
<linearGradient id="SVGID_8_" gradientUnits="userSpaceOnUse" x1="13.1201" y1="8.6582" x2="19.188" y2="8.6582">
	<stop  offset="0" style="stop-color:#39BFF0"/>
	<stop  offset="0.2322" style="stop-color:#38BDEF"/>
	<stop  offset="0.3968" style="stop-color:#36B8EB"/>
	<stop  offset="0.5406" style="stop-color:#34AFE5"/>
	<stop  offset="0.6724" style="stop-color:#31A2DC"/>
	<stop  offset="0.7961" style="stop-color:#3091D0"/>
	<stop  offset="0.912" style="stop-color:#327CC0"/>
	<stop  offset="1" style="stop-color:#3668B1"/>
</linearGradient>
<path fill="url(#SVGID_8_)" d="M17.853,5.304H13.12v6.708h1.341V9.33h3.392c0.735,0,1.335-0.606,1.335-1.342V6.646
	C19.188,5.908,18.588,5.304,17.853,5.304z M17.853,7.652c0,0.185-0.156,0.335-0.335,0.335h-3.057V6.646h3.057
	c0.179,0,0.335,0.154,0.335,0.335V7.652z"/>
<linearGradient id="SVGID_9_" gradientUnits="userSpaceOnUse" x1="20.813" y1="8.6582" x2="26.8867" y2="8.6582">
	<stop  offset="0" style="stop-color:#39BFF0"/>
	<stop  offset="0.2322" style="stop-color:#38BDEF"/>
	<stop  offset="0.3968" style="stop-color:#36B8EB"/>
	<stop  offset="0.5406" style="stop-color:#34AFE5"/>
	<stop  offset="0.6724" style="stop-color:#31A2DC"/>
	<stop  offset="0.7961" style="stop-color:#3091D0"/>
	<stop  offset="0.912" style="stop-color:#327CC0"/>
	<stop  offset="1" style="stop-color:#3668B1"/>
</linearGradient>
<polygon fill="url(#SVGID_9_)" points="20.813,12.013 22.154,12.013 22.154,9.33 25.545,9.33 25.545,7.987 22.154,7.987 
	22.154,6.646 26.887,6.646 26.887,5.304 20.813,5.304 "/>
</svg>
