<?xml version="1.0" encoding="utf-8"?>
<!-- Generator: Adobe Illustrator 16.0.0, SVG Export Plug-In . SVG Version: 6.00 Build 0)  -->
<!DOCTYPE svg PUBLIC "-//W3C//DTD SVG 1.1//EN" "http://www.w3.org/Graphics/SVG/1.1/DTD/svg11.dtd">
<svg version="1.1" id="Camada_1" xmlns="http://www.w3.org/2000/svg" xmlns:xlink="http://www.w3.org/1999/xlink" x="0px" y="0px"
	 width="370px" height="88px" viewBox="0 0 370 88" enable-background="new 0 0 370 88" xml:space="preserve">
<g>
	<g>
		<g>
			<g>
				
					<linearGradient id="SVGID_1_" gradientUnits="userSpaceOnUse" x1="237.6348" y1="-216.2031" x2="311.7656" y2="-216.2031" gradientTransform="matrix(1 0 0 -1 -235.9902 -172.0996)">
					<stop  offset="0" style="stop-color:#39BFF0"/>
					<stop  offset="0.2322" style="stop-color:#38BDEF"/>
					<stop  offset="0.3968" style="stop-color:#36B8EB"/>
					<stop  offset="0.5406" style="stop-color:#34AFE5"/>
					<stop  offset="0.6724" style="stop-color:#31A2DC"/>
					<stop  offset="0.7961" style="stop-color:#3091D0"/>
					<stop  offset="0.912" style="stop-color:#327CC0"/>
					<stop  offset="1" style="stop-color:#3668B1"/>
				</linearGradient>
				<path fill="url(#SVGID_1_)" d="M35.517,69.482c-0.69-1.715-1.673-3.98-2.946-6.795c-1.276-2.814-2.706-5.885-4.293-9.215
					c-1.585-3.328-3.205-6.761-4.859-10.295c-1.655-3.535-3.241-6.848-4.757-9.936c-1.517-3.089-2.862-5.799-4.033-8.134
					c-1.173-2.332-2.034-3.979-2.585-4.942c-0.893,8.581-1.596,17.898-2.11,27.953C9.42,58.173,8.955,68.727,8.544,79.775H1.645
					c0.619-12.973,1.321-25.395,2.11-37.27C4.544,30.634,5.522,19.275,6.691,8.429h6.177c2.062,3.434,4.263,7.397,6.602,11.891
					c2.338,4.497,4.658,9.164,6.963,14.003c2.303,4.839,4.539,9.611,6.706,14.312c2.166,4.701,4.075,8.939,5.726,12.715
					c1.65-3.774,3.558-8.014,5.726-12.715c2.164-4.701,4.399-9.473,6.705-14.312c2.303-4.839,4.624-9.506,6.964-14.003
					c2.338-4.494,4.537-8.458,6.601-11.891h5.869c1.166,10.847,2.145,22.206,2.934,34.079c0.789,11.875,1.494,24.297,2.111,37.27
					h-7.104c-0.411-11.049-0.875-21.604-1.39-31.657c-0.515-10.054-1.22-19.373-2.11-27.953c-0.551,0.962-1.407,2.61-2.574,4.942
					c-1.167,2.335-2.506,5.045-4.015,8.134c-1.511,3.088-3.089,6.4-4.736,9.936c-1.646,3.535-3.261,6.967-4.839,10.295
					c-1.579,3.33-3.004,6.399-4.272,9.215c-1.271,2.813-2.25,5.08-2.935,6.795h-6.283V69.482z"/>
				
					<linearGradient id="SVGID_2_" gradientUnits="userSpaceOnUse" x1="324.8359" y1="-225.2109" x2="369.5195" y2="-225.2109" gradientTransform="matrix(1 0 0 -1 -235.9902 -172.0996)">
					<stop  offset="0" style="stop-color:#39BFF0"/>
					<stop  offset="0.2322" style="stop-color:#38BDEF"/>
					<stop  offset="0.3968" style="stop-color:#36B8EB"/>
					<stop  offset="0.5406" style="stop-color:#34AFE5"/>
					<stop  offset="0.6724" style="stop-color:#31A2DC"/>
					<stop  offset="0.7961" style="stop-color:#3091D0"/>
					<stop  offset="0.912" style="stop-color:#327CC0"/>
					<stop  offset="1" style="stop-color:#3668B1"/>
				</linearGradient>
				<path fill="url(#SVGID_2_)" d="M88.845,53.113c0-4.668,0.671-8.734,2.009-12.201c1.338-3.465,3.089-6.366,5.251-8.701
					c2.162-2.333,4.632-4.066,7.412-5.199c2.78-1.133,5.646-1.699,8.598-1.699c6.52,0,11.72,2.129,15.598,6.384
					c3.876,4.256,5.817,10.811,5.817,19.665c0,0.551-0.018,1.1-0.052,1.647c-0.035,0.55-0.087,1.063-0.154,1.544H95.952
					c0.205,6.52,1.817,11.53,4.837,15.032c3.021,3.5,7.825,5.25,14.415,5.25c3.638,0,6.52-0.344,8.647-1.028
					c2.127-0.686,3.671-1.271,4.634-1.752l1.234,5.768c-0.961,0.549-2.764,1.201-5.405,1.955c-2.643,0.754-5.749,1.133-9.316,1.133
					c-4.669,0-8.648-0.688-11.943-2.059c-3.295-1.373-6.007-3.295-8.134-5.767c-2.128-2.472-3.672-5.403-4.633-8.803
					C89.326,60.885,88.845,57.162,88.845,53.113z M126.631,48.891c-0.139-5.559-1.441-9.883-3.913-12.972
					c-2.47-3.089-5.971-4.632-10.501-4.632c-2.403,0-4.548,0.48-6.436,1.44c-1.888,0.962-3.534,2.25-4.941,3.861
					c-1.407,1.614-2.506,3.485-3.294,5.612c-0.789,2.129-1.253,4.358-1.39,6.69H126.631z"/>
				
					<linearGradient id="SVGID_3_" gradientUnits="userSpaceOnUse" x1="383.8281" y1="-225.7773" x2="425.3203" y2="-225.7773" gradientTransform="matrix(1 0 0 -1 -235.9902 -172.0996)">
					<stop  offset="0" style="stop-color:#39BFF0"/>
					<stop  offset="0.2322" style="stop-color:#38BDEF"/>
					<stop  offset="0.3968" style="stop-color:#36B8EB"/>
					<stop  offset="0.5406" style="stop-color:#34AFE5"/>
					<stop  offset="0.6724" style="stop-color:#31A2DC"/>
					<stop  offset="0.7961" style="stop-color:#3091D0"/>
					<stop  offset="0.912" style="stop-color:#327CC0"/>
					<stop  offset="1" style="stop-color:#3668B1"/>
				</linearGradient>
				<path fill="url(#SVGID_3_)" d="M189.33,77.926c-1.99,0.549-4.668,1.166-8.031,1.852c-3.363,0.687-7.481,1.029-12.354,1.029
					c-3.982,0-7.312-0.584-9.987-1.75c-2.677-1.166-4.839-2.813-6.486-4.94c-1.647-2.128-2.831-4.701-3.552-7.724
					c-0.721-3.02-1.082-6.346-1.082-9.986V26.549h6.692v27.695c0,3.775,0.274,6.967,0.824,9.576
					c0.549,2.609,1.441,4.719,2.677,6.332c1.235,1.611,2.832,2.779,4.787,3.498c1.956,0.723,4.341,1.082,7.155,1.082
					c3.156,0,5.902-0.17,8.236-0.514c2.333-0.345,3.81-0.652,4.427-0.929V26.549h6.693L189.33,77.926L189.33,77.926z"/>
				
					<linearGradient id="SVGID_4_" gradientUnits="userSpaceOnUse" x1="441.3789" y1="-216.2021" x2="475.665" y2="-216.2021" gradientTransform="matrix(1 0 0 -1 -235.9902 -172.0996)">
					<stop  offset="0" style="stop-color:#39BFF0"/>
					<stop  offset="0.2322" style="stop-color:#38BDEF"/>
					<stop  offset="0.3968" style="stop-color:#36B8EB"/>
					<stop  offset="0.5406" style="stop-color:#34AFE5"/>
					<stop  offset="0.6724" style="stop-color:#31A2DC"/>
					<stop  offset="0.7961" style="stop-color:#3091D0"/>
					<stop  offset="0.912" style="stop-color:#327CC0"/>
					<stop  offset="1" style="stop-color:#3668B1"/>
				</linearGradient>
				<path fill="url(#SVGID_4_)" d="M205.389,23.255c1.99-0.824,4.066-1.766,6.229-2.832c2.164-1.063,4.272-2.23,6.332-3.5
					c2.062-1.269,4.03-2.608,5.922-4.016c1.885-1.405,3.584-2.898,5.096-4.479h10.707v71.349h-15.34V28.403
					c-2.062,1.374-4.358,2.625-6.897,3.757c-2.541,1.132-5.013,2.111-7.414,2.935L205.389,23.255z"/>
				
					<linearGradient id="SVGID_5_" gradientUnits="userSpaceOnUse" x1="496.1494" y1="-216.1001" x2="547.6289" y2="-216.1001" gradientTransform="matrix(1 0 0 -1 -235.9902 -172.0996)">
					<stop  offset="0" style="stop-color:#39BFF0"/>
					<stop  offset="0.2322" style="stop-color:#38BDEF"/>
					<stop  offset="0.3968" style="stop-color:#36B8EB"/>
					<stop  offset="0.5406" style="stop-color:#34AFE5"/>
					<stop  offset="0.6724" style="stop-color:#31A2DC"/>
					<stop  offset="0.7961" style="stop-color:#3091D0"/>
					<stop  offset="0.912" style="stop-color:#327CC0"/>
					<stop  offset="1" style="stop-color:#3668B1"/>
				</linearGradient>
				<path fill="url(#SVGID_5_)" d="M311.639,43.949c0,12.012-2.283,21.227-6.846,27.643c-4.566,6.42-10.863,9.627-18.893,9.627
					c-8.031,0-14.328-3.207-18.894-9.627c-4.563-6.416-6.848-15.631-6.848-27.643c0-5.972,0.602-11.256,1.803-15.855
					c1.199-4.598,2.935-8.476,5.199-11.634c2.266-3.156,4.976-5.56,8.133-7.207c3.158-1.647,6.69-2.471,10.604-2.471
					c8.029,0,14.326,3.21,18.894,9.626C309.355,22.828,311.639,32.006,311.639,43.949z M295.99,43.949
					c0-3.568-0.172-6.811-0.516-9.729c-0.345-2.917-0.894-5.438-1.646-7.567c-0.756-2.126-1.787-3.774-3.088-4.942
					c-1.307-1.166-2.92-1.75-4.84-1.75c-1.922,0-3.519,0.584-4.789,1.75c-1.271,1.168-2.299,2.816-3.088,4.942
					c-0.789,2.129-1.355,4.651-1.699,7.567c-0.344,2.918-0.514,6.161-0.514,9.729c0,3.57,0.17,6.83,0.514,9.781
					s0.91,5.492,1.699,7.619s1.817,3.774,3.088,4.94c1.271,1.168,2.867,1.75,4.789,1.75c1.92,0,3.533-0.582,4.84-1.75
					c1.301-1.166,2.332-2.813,3.088-4.94c0.754-2.127,1.303-4.668,1.646-7.619C295.816,50.779,295.99,47.52,295.99,43.949z"/>
			</g>
		</g>
	</g>
	<g>
		<g>
			<g>
				
					<linearGradient id="SVGID_6_" gradientUnits="userSpaceOnUse" x1="560.6211" y1="-230.0146" x2="604.3477" y2="-230.0146" gradientTransform="matrix(1 0 0 -1 -235.9902 -172.0996)">
					<stop  offset="0" style="stop-color:#39BFF0"/>
					<stop  offset="0.2322" style="stop-color:#38BDEF"/>
					<stop  offset="0.3968" style="stop-color:#36B8EB"/>
					<stop  offset="0.5406" style="stop-color:#34AFE5"/>
					<stop  offset="0.6724" style="stop-color:#31A2DC"/>
					<stop  offset="0.7961" style="stop-color:#3091D0"/>
					<stop  offset="0.912" style="stop-color:#327CC0"/>
					<stop  offset="1" style="stop-color:#3668B1"/>
				</linearGradient>
				<path fill="url(#SVGID_6_)" d="M338.268,37.654c-2.713,1.1-5.145,2.715-7.231,4.801c-2.088,2.088-3.701,4.521-4.804,7.234
					c-1.063,2.619-1.602,5.387-1.602,8.227s0.539,5.609,1.602,8.225c1.103,2.715,2.716,5.148,4.804,7.232
					c2.088,2.088,4.521,3.703,7.231,4.805c2.621,1.063,5.387,1.6,8.228,1.6c2.84,0,5.604-0.539,8.226-1.6
					c2.713-1.102,5.147-2.717,7.233-4.805c2.088-2.084,3.703-4.516,4.801-7.232c1.063-2.615,1.603-5.385,1.603-8.225
					s-0.539-5.607-1.603-8.227c-1.098-2.713-2.715-5.148-4.801-7.234s-4.521-3.701-7.233-4.801
					c-2.619-1.063-5.386-1.601-8.226-1.601C343.654,36.053,340.889,36.591,338.268,37.654z M330.096,67.119
					c-1.055-0.662-2.022-1.422-2.883-2.318c-1.313-3.693-1.535-7.691-0.666-11.486c0.408-0.805,0.873-1.58,1.4-2.321
					c0.164-0.229,0.313-0.468,0.488-0.688l4.934,2.918c0,0.041,0,0.082,0,0.125c-0.014,2.653,0.256,5.289,0.793,7.885
					c0.002,0.012,0.002,0.018,0.006,0.029l-3.826,6C330.258,67.217,330.176,67.17,330.096,67.119z M344.764,77.262
					c0.853,0.434,1.728,0.801,2.627,1.1c-3.822,0.166-7.682-0.729-11.092-2.688l8.27,1.475
					C344.631,77.189,344.695,77.229,344.764,77.262z M344.734,75.77l-9.76-1.74c-1.142-1.387-2.168-2.852-3.054-4.422
					c-0.226-0.397-0.476-0.785-0.664-1.203l3.822-5.991c0.084,0.021,0.178,0.043,0.284,0.071c2.394,0.642,4.824,1.097,7.275,1.451
					c0.144,0.021,0.264,0.037,0.365,0.047l4.582,7.924c-0.795,1.117-1.598,2.23-2.42,3.33
					C345.029,75.418,344.885,75.594,344.734,75.77z M360.973,72.395c-0.777,0.779-1.604,1.479-2.465,2.103
					c-0.143-1.146-0.393-2.265-0.74-3.36l4.89-9.119c1.348-0.613,2.646-1.31,3.852-2.172c0.16-0.109,0.289-0.236,0.392-0.373
					C366.545,64.186,364.568,68.797,360.973,72.395z M360.754,60.566c0.182,0.346,0.363,0.695,0.543,1.051l-4.723,8.809
					c-0.027,0.008-0.053,0.012-0.08,0.016c-2.551,0.478-5.127,0.73-7.721,0.744l-4.713-8.149c0.733-1.361,1.461-2.729,2.182-4.097
					c0.488-0.928,0.971-1.86,1.449-2.795l9.754-1.002C358.641,56.895,359.771,58.684,360.754,60.566z M358.777,50.117
					c-0.463,1.221-0.959,2.432-1.451,3.645l-9.502,0.975c-0.113-0.149-0.232-0.297-0.355-0.438c-1.123-1.271-2.25-2.53-3.379-3.799
					c0.012-0.013,0.023-0.021,0.031-0.033c-0.455-0.454-0.91-0.907-1.365-1.362l2.645-7.965c0.185-0.049,0.365-0.088,0.554-0.107
					c1.438-0.146,2.877-0.313,4.317-0.396c0.883-0.049,1.771-0.078,2.668-0.016l6.545,7.377
					C359.26,48.707,359.037,49.42,358.777,50.117z M360.973,43.436c1.805,1.809,3.203,3.869,4.191,6.072
					c-1.223-0.842-2.529-1.535-3.906-2.098c-0.213-0.09-0.432-0.168-0.654-0.244l-6.44-7.26c0.045-0.314,0.067-0.629,0.075-0.945
					C356.691,39.959,358.986,41.451,360.973,43.436z M339.938,38.58c0.023,0.02,0.037,0.035,0.051,0.039
					c1.474,0.508,2.813,1.258,4.074,2.146l-2.469,7.441c-0.014,0.004-0.027,0.006-0.039,0.015c-0.506,0.209-1.02,0.395-1.518,0.62
					c-2.051,0.935-4.051,1.968-5.934,3.203l-4.879-2.883c0.008-0.154,0.032-0.31,0.086-0.447c0.328-0.87,0.649-1.75,1.02-2.604
					c0.285-0.657,0.611-1.295,0.965-1.917c0.232-0.254,0.475-0.508,0.721-0.758c2.316-2.313,5.053-3.957,7.967-4.928
					C339.967,38.529,339.951,38.555,339.938,38.58z"/>
			</g>
		</g>
	</g>
</g>
</svg>
